<?xml version="1.0" encoding="UTF-8"?><svg id="a" xmlns="http://www.w3.org/2000/svg" viewBox="0 0 60 60"><defs><style>.b{fill:#fff;}</style></defs><path class="b" d="M0,60V0H60V60H0ZM53.97,29.9c-.07-13.11-10.83-23.86-23.93-23.91-13.33-.04-24.19,10.86-24.12,24.22,.07,13.12,10.82,23.87,23.92,23.91,13.31,.05,24.19-10.88,24.12-24.22Z"/><path d="M5.93,30.21c-.07-13.36,10.79-24.26,24.12-24.22,13.1,.04,23.86,10.79,23.93,23.91,.07,13.34-10.81,24.27-24.12,24.22-13.1-.04-23.86-10.79-23.92-23.91Zm25.95,8.48c-.83-3.52,2.6-8.52-3.66-11.4v14.34c3.22,1.26,4.28-.32,3.66-2.94Zm.78-18.4c-.01-1.06-1.49-2.1-2.32-3.16-1.09,.95-2.71,1.74-3.1,2.92-.25,.78,1.27,2.14,2.49,3.97,1.42-1.71,2.94-2.74,2.93-3.74Z"/><path class="b" d="M28.22,41.64c3.22,1.26,4.28-.32,3.66-2.94-.83-3.52,2.6-8.52-3.66-11.4v14.34Z"/><path class="b" d="M29.73,24.04c1.42-1.71,2.94-2.74,2.93-3.74-.01-1.06-1.49-2.1-2.32-3.16-1.09,.95-2.71,1.74-3.1,2.92-.25,.78,1.27,2.14,2.49,3.97Z"/></svg>