<?xml version="1.0" encoding="utf-8"?>
<!-- Generator: Adobe Illustrator 26.2.1, SVG Export Plug-In . SVG Version: 6.00 Build 0)  -->
<svg version="1.1" id="a" xmlns="http://www.w3.org/2000/svg" xmlns:xlink="http://www.w3.org/1999/xlink" x="0px" y="0px"
	 viewBox="0 0 215.3 234.3" style="enable-background:new 0 0 215.3 234.3;" xml:space="preserve">
<style type="text/css">
	.st0{fill:#191970;}
</style>
<path class="st0" d="M214,25.8c-2.3-6.5-9.4-13.9-14.6-15.1C169.3,3.6,138.2,0,107.2,0s-61,3.4-92,10c-10.7,2.3-15,7.8-14.9,18.9
	c0.1,10.5,0,21.1-0.1,31.3C0,78.8-0.2,98.1,0.9,116.9c0.6,10.6,3.5,21.4,6.6,32.7c0.9,3.5,1.9,7,2.8,10.6c0.5-0.2,0.9-0.4,1.4-0.7
	c3.4-1.6,5.8-2.8,8-4.1c17.4-10.3,35.2-20.9,52.3-31.1c43.5-25.9,88.4-52.6,133.1-78.3C214.1,40.9,217,34.2,214,25.8z M56.9,83.8
	L35.6,56.7l20.8-28.5l20.8,28.2L56.9,83.8z"/>
<path class="st0" d="M213.4,75L28.5,184.5c17.6,22.4,49.7,44.3,72.6,49.3c1.5,0.3,3.2,0.5,5,0.5c3.4,0,7.1-0.6,10.5-1.7
	c35.7-11.6,63.6-33.1,80.5-62.2C213.1,143,218.7,110.2,213.4,75z M158.8,185.8l-21.3-27.3l20.6-28.1l21.1,27.4L158.8,185.8
	L158.8,185.8z"/>
</svg>
