<?xml version="1.0" encoding="utf-8"?>
<!-- Generator: Adobe Illustrator 26.3.1, SVG Export Plug-In . SVG Version: 6.00 Build 0)  -->
<svg version="1.1" id="Ebene_1" xmlns="http://www.w3.org/2000/svg" xmlns:xlink="http://www.w3.org/1999/xlink" x="0px" y="0px"
	 viewBox="0 0 403.7 345" style="enable-background:new 0 0 403.7 345;" xml:space="preserve">
<style type="text/css">
	.st0{fill:#EBEBEB;}
	.st1{fill:#F0F0F0;}
	.st2{fill:#F5F5F5;}
	.st3{fill:#E0E0E0;}
	.st4{fill:#FAFAFA;}
	.st5{opacity:0.6;fill:#FAFAFA;enable-background:new    ;}
	.st6{fill:#E6E6E6;}
	.st7{opacity:0.6;fill:#F0F0F0;enable-background:new    ;}
	.st8{opacity:0.6;fill:#F5F5F5;enable-background:new    ;}
	.st9{fill:#002984;}
	.st10{opacity:0.4;}
	.st11{fill:#FFFFFF;}
	.st12{opacity:0.2;enable-background:new    ;}
	.st13{opacity:0.6;fill:#FFFFFF;enable-background:new    ;}
	.st14{opacity:0.2;fill:#263238;enable-background:new    ;}
	.st15{fill:#263238;}
	.st16{opacity:0.3;fill:#FFFFFF;enable-background:new    ;}
	.st17{opacity:0.4;fill:#FFFFFF;enable-background:new    ;}
	.st18{opacity:0.8;}
	.st19{opacity:0.2;fill:#FFFFFF;enable-background:new    ;}
	.st20{opacity:0.1;fill:#FFFFFF;enable-background:new    ;}
	.st21{opacity:0.7;fill:#FFFFFF;enable-background:new    ;}
	.st22{opacity:0.6;}
	.st23{opacity:0.3;}
	.st24{opacity:0.5;fill:#FFFFFF;enable-background:new    ;}
	.st25{opacity:0.5;enable-background:new    ;}
	.st26{opacity:0.1;enable-background:new    ;}
	.st27{fill:#BA4D3C;}
	.st28{fill:#CE7A63;}
</style>
<g id="freepik--background-complete--inject-1">
	<rect x="370.6" y="305.5" class="st0" width="33.1" height="0.2"/>
	<rect x="276.4" y="308.2" class="st0" width="8.7" height="0.2"/>
	<rect x="350.4" y="296.2" class="st0" width="19.2" height="0.2"/>
	<rect x="6.3" y="297.9" class="st0" width="43.2" height="0.2"/>
	<rect x="58.4" y="297.9" class="st0" width="6.3" height="0.2"/>
	<rect x="85.3" y="302.1" class="st0" width="93.7" height="0.2"/>
	<path class="st0" d="M190.8,244.8H-2.2c-3.2,0-5.7-2.6-5.7-5.7V-32.3c0-3.1,2.6-5.7,5.7-5.7h193.1c3.2,0,5.7,2.6,5.7,5.7
		c0,0,0,0,0,0v271.4C196.5,242.2,194,244.8,190.8,244.8z M-2.2-37.8c-3,0-5.5,2.4-5.5,5.5v271.4c0,3,2.4,5.5,5.5,5.5h193.1
		c3,0,5.5-2.4,5.5-5.5V-32.3c0-3-2.4-5.5-5.5-5.5H-2.2z"/>
	<path class="st0" d="M407.1,244.8H214c-3.2,0-5.7-2.6-5.7-5.7V-32.3c0-3.1,2.6-5.7,5.7-5.7h193.1c3.1,0,5.7,2.5,5.7,5.7v271.4
		C412.8,242.2,410.3,244.8,407.1,244.8z M214-37.8c-3,0-5.5,2.4-5.5,5.5v271.4c0,3,2.4,5.5,5.5,5.5h193.1c3,0,5.5-2.4,5.5-5.5V-32.3
		c0-3-2.4-5.5-5.5-5.5H214z"/>
	<rect x="-46.2" y="289.4" class="st0" width="500" height="0.2"/>
	<rect x="215" y="10.1" class="st1" width="29" height="38.9"/>
	<rect x="217.4" y="10.9" class="st2" width="29" height="38.9"/>
	<rect x="210" y="13.3" class="st3" width="9.2" height="43.4"/>
	<polygon class="st0" points="226.6,13.3 247.4,42.8 247.4,56.8 219.2,56.8 219.2,13.3 	"/>
	<path class="st4" d="M211.8,49.8c0,1.6,1.3,2.8,2.8,2.8s2.8-1.3,2.8-2.8c0-1.6-1.3-2.8-2.8-2.8S211.8,48.3,211.8,49.8L211.8,49.8z"
		/>
	<rect x="211.8" y="23.5" class="st1" width="5.6" height="18.3"/>
	<rect x="211.8" y="23.5" class="st5" width="5.6" height="2.6"/>
	<rect x="172.4" y="10.1" class="st1" width="29" height="38.9"/>
	<rect x="174.8" y="10.9" class="st2" width="29" height="38.9"/>
	<rect x="167.4" y="13.3" class="st3" width="9.2" height="43.4"/>
	<polygon class="st0" points="184,13.3 204.8,42.8 204.8,56.8 176.6,56.8 176.6,13.3 	"/>
	<path class="st4" d="M169.2,49.8c0,1.6,1.3,2.8,2.8,2.8s2.8-1.3,2.8-2.8c0-1.6-1.3-2.8-2.8-2.8C170.5,47,169.2,48.3,169.2,49.8
		L169.2,49.8z"/>
	<rect x="169.2" y="23.5" class="st1" width="5.6" height="18.3"/>
	<rect x="169.2" y="23.5" class="st5" width="5.6" height="2.6"/>
	<path class="st0" d="M117.1,46.4v-7.1c-0.4,0-0.7-0.3-0.7-0.7c0-0.4,0.3-0.7,0.7-0.7l0,0c2.7,0,5.4,0,8.1,0v9.8h-8.1
		c-0.4,0-0.7-0.3-0.7-0.7C116.4,46.7,116.7,46.4,117.1,46.4z"/>
	<rect x="117.1" y="39.4" class="st2" width="6.3" height="7.1"/>
	<path class="st4" d="M122.1,47.1h21.7c1.5,0,2.7-1.9,2.7-4.2s-1.2-4.2-2.7-4.2h-21.7V47.1z"/>
	<path class="st6" d="M122.1,38c7.1,0,14.3-0.1,21.4,0c4.9,0.1,5.1,9.5,0.4,9.8c-3.3,0.2-6.8,0-10.1,0h-11.6c-0.4,0-0.6-0.4-0.6-0.8
		c0-0.3,0.3-0.6,0.6-0.6h20.3c1.6,0,2.7,0,3.3-1.9c0.5-1.6,0.4-4.9-1.8-5.2c-0.2,0-0.5,0-0.7,0h-21c-0.4,0-0.7-0.3-0.7-0.7
		C121.4,38.3,121.7,38,122.1,38L122.1,38L122.1,38z"/>
	<path class="st0" d="M117,36.9v-6.3c-0.3,0-0.6-0.3-0.6-0.6c0-0.3,0.3-0.6,0.6-0.6h7.2v8.7H117c-0.3,0-0.6-0.3-0.6-0.6
		C116.4,37.2,116.7,36.9,117,36.9L117,36.9z"/>
	<rect x="117" y="30.6" class="st2" width="5.6" height="6.3"/>
	<path class="st4" d="M121.5,37.5h19.4c1.3,0,2.4-1.7,2.4-3.7s-1.1-3.8-2.4-3.8h-19.4V37.5z"/>
	<path class="st6" d="M121.5,29.4c6.3,0,12.7-0.1,19,0c4.3,0.1,4.6,8.4,0.3,8.7c-3,0.2-6,0-9,0h-10.3c-0.3,0-0.6-0.3-0.6-0.6
		c0-0.3,0.3-0.6,0.6-0.6h18c1.4,0,2.4,0,2.9-1.7c0.5-1.4,0.3-4.3-1.6-4.6c-0.2,0-0.4,0-0.6,0h-18.7c-0.3,0-0.6-0.3-0.6-0.6
		C120.9,29.7,121.1,29.4,121.5,29.4z"/>
	<path class="st0" d="M117.1,56.1V49c-0.4,0-0.7-0.3-0.7-0.7c0-0.4,0.3-0.7,0.7-0.7l0,0c2.7,0,5.4,0,8.1,0v9.8h-8.1
		c-0.4,0-0.7-0.3-0.7-0.7C116.4,56.4,116.7,56.1,117.1,56.1z"/>
	<rect x="117.1" y="49" class="st2" width="6.3" height="7.1"/>
	<path class="st4" d="M122.1,56.7h21.7c1.5,0,2.7-1.9,2.7-4.2s-1.2-4.2-2.7-4.2h-21.7V56.7z"/>
	<path class="st6" d="M122.1,47.6c7.1,0,14.3-0.1,21.4,0c4.9,0.1,5.1,9.5,0.4,9.8c-3.3,0.2-6.8,0-10.1,0h-11.6
		c-0.4,0-0.7-0.3-0.7-0.7c0-0.4,0.3-0.7,0.7-0.7l0,0h20.3c1.6,0,2.7,0,3.3-1.9c0.5-1.6,0.4-4.9-1.8-5.2c-0.2,0-0.5,0-0.7,0h-21
		c-0.4,0-0.7-0.3-0.7-0.7C121.4,47.9,121.7,47.6,122.1,47.6L122.1,47.6L122.1,47.6z"/>
	<polygon class="st2" points="88.3,56.1 86.5,56.1 33.4,56.1 33.4,63.1 86.5,63.1 88.3,63.1 374.3,63.1 374.3,56.1 	"/>
	<polygon class="st3" points="46.5,80.2 46.5,63.1 38,63.1 	"/>
	<polygon class="st2" points="42.3,80.2 33.7,63.1 38,63.1 46.5,80.2 	"/>
	<polygon class="st3" points="361.4,80.2 361.4,63.1 370,63.1 	"/>
	<polygon class="st2" points="365.7,80.2 374.3,63.1 370,63.1 361.4,80.2 	"/>
	<path class="st6" d="M102.1,38.9c0,10.3-8.3,18.6-18.6,18.6s-18.6-8.3-18.6-18.6c0,0,0,0,0,0v-0.6c0-10.3,8.3-18.6,18.6-18.6
		c10.3,0,18.6,8.3,18.6,18.6V38.9z"/>
	<path class="st1" d="M102.1,36.2c0,10.3-8.3,18.6-18.6,18.6s-18.6-8.3-18.6-18.6c0,0,0,0,0,0v-0.6c0-10.3,8.3-18.6,18.6-18.6
		c10.3,0,18.6,8.3,18.6,18.6c0,0,0,0,0,0V36.2z"/>
	<path class="st4" d="M98,35.6c0,8-6.5,14.6-14.6,14.5s-14.6-6.5-14.5-14.6c0-8,6.5-14.5,14.6-14.5C91.5,21,98,27.5,98,35.6
		C98,35.6,98,35.6,98,35.6z"/>
	<path class="st6" d="M83.5,23.3c7.6,0,13.9,5.8,14.5,13.4c0-0.4,0-0.8,0-1.1c0.2-8-6.1-14.7-14.2-14.9c-8-0.2-14.7,6.1-14.9,14.2
		c0,0.3,0,0.5,0,0.8c0,0.4,0,0.8,0.1,1.1C69.5,29.1,75.9,23.3,83.5,23.3z"/>
	<path class="st3" d="M92.7,35.6H85v-7.7c0-0.9-0.7-1.5-1.5-1.5c-0.9,0-1.5,0.7-1.5,1.5v9.2c0,0.9,0.7,1.5,1.5,1.5h9.2
		c0.9,0,1.5-0.7,1.5-1.5C94.2,36.3,93.5,35.6,92.7,35.6L92.7,35.6z"/>
	<path class="st2" d="M92.7,37.1c0.9,0,1.5-0.7,1.5-1.5c0-0.9-0.7-1.5-1.5-1.5h-9.2c-0.9,0-1.5,0.7-1.5,1.5c0,0.9,0.7,1.5,1.5,1.5
		H92.7z"/>
	<path class="st0" d="M85,26.4c0-0.9-0.7-1.5-1.5-1.5c-0.9,0-1.5,0.7-1.5,1.5l0,0v9.2c0,0.9,0.7,1.5,1.5,1.5c0.9,0,1.5-0.7,1.5-1.5
		V26.4z"/>
	<rect x="272.2" y="9.7" class="st3" width="11.2" height="46.6"/>
	<circle class="st4" cx="277.8" cy="46.4" r="3.5"/>
	<rect x="274.4" y="14.2" class="st7" width="6.9" height="22.5"/>
	<rect x="274.4" y="14.2" class="st5" width="6.9" height="3.2"/>
	<rect x="285.6" y="9.7" class="st3" width="11.2" height="46.6"/>
	<circle class="st4" cx="291.3" cy="46.4" r="3.5"/>
	<rect x="287.8" y="14.2" class="st7" width="6.9" height="22.5"/>
	<rect x="287.8" y="14.2" class="st5" width="6.9" height="3.2"/>
	<rect x="299.1" y="9.7" class="st6" width="11.2" height="46.6"/>
	<circle class="st4" cx="304.7" cy="46.4" r="3.5"/>
	<rect x="301.2" y="14.2" class="st7" width="6.9" height="22.5"/>
	<rect x="301.2" y="14.2" class="st5" width="6.9" height="3.2"/>
	<rect x="261.2" y="9.7" class="st0" width="11.2" height="46.6"/>
	<circle class="st3" cx="266.8" cy="46.4" r="3.5"/>
	<rect x="263.3" y="14.2" class="st5" width="6.9" height="22.5"/>
	<rect x="263.3" y="14.2" class="st5" width="6.9" height="3.2"/>
	<rect x="312.5" y="9.7" class="st3" width="11.2" height="46.6"/>
	<circle class="st4" cx="318.1" cy="46.4" r="3.5"/>
	<rect x="314.7" y="14.2" class="st7" width="6.9" height="22.5"/>
	<rect x="314.7" y="14.2" class="st5" width="6.9" height="3.2"/>
	
		<rect x="326.1" y="9.7" transform="matrix(0.9945 -0.1045 0.1045 0.9945 -1.6302 34.8551)" class="st0" width="11.2" height="46.6"/>
	<path class="st3" d="M336.6,45.9c0.2,1.9-1.2,3.6-3.1,3.8s-3.6-1.2-3.8-3.1c-0.2-1.9,1.2-3.6,3.1-3.8
		C334.7,42.6,336.4,44,336.6,45.9z"/>
	
		<rect x="327.5" y="14.2" transform="matrix(0.9945 -0.1045 0.1045 0.9945 -0.8467 34.7319)" class="st8" width="6.9" height="22.5"/>
	<rect x="326.5" y="14.3" transform="matrix(0.9945 -0.1045 0.1045 0.9945 0.1498 34.5731)" class="st5" width="6.9" height="3.2"/>
	<rect x="18.8" y="216.6" class="st0" width="102.5" height="35.4"/>
	<rect x="18.8" y="252" class="st0" width="102.5" height="35.4"/>
	<polygon class="st2" points="60.9,252 48.1,216.6 67.7,216.6 80.5,252 	"/>
	<polygon class="st2" points="38.6,216.6 42.9,216.6 55.7,252 51.4,252 	"/>
	<polygon class="st2" points="73.6,287.4 60.9,252 80.5,252 93.3,287.4 	"/>
	<polygon class="st2" points="51.4,252 55.7,252 68.4,287.4 64.1,287.4 	"/>
	<rect x="18.8" y="146.1" class="st0" width="102.5" height="35.4"/>
	<rect x="18.8" y="181.5" class="st0" width="102.5" height="35.4"/>
	<polygon class="st2" points="55.8,181.5 43,146.1 62.7,146.1 75.4,181.5 	"/>
	<polygon class="st2" points="33.5,146.1 37.9,146.1 50.6,181.5 46.3,181.5 	"/>
	<polygon class="st2" points="68.6,216.9 55.8,181.5 75.4,181.5 88.2,216.9 	"/>
	<polygon class="st2" points="46.3,181.5 50.6,181.5 63.4,216.9 59.1,216.9 	"/>
	<rect x="18.8" y="148" class="st3" width="102.5" height="3.6"/>
	<rect x="18.8" y="183.1" class="st3" width="102.5" height="3.6"/>
	<path class="st3" d="M67.5,168.4c-0.9,0-1.5-0.7-1.5-1.5c0-0.8,0.7-1.5,1.5-1.5h5.2c0.9,0,1.5,0.7,1.5,1.5c0,0.8-0.7,1.5-1.5,1.5
		H67.5z"/>
	<path class="st2" d="M67.5,167.8c-0.8-0.1-1.5-0.8-1.4-1.7c0.1-0.8,0.7-1.4,1.4-1.4h5.2c0.8-0.1,1.6,0.6,1.7,1.4
		c0.1,0.8-0.6,1.6-1.4,1.7c-0.1,0-0.2,0-0.2,0H67.5z"/>
	<path class="st3" d="M67.5,201c-0.9,0-1.5-0.7-1.5-1.5c0-0.8,0.7-1.5,1.5-1.5h5.2c0.9,0,1.5,0.7,1.5,1.5c0,0.8-0.7,1.5-1.5,1.5
		H67.5z"/>
	<path class="st2" d="M67.5,200.5c-0.8-0.1-1.5-0.8-1.4-1.7c0.1-0.8,0.7-1.4,1.4-1.4h5.2c0.8-0.1,1.6,0.6,1.7,1.4
		c0.1,0.8-0.6,1.6-1.4,1.7c-0.1,0-0.2,0-0.2,0H67.5z"/>
	<path class="st2" d="M17,144.5v73.9h106.1v-73.9H17z M20.6,183.4h98.9v31.5H20.6V183.4z M20.6,148.3h98.9v31.5H20.6V148.3z"/>
	<rect x="18.8" y="218.4" class="st3" width="102.5" height="3.6"/>
	<rect x="18.8" y="253.6" class="st3" width="102.5" height="3.6"/>
	<path class="st3" d="M67.5,238.8c-0.8-0.1-1.5-0.8-1.4-1.7c0.1-0.8,0.7-1.4,1.4-1.4h5.2c0.8-0.1,1.6,0.6,1.7,1.4
		c0.1,0.8-0.6,1.6-1.4,1.7c-0.1,0-0.2,0-0.2,0H67.5z"/>
	<path class="st2" d="M67.5,238.3c-0.9,0-1.5-0.7-1.5-1.5c0-0.8,0.7-1.5,1.5-1.5h5.2c0.9,0,1.5,0.7,1.5,1.5c0,0.8-0.7,1.5-1.5,1.5
		H67.5z"/>
	<path class="st3" d="M67.5,271.5c-0.8-0.1-1.5-0.8-1.4-1.7c0.1-0.8,0.7-1.4,1.4-1.4h5.2c0.8-0.1,1.6,0.6,1.7,1.4
		c0.1,0.8-0.6,1.6-1.4,1.7c-0.1,0-0.2,0-0.2,0H67.5z"/>
	<path class="st2" d="M67.5,270.9c-0.9,0-1.5-0.7-1.5-1.5c0-0.8,0.7-1.5,1.5-1.5h5.2c0.9,0,1.5,0.7,1.5,1.5c0,0.9-0.7,1.5-1.5,1.5
		c0,0,0,0,0,0H67.5z"/>
	<path class="st2" d="M17,215v73.9h106.1V215H17z M20.6,253.9h98.9v31.5H20.6V253.9z M20.6,218.8h98.9v31.5H20.6V218.8z"/>
</g>
<g id="freepik--Shadow--inject-1">
	<ellipse id="freepik--path--inject-1" class="st2" cx="199" cy="319.4" rx="193.9" ry="11.3"/>
</g>
<g id="freepik--Machine--inject-1">
	<path class="st9" d="M224.9,304.2l-54-19.9c-4.1-1.5-7.8-4-10.7-7.4l-21.4-24.6l34.3-29.9l13.7,15.8c2.9,3.3,6.6,5.9,10.7,7.4
		l43.1,15.9L224.9,304.2z"/>
	<g class="st10">
		<path class="st11" d="M224.9,304.2l-54-19.9c-4.1-1.5-7.8-4-10.7-7.4l-21.4-24.6l34.3-29.9l13.7,15.8c2.9,3.3,6.6,5.9,10.7,7.4
			l43.1,15.9L224.9,304.2z"/>
	</g>
	<path class="st12" d="M174.5,274.9l4.5-7.9c0.4-0.7,0.1-1.5-0.6-1.9c-0.4-0.2-1-0.2-1.4,0.1l-9.4,6.9c-1.1,0.8-2.7,0.8-3.7-0.1
		c-13.2-11.2-14.4-21.3-14.4-21.3l-4-4.1l-6.6,5.8l21.4,24.6c2.9,3.3,6.6,5.8,10.7,7.4l44.7,16.5l0.9-7.2
		c-15.4-2.1-33.9-11-40.8-14.5c-1.5-0.8-2.1-2.6-1.3-4C174.4,275,174.5,274.9,174.5,274.9z"/>
	<circle class="st13" cx="147.4" cy="256" r="1.5"/>
	<path class="st13" d="M159.5,253c0,0.8-0.7,1.5-1.5,1.4s-1.5-0.7-1.4-1.5c0-0.8,0.7-1.4,1.5-1.5C158.9,251.5,159.5,252.2,159.5,253
		C159.5,253,159.5,253,159.5,253z"/>
	<circle class="st13" cx="169.4" cy="246.6" r="1.5"/>
	<path class="st13" d="M181.2,239.2c0,0.8-0.7,1.5-1.5,1.5s-1.5-0.7-1.5-1.5s0.7-1.5,1.5-1.5C180.5,237.8,181.2,238.4,181.2,239.2
		C181.2,239.2,181.2,239.2,181.2,239.2z"/>
	<path class="st9" d="M161.5,245.3c9.1-4.8,16.2-10.2,18.9-13.9l-2.8-42.9l-72,37.9l33.8,26.7C143.9,252.9,152.4,250.1,161.5,245.3z
		"/>
	<path class="st13" d="M161.5,245.3c9.1-4.8,16.2-10.2,18.9-13.9l-2.8-42.9l-72,37.9l33.8,26.7C143.9,252.9,152.4,250.1,161.5,245.3
		z"/>
	<path class="st14" d="M149.4,250.7L119.1,220l-0.6-0.4l-13,6.8l33.8,26.6C142.8,252.7,146.2,252,149.4,250.7z"/>
	
		<ellipse transform="matrix(0.885 -0.4656 0.4656 0.885 -80.2956 89.7627)" class="st15" cx="141.5" cy="207.4" rx="40.7" ry="9.7"/>
	
		<ellipse transform="matrix(0.885 -0.4656 0.4656 0.885 -80.2956 89.7627)" class="st16" cx="141.5" cy="207.4" rx="40.7" ry="9.7"/>
	<path class="st15" d="M125.6,225c14.1-5,27.4-12,39.5-20.8C151,209.2,137.7,216.2,125.6,225z"/>
	<rect x="215.7" y="226.7" class="st9" width="160.5" height="94.4"/>
	<rect x="215.7" y="226.7" class="st17" width="160.5" height="94.4"/>
	<g class="st18">
		<polygon class="st11" points="157.4,228 159,230.8 156,234.5 154.4,231.7 		"/>
		<polygon class="st11" points="159,239.8 157.4,237 160.4,233.4 162,236.1 		"/>
		<polygon class="st11" points="163.4,238.7 165,241.6 161.1,243.7 160.4,242.4 		"/>
		<polygon class="st11" points="148.7,217 157.8,221.2 154.6,223 156,225.5 153,229.1 150.7,225.1 147.5,226.9 		"/>
	</g>
	<path class="st19" d="M359.9,249.3v49.6c0,0.8-0.3,1.6-0.8,2.3c-1.4,0.8-3.1,1.2-4.7,1.1h-26.9c-5.6,0-10.2-4.6-10.2-10.2v0v-41
		c0-1.7,0.4-3.4,1.3-4.9c-0.1,0.1-0.3,0.1-0.4,0.2c0.7-0.6,1.6-0.9,2.5-0.9h35.4C358.2,245.5,359.9,247.2,359.9,249.3
		C359.9,249.3,359.9,249.3,359.9,249.3z"/>
	<path class="st12" d="M323.9,306.3h26.9c3.7,0,7.1-2,8.9-5.3c-1.5,0.8-3.2,1.3-4.9,1.3h-26.9c-5.6,0-10.2-4.6-10.2-10.2v0v-41
		c0-1.7,0.4-3.4,1.3-4.9c-3.3,1.8-5.3,5.2-5.3,8.9v41C313.7,301.8,318.3,306.3,323.9,306.3L323.9,306.3z"/>
	<path class="st19" d="M280,249.3v49.6c0,0.8-0.3,1.6-0.8,2.3c-1.4,0.8-3.1,1.2-4.7,1.1h-26.9c-5.6,0-10.2-4.6-10.2-10.2v0v-41
		c0-1.7,0.4-3.4,1.3-4.9c-0.1,0.1-0.3,0.1-0.4,0.2c0.7-0.6,1.6-0.9,2.5-0.9h35.4C278.3,245.5,280,247.2,280,249.3
		C280,249.3,280,249.3,280,249.3z"/>
	<path class="st12" d="M279.5,301c-1.8,3.3-5.2,5.3-8.9,5.3h-26.9c-5.6,0-10.2-4.6-10.2-10.2v0v-41c0-3.5,1.8-6.8,4.9-8.7
		c0.1-0.1,0.3-0.2,0.4-0.2c-0.8,1.5-1.3,3.2-1.3,4.9v41c0,5.6,4.6,10.2,10.2,10.2h0h26.9c1.6,0,3.2-0.4,4.7-1.1L279.5,301z"/>
	<path class="st15" d="M263.6,275.5c0,2.8-2.3,5.1-5.1,5.1c-2.8,0-5.2-2.3-5.2-5.1c0-2.8,2.3-5.1,5.1-5.1
		C261.3,270.4,263.6,272.7,263.6,275.5C263.6,275.5,263.6,275.5,263.6,275.5z"/>
	<path class="st11" d="M263.6,275.5c0,2.8-2.3,5.1-5.1,5.1c-2.8,0-5.2-2.3-5.2-5.1c0-2.8,2.3-5.1,5.1-5.1
		C261.3,270.4,263.6,272.7,263.6,275.5C263.6,275.5,263.6,275.5,263.6,275.5z"/>
	<path class="st15" d="M263.6,275.5c0,2.8-2.3,5.1-5.1,5.1c-2.8,0-5.2-2.3-5.2-5.1c0-2.8,2.3-5.1,5.1-5.1
		C261.3,270.4,263.6,272.7,263.6,275.5C263.6,275.5,263.6,275.5,263.6,275.5z"/>
	<polygon class="st15" points="273.4,270.4 270.6,265.7 261.1,271.2 261.1,260.2 255.6,260.2 255.6,271.2 246.1,265.7 243.4,270.4 
		252.9,275.9 243.4,281.4 246.1,286.2 255.6,280.7 255.6,291.6 261.1,291.6 261.1,280.7 270.6,286.2 273.4,281.4 263.8,275.9 	"/>
	<polygon class="st20" points="273.4,270.4 270.6,265.7 261.1,271.2 261.1,260.2 255.6,260.2 255.6,271.2 246.1,265.7 243.4,270.4 
		252.9,275.9 243.4,281.4 246.1,286.2 255.6,280.7 255.6,291.6 261.1,291.6 261.1,280.7 270.6,286.2 273.4,281.4 263.8,275.9 	"/>
	<path class="st15" d="M258.4,257.6c-9.9,0-17.9,8-17.9,17.9s8,17.9,17.9,17.9c9.9,0,17.9-8,17.9-17.9
		C276.4,265.6,268.4,257.6,258.4,257.6C258.4,257.6,258.4,257.6,258.4,257.6z M258.4,289.2c-7.6,0-13.7-6.1-13.7-13.7
		c0-7.6,6.1-13.7,13.7-13.7c7.6,0,13.7,6.1,13.7,13.7C272.1,283.1,266,289.2,258.4,289.2C258.4,289.2,258.4,289.2,258.4,289.2z"/>
	<path class="st16" d="M258.4,257.6c-9.9,0-17.9,8-17.9,17.9s8,17.9,17.9,17.9c9.9,0,17.9-8,17.9-17.9
		C276.4,265.6,268.4,257.6,258.4,257.6C258.4,257.6,258.4,257.6,258.4,257.6z M258.4,289.2c-7.6,0-13.7-6.1-13.7-13.7
		c0-7.6,6.1-13.7,13.7-13.7c7.6,0,13.7,6.1,13.7,13.7C272.1,283.1,266,289.2,258.4,289.2C258.4,289.2,258.4,289.2,258.4,289.2z"/>
	<path class="st15" d="M255.6,275.8c0,1.5,1.2,2.8,2.8,2.8c1.5,0,2.8-1.2,2.8-2.8c0-1.5-1.2-2.8-2.8-2.8c0,0,0,0,0,0
		C256.8,273,255.6,274.3,255.6,275.8C255.6,275.8,255.6,275.8,255.6,275.8z"/>
	<path class="st15" d="M304.1,261.8H290c-1.6,0-2.9-1.3-2.9-2.8c0,0,0,0,0,0l0,0c0-1.6,1.3-2.9,2.9-2.9c0,0,0,0,0,0h14.2
		c1.6,0,2.9,1.3,2.9,2.9c0,0,0,0,0,0l0,0C307,260.5,305.7,261.8,304.1,261.8C304.2,261.8,304.2,261.8,304.1,261.8z"/>
	<path class="st15" d="M304.1,272.9H290c-1.6,0-2.9-1.3-2.9-2.8c0,0,0,0,0,0l0,0c0-1.6,1.3-2.9,2.9-2.9c0,0,0,0,0,0h14.2
		c1.6,0,2.9,1.3,2.9,2.9c0,0,0,0,0,0l0,0C307,271.6,305.7,272.9,304.1,272.9C304.2,272.9,304.2,272.9,304.1,272.9z"/>
	<path class="st15" d="M304.1,284H290c-1.6,0-2.9-1.3-2.9-2.8c0,0,0,0,0,0l0,0c0-1.6,1.3-2.9,2.9-2.9c0,0,0,0,0,0h14.2
		c1.6,0,2.9,1.3,2.9,2.9c0,0,0,0,0,0l0,0C307,282.7,305.7,284,304.1,284C304.2,284,304.2,284,304.1,284z"/>
	<path class="st15" d="M304.1,295.1H290c-1.6,0-2.9-1.3-2.9-2.8c0,0,0,0,0,0l0,0c0-1.6,1.3-2.9,2.9-2.9c0,0,0,0,0,0h14.2
		c1.6,0,2.9,1.3,2.9,2.9c0,0,0,0,0,0l0,0C307,293.8,305.7,295.1,304.1,295.1C304.2,295.1,304.2,295.1,304.1,295.1z"/>
	<path class="st15" d="M226.7,76.8h138.3c5.9,0,10.8,4.8,10.8,10.8v99.7c0,5.9-4.8,10.8-10.8,10.8H226.7c-5.9,0-10.8-4.8-10.8-10.8
		V87.6C216,81.6,220.8,76.8,226.7,76.8z"/>
	<path class="st21" d="M226.7,76.8h138.3c5.9,0,10.8,4.8,10.8,10.8v99.7c0,5.9-4.8,10.8-10.8,10.8H226.7c-5.9,0-10.8-4.8-10.8-10.8
		V87.6C216,81.6,220.8,76.8,226.7,76.8z"/>
	<path class="st9" d="M225.6,82.2h140.7c2.3,0,4.2,1.9,4.2,4.2v102.1c0,2.3-1.9,4.2-4.2,4.2H225.6c-2.3,0-4.2-1.9-4.2-4.2V86.4
		C221.3,84.1,223.2,82.2,225.6,82.2z"/>
	<path class="st13" d="M225.6,82.2h140.7c2.3,0,4.2,1.9,4.2,4.2v102.1c0,2.3-1.9,4.2-4.2,4.2H225.6c-2.3,0-4.2-1.9-4.2-4.2V86.4
		C221.3,84.1,223.2,82.2,225.6,82.2z"/>
	<polygon class="st15" points="314.3,224.5 311.6,189.5 280.2,189.5 277.5,224.5 	"/>
	<path class="st15" d="M334.2,226.3h-76.6c-2,0-3.7-1.6-3.7-3.6c0,0,0,0,0,0l0,0c0-2,1.6-3.7,3.7-3.7c0,0,0,0,0,0h76.6
		c2,0,3.7,1.6,3.7,3.7l0,0l0,0C337.9,224.7,336.3,226.3,334.2,226.3L334.2,226.3z"/>
	<path class="st15" d="M226.7,77.4h138.3c5.9,0,10.8,4.8,10.8,10.8v99.8c0,5.9-4.8,10.8-10.8,10.8H226.7c-5.9,0-10.8-4.8-10.8-10.8
		V88.1C216,82.2,220.8,77.4,226.7,77.4z"/>
	<path class="st15" d="M226.7,77.4h138.3c5.9,0,10.8,4.8,10.8,10.8v99.8c0,5.9-4.8,10.8-10.8,10.8H226.7c-5.9,0-10.8-4.8-10.8-10.8
		V88.1C216,82.2,220.8,77.4,226.7,77.4z"/>
	<path class="st9" d="M225.6,82.7h140.7c2.3,0,4.2,1.9,4.2,4.2v102.1c0,2.3-1.9,4.2-4.2,4.2H225.6c-2.3,0-4.2-1.9-4.2-4.2V87
		C221.3,84.6,223.2,82.7,225.6,82.7z"/>
	<path class="st9" d="M225.6,82.7h140.7c2.3,0,4.2,1.9,4.2,4.2v102.1c0,2.3-1.9,4.2-4.2,4.2H225.6c-2.3,0-4.2-1.9-4.2-4.2V87
		C221.3,84.6,223.2,82.7,225.6,82.7z"/>
	<g class="st22">
		<path class="st11" d="M225.6,82.7h140.7c2.3,0,4.2,1.9,4.2,4.2v102.1c0,2.3-1.9,4.2-4.2,4.2H225.6c-2.3,0-4.2-1.9-4.2-4.2V87
			C221.3,84.6,223.2,82.7,225.6,82.7z"/>
	</g>
	<g class="st23">
		<path class="st11" d="M334.2,226.3h-76.6c-2,0-3.7-1.6-3.7-3.6c0,0,0,0,0,0l0,0c0-2,1.6-3.7,3.7-3.7c0,0,0,0,0,0h76.6
			c2,0,3.7,1.6,3.7,3.7l0,0l0,0C337.9,224.7,336.3,226.3,334.2,226.3L334.2,226.3z"/>
	</g>
	<path class="st17" d="M231.6,102h56.6c3.2,0,5.9,2.6,5.9,5.9v56.6c0,3.2-2.6,5.9-5.9,5.9h-56.6c-3.2,0-5.9-2.6-5.9-5.9v-56.6
		C225.7,104.7,228.3,102,231.6,102z"/>
	<path class="st11" d="M288.2,162.1h-52.6c-0.7,0-1.3-0.6-1.3-1.3v-46.4c0-0.7,0.6-1.3,1.3-1.3l0,0c0.7,0,1.3,0.6,1.3,1.3
		c0,0,0,0,0,0v43.8c0,0.7,0.6,1.3,1.3,1.3h50c0.7,0,1.3,0.6,1.3,1.3c0,0,0,0,0,0l0,0C289.6,161.6,289,162.2,288.2,162.1
		C288.3,162.2,288.3,162.2,288.2,162.1z"/>
	<path class="st9" d="M278.4,122.6l0.9,2.5l4.1-1.4l-12.5,17.4l-7.7-4.9l-8,11.8l-7.7-0.4l-7.4,11.3c-0.4,0.6-0.2,1.4,0.4,1.9
		c0,0,0,0,0,0l0,0c0.6,0.4,1.4,0.2,1.9-0.4l6.6-10l7.7,0.3l7.4-10.9l7.7,4.8l13.7-19.1v4.2h2.6v-10.5L278.4,122.6z"/>
	<path class="st17" d="M304.9,102h56.6c3.2,0,5.9,2.6,5.9,5.9v56.6c0,3.2-2.6,5.9-5.9,5.9h-56.6c-3.2,0-5.9-2.6-5.9-5.9v-56.6
		C299,104.7,301.6,102,304.9,102z"/>
	<path class="st11" d="M359.5,162.1h-52.7c-0.7,0-1.3-0.6-1.3-1.3v-46.4c0-0.7,0.6-1.4,1.3-1.4c0,0,0,0,0,0l0,0
		c0.7,0,1.3,0.6,1.3,1.3v43.8c0,0.7,0.6,1.3,1.3,1.3h50c0.7,0,1.3,0.6,1.3,1.3l0,0C360.8,161.5,360.2,162.1,359.5,162.1z"/>
	<rect x="307.8" y="149.1" class="st9" width="7.7" height="11.7"/>
	<rect x="307.8" y="149.1" class="st24" width="7.7" height="11.7"/>
	<rect x="323.2" y="138.1" class="st9" width="7.7" height="22.7"/>
	<rect x="323.2" y="138.1" class="st17" width="7.7" height="22.7"/>
	<rect x="338.7" y="142.9" class="st9" width="7.7" height="17.9"/>
	<rect x="338.7" y="142.9" class="st19" width="7.7" height="17.9"/>
	<rect x="353.2" y="121.5" class="st9" width="7.7" height="39.3"/>
	<path class="st17" d="M231.6,101.5h56.6c3.2,0,5.9,2.6,5.9,5.9V164c0,3.2-2.6,5.9-5.9,5.9h-56.6c-3.2,0-5.9-2.6-5.9-5.9v-56.6
		C225.7,104.1,228.3,101.5,231.6,101.5z"/>
	<path class="st11" d="M288.2,161.6h-52.6c-0.7,0-1.3-0.6-1.3-1.3v-46.4c0-0.7,0.6-1.3,1.3-1.3l0,0c0.7,0,1.3,0.6,1.3,1.3
		c0,0,0,0,0,0v43.8c0,0.7,0.6,1.3,1.3,1.3h50c0.7,0,1.3,0.6,1.3,1.3c0,0,0,0,0,0l0,0C289.6,161,289,161.6,288.2,161.6
		C288.3,161.6,288.3,161.6,288.2,161.6z"/>
	<path class="st9" d="M278.4,122l0.9,2.5l4.1-1.4l-12.5,17.4l-7.7-4.9l-8,11.8l-7.7-0.3l-7.4,11.2c-0.4,0.6-0.2,1.4,0.4,1.8
		c0,0,0,0,0,0l0,0c0.6,0.4,1.4,0.2,1.9-0.4l6.6-10l7.7,0.3l7.4-10.9l7.7,4.8l13.7-19.1v4.2h2.6v-10.4L278.4,122z"/>
	<path class="st17" d="M304.9,101.5h56.6c3.2,0,5.9,2.6,5.9,5.9V164c0,3.2-2.6,5.9-5.9,5.9h-56.6c-3.2,0-5.9-2.6-5.9-5.9v-56.6
		C299,104.1,301.6,101.5,304.9,101.5z"/>
	<path class="st11" d="M359.5,161.6h-52.7c-0.7,0-1.3-0.6-1.3-1.3v-46.4c0-0.7,0.6-1.3,1.3-1.3l0,0c0.7,0,1.3,0.6,1.3,1.3v43.8
		c0,0.7,0.6,1.3,1.3,1.3h50c0.7,0,1.3,0.6,1.3,1.3l0,0C360.8,161,360.2,161.6,359.5,161.6z"/>
	<rect x="306.9" y="148.6" class="st9" width="7.7" height="11.7"/>
	<rect x="306.9" y="148.6" class="st13" width="7.7" height="11.7"/>
	<rect x="322.4" y="137.5" class="st9" width="7.7" height="22.7"/>
	<rect x="322.4" y="137.5" class="st17" width="7.7" height="22.7"/>
	<rect x="337.8" y="142.4" class="st9" width="7.7" height="17.9"/>
	<rect x="337.8" y="142.4" class="st19" width="7.7" height="17.9"/>
	<rect x="353.2" y="120.9" class="st9" width="7.7" height="39.3"/>
	<path class="st15" d="M213,303L213,303c-1.5,0-2.7-1.2-2.7-2.7v-49.6c0-1.5,1.2-2.7,2.7-2.7c0,0,0,0,0,0l0,0c1.5,0,2.7,1.2,2.7,2.7
		c0,0,0,0,0,0v49.5C215.7,301.8,214.5,303,213,303C213,303,213,303,213,303z"/>
</g>
<g id="freepik--Character--inject-1">
	<polygon class="st9" points="124.4,165.1 120.7,133.7 106.1,122.3 75.2,126 78.9,157.3 93.5,168.8 	"/>
	<polygon class="st24" points="124.4,165.1 120.7,133.7 106.1,122.3 75.2,126 78.9,157.3 93.5,168.8 	"/>
	<polygon class="st25" points="109.8,153.6 106.1,122.3 120.7,133.7 124.4,165.1 	"/>
	<polygon class="st26" points="124.4,165.1 109.8,153.6 78.9,157.3 93.5,168.8 124.4,165.1 	"/>
	<path class="st15" d="M110,98.5c-0.2,0.6-0.7,0.9-1.1,0.7s-0.5-0.8-0.2-1.3s0.7-0.9,1.1-0.7S110.2,98,110,98.5z"/>
	<path class="st15" d="M109.8,97.2c0,0,0.7,0.6,1.2,0.5c-0.3,0.3-0.8,0.3-1.1,0c0,0,0,0,0-0.1L109.8,97.2z"/>
	<path class="st27" d="M108.6,99.6l0.9,5.4c-1.3,0.2-2.6-0.3-3.5-1.2L108.6,99.6z"/>
	<polygon class="st28" points="92.9,108.1 88.6,113.3 80.3,108.8 88.5,101.1 	"/>
	<path class="st12" d="M90.8,110.7c-0.9-1.4-1.2-3.1-0.7-4.7l1.7,0.3l1.2,1.8L90.8,110.7z"/>
	<polygon class="st28" points="73.4,138.9 78.8,136 81.4,137.8 87.5,141.1 84,145.5 80.4,144.2 75.9,141.5 74.2,141 	"/>
	<path class="st28" d="M79.4,166l17.2,81.8l10.3,55.3l-7.1,1.6c0,0-10.1-21.1-14.1-39.4c-1.3-6.1-1.8-11.7-2.4-16.3
		c-0.7-5.4-2.9-9.4-7.5-20.4c-1.3-3-2.6-6.2-3.9-9.4c-4-9.7-7.3-19.5-10.6-24.2c-3.4-5-10.8-9.3-6.6-23.4L79.4,166z"/>
	<path class="st28" d="M70.7,169.3l-23.8,80.2L29.6,303l-7-1.9c0,0,1.2-23.4,6.4-41.4c1.7-6,4-10.8,5.6-15.1
		c1.8-4.6,1.8-8.8,2.9-19.7c0.4-3.9,0.8-8,1.2-12.2c1.1-10.5,2.8-20.6,2.3-26.3c-0.6-6-5-13.3,5.3-23.7L70.7,169.3z"/>
	<path class="st15" d="M107.4,297.9l2.5,12.7c0.1,0.6,0.5,1,1.1,1.2c1.4,0.5,4.2,1.4,5.3,1.6c2,0.2,4.1,0.4,6.2,0.4
		c0.7,0,1.3,0.5,1.5,1.1l0,0c0.2,0.7-0.2,1.5-0.9,1.7c0,0-0.1,0-0.1,0l-18.9,3.9c-0.8,0.2-1.6-0.3-1.8-1.1l-5.9-18.9
		c-0.2-0.7,0.2-1.5,0.9-1.7c0,0,0.1,0,0.1,0l8.1-2.1C106.4,296.5,107.2,297,107.4,297.9z"/>
	<path class="st15" d="M32.3,299.1l-3.1,12.5c-0.1,0.6,0,1.1,0.5,1.5c1.1,1,3.2,3,4.2,3.7s3.9,2.2,5.4,3c0.6,0.3,1,1,0.9,1.7l0,0
		c-0.1,0.7-0.8,1.3-1.6,1.1c0,0-0.1,0-0.1,0l-18.7-4.5c-0.8-0.2-1.3-0.9-1.2-1.8l2.7-19.6c0.1-0.7,0.8-1.3,1.5-1.2c0,0,0.1,0,0.1,0
		l8.2,1.5C32,297.3,32.5,298.2,32.3,299.1C32.3,299,32.3,299,32.3,299.1z"/>
	<path class="st9" d="M46.3,151.9c0,0-8.6,12.1-9.5,40.9s-0.2,37.7-3.3,45.2c0,0,29.1,8.9,62.1-2.5c0,0-9.2-37.1-10.3-49.8
		c-0.6-7.2-0.3-13.6-4.9-28.7L46.3,151.9z"/>
	<path class="st15" d="M108.8,95.3c0.1,0,0.2,0,0.3,0c0.7-0.3,1.6-0.2,2.2,0.2c0.1,0.1,0.3,0.1,0.4-0.1s0.1-0.3-0.1-0.4
		c-0.8-0.6-1.9-0.7-2.8-0.4c-0.2,0.1-0.2,0.2-0.2,0.4l0,0C108.7,95.2,108.7,95.3,108.8,95.3z"/>
	<path class="st28" d="M90,86.9c-3.4,7.1-5,10.1-3.4,15.6c3.4,6.7,11.9,11.2,17.4,5.3c4.9-5.3,9.6-16,4.3-22.7
		c-3.7-4.8-10.5-5.6-15.3-2C91.7,84.1,90.7,85.4,90,86.9z"/>
	<path class="st26" d="M66.3,241.1c0-8.2-0.5-49.4-10.1-57.8c0,0,7.1,42.8-1.9,57.8C58.3,241.3,62.3,241.3,66.3,241.1z"/>
	<path class="st15" d="M86.5,102.5c0,0,2.4-0.6,4.7,3.4l8.9-5.1c1.3-0.5,2.6-0.8,4-0.9c1.3,0.1,1.4-6.1,2.7-7.5
		c0.9-1.1,1.7-2.4,2.2-3.8c0,0,5.9-1.6,4.7-4.7s-3.8-1.4-5.4-1.8S95.1,72,90.8,82.6C90.8,82.6,80.8,87.1,86.5,102.5z"/>
	<path class="st9" d="M91.3,86.1c-1.4,1.7-3.9,1.9-5.6,0.5c-1.7-1.4-1.9-3.9-0.5-5.6c1.4-1.7,3.9-1.9,5.6-0.5
		C92.5,81.9,92.7,84.4,91.3,86.1C91.3,86.1,91.3,86.1,91.3,86.1z"/>
	<path class="st15" d="M107.8,86.4c0,0,6.8,1,5.7,4.2S110.8,87.1,107.8,86.4z"/>
	<path class="st15" d="M90.7,83.2c-2.8,3.3-7.7,3.8-11.1,1c-3.3-2.8-3.8-7.7-1-11.1c2.8-3.3,7.7-3.8,11.1-1c0,0,0,0,0,0
		C93,75,93.5,79.9,90.7,83.2C90.7,83.2,90.7,83.2,90.7,83.2z"/>
	<path class="st15" d="M86.3,85.2c0,0-6.8,0.9-5.8,4S83.3,85.7,86.3,85.2z"/>
	<path class="st28" d="M103.2,96.4c0.6,1.5,0.5,3.2-0.2,4.7c-0.9,1.9-3,1.4-4.1-0.3c-1-1.6-1.7-4.5-0.1-5.8c1.2-1,3-0.8,3.9,0.4
		C103,95.7,103.1,96.1,103.2,96.4z"/>
	<path class="st15" d="M69.8,106.1c-0.4-0.5-1-0.6-1.6-0.4c-1.2,0.6-3.5,2.4-6.5,7.3c-3.2,5.5-14.5,19.5-12.5,22.3
		s20.8,7.9,22.8,5.2l2.4,2l1.9-6.1l-2.9,0.5c0,0-1.3-4.9-13.7-6.6C59.7,130.4,74.8,112.8,69.8,106.1z"/>
	<path class="st12" d="M61,119.8l-6.4,8.1c-1.1,1.4-1.8,3.1-1.9,4.8c-0.1,1.9,0.6,3.2,4.4-2L61,119.8z"/>
	<path class="st15" d="M44.7,155.1c0,0,9.4,5.2,36.5,5.4c0,0,3.9,0.4,2-4.2c0,0,17.3-21.3,19-28.8c0.2-0.8-0.1-1.7-0.6-2.3
		c-3.4-3.6-18.2-18.4-31-19.7c-0.7-0.1-1.4,0.2-1.8,0.8c-2.3,3-10,13.8-17.5,34.9C51.2,141.2,39.6,150.1,44.7,155.1z"/>
	<path class="st15" d="M77.2,109.1l2-2.4l-0.1-0.9c-0.1-0.5,0.3-1,0.8-1.1c0.2,0,0.3,0,0.5,0.1c3,1.2,10.2,4.5,13.6,9.1
		c0.3,0.4,0.2,1-0.2,1.3c-0.2,0.1-0.4,0.2-0.6,0.2h-1.1l0.2,3.3L77.2,109.1z"/>
	<path class="st12" d="M79.5,108.7c0,0,5.3-1.4,9.6,5.8C89.1,114.5,84.8,112.1,79.5,108.7z"/>
	<path class="st12" d="M94,139.8l-2.6-2.8c0,0-6,8.2-6.8,17.6c1.6-2,4.3-5.5,7.2-9.5C93.1,142.1,94,139.8,94,139.8z"/>
	<path class="st28" d="M110.7,158.1l4-0.4c1.1-0.1,2.2,0.5,2.6,1.6l0.5,1.2l1.9,3.5c0.7,1.2,0.2,2.7-1,3.4c-0.1,0.1-0.3,0.1-0.4,0.2
		l-0.8,0.3c-1,0.3-2.1,0-2.8-0.9l-1.1-1.4c-0.1-0.1-0.2-0.3-0.2-0.4l-2.2-4.5l-0.9-0.4L110.7,158.1z"/>
	<path class="st15" d="M101.4,126.7c0.3-0.3,0.9-0.3,1.2,0.1c0.1,0.1,0.2,0.3,0.2,0.4c0.3,1.6,0.5,4.9-0.9,10.1
		c-2.3,8.3-4.4,16.8-4.4,16.8s10.8,1.1,11.1,2.9l3.8-0.5l-0.8,5.9l-2.3-1.2c0,0-1.4,3.8-15.3,1.6c-9.6-1.6-6.9-14.4-4.3-22
		c1.2-3.6,3.4-6.7,6.2-9.2L101.4,126.7z"/>
	<path class="st12" d="M73.9,152.8c0,0-6.2-6.8-19.4-10.3C54.5,142.5,54.8,149.8,73.9,152.8z"/>
</g>
<g id="freepik--Data--inject-1">
	<path class="st9" d="M124,168.3c-0.5-0.2-1-0.5-1.3-1c-0.8-1.1-1-2.5-0.8-3.9c0.2-1.1,1.1-2,2.3-2.2c1.1-0.3,2.3,0.2,2.9,1.2
		c0.4,0.6,0.7,1.2,0.8,1.9c0.1,0.7,0.1,1.3,0,2c-0.2,1.1-1.1,2-2.3,2.2C125.1,168.6,124.5,168.5,124,168.3z M126.3,166.3
		c0.3-1.2,0-2.4-0.7-3.4c-0.5-0.5-1.2-0.5-1.7,0c-0.1,0.1-0.2,0.3-0.3,0.4c-0.3,1.2,0,2.4,0.7,3.4c0.3,0.3,0.7,0.4,1.1,0.4
		C125.8,167,126.1,166.7,126.3,166.3L126.3,166.3z"/>
	<path class="st9" d="M119.6,181.8c-0.5-0.3-0.8-0.8-1.1-1.3c-0.3-0.6-0.4-1.3-0.4-2c0-0.7,0.1-1.4,0.4-2c0.2-0.5,0.6-1,1.1-1.3
		c1.4-0.9,3.2-0.5,4,0.9c0.1,0.1,0.2,0.3,0.2,0.4c0.3,0.6,0.4,1.3,0.4,2c0,0.7-0.1,1.4-0.4,2c-0.7,1.5-2.5,2.1-4,1.4
		C119.7,181.9,119.7,181.8,119.6,181.8z M122.2,180.2c0.3-0.5,0.4-1.1,0.4-1.7c0-0.6-0.1-1.2-0.4-1.7c-0.2-0.3-0.6-0.6-1-0.6
		c-0.4,0-0.8,0.2-1,0.6c-0.3,0.5-0.4,1.1-0.4,1.7c0,0.6,0.1,1.2,0.4,1.7c0.2,0.3,0.6,0.6,1,0.6C121.6,180.8,122,180.6,122.2,180.2
		L122.2,180.2z"/>
	<path class="st9" d="M144.6,175c-0.5-0.3-0.9-0.8-1.1-1.3c-0.3-0.6-0.4-1.3-0.4-2c0-0.7,0.1-1.4,0.4-2c0.2-0.5,0.6-1,1.1-1.3
		c1-0.6,2.2-0.6,3.2,0c0.5,0.3,0.9,0.8,1.1,1.3c0.3,0.6,0.4,1.3,0.4,2c0,0.7-0.1,1.4-0.4,2c-0.2,0.5-0.6,1-1.1,1.3
		C146.8,175.6,145.6,175.6,144.6,175L144.6,175z M147.2,173.5c0.3-0.5,0.4-1.1,0.4-1.7c0-0.6-0.1-1.2-0.4-1.7
		c-0.2-0.3-0.6-0.6-1-0.6c-0.4,0-0.8,0.2-1,0.6c-0.3,0.5-0.4,1.1-0.4,1.7c0,0.6,0.1,1.2,0.4,1.7c0.2,0.3,0.6,0.6,1,0.6
		C146.6,174,147,173.8,147.2,173.5L147.2,173.5z"/>
	<path class="st9" d="M137.1,200.2c-0.5-0.3-0.8-0.8-1.1-1.3c-0.3-0.6-0.4-1.3-0.4-2c0-0.7,0.1-1.4,0.4-2c0.7-1.5,2.5-2.1,4-1.4
		c0.1,0,0.2,0.1,0.2,0.1c0.5,0.3,0.9,0.7,1.1,1.3c0.3,0.6,0.4,1.3,0.4,2c0,0.7-0.1,1.4-0.4,2c-0.2,0.5-0.6,1-1.1,1.3
		C139.3,200.8,138.1,200.8,137.1,200.2z M139.7,198.7c0.3-0.5,0.4-1.1,0.4-1.7c0-0.6-0.1-1.2-0.4-1.7c-0.2-0.3-0.6-0.6-1-0.6
		c-0.4,0-0.8,0.2-1,0.6c-0.3,0.5-0.4,1.1-0.4,1.7c0,0.6,0.1,1.2,0.4,1.7c0.2,0.3,0.6,0.6,1,0.6C139.1,199.2,139.5,199,139.7,198.7z"
		/>
	<path class="st9" d="M148.4,201.9c-0.5-0.3-0.9-0.7-1.1-1.3c-0.3-0.6-0.4-1.3-0.4-2c0-0.7,0.1-1.4,0.4-2c0.7-1.5,2.5-2.1,4-1.4
		c0.1,0,0.2,0.1,0.2,0.1c0.5,0.3,0.8,0.8,1.1,1.3c0.3,0.6,0.4,1.3,0.4,2c0,0.7-0.1,1.4-0.4,2c-0.2,0.5-0.6,1-1.1,1.3
		C150.6,202.4,149.4,202.4,148.4,201.9z M151,200.3c0.3-0.5,0.4-1.1,0.4-1.7c0-0.6-0.1-1.2-0.4-1.7c-0.4-0.6-1.1-0.7-1.7-0.3
		c-0.1,0.1-0.2,0.2-0.3,0.3c-0.3,0.5-0.4,1.1-0.4,1.7c0,0.6,0.1,1.2,0.4,1.7c0.4,0.6,1.1,0.7,1.7,0.3
		C150.8,200.6,150.9,200.5,151,200.3z"/>
	<path class="st9" d="M154.2,188.6c-0.5-0.3-0.9-0.7-1.1-1.3c-0.3-0.6-0.4-1.3-0.4-2c0-0.7,0.1-1.4,0.4-2c0.7-1.5,2.5-2.1,4-1.4
		c0.1,0,0.2,0.1,0.2,0.1c0.5,0.3,0.9,0.8,1.1,1.3c0.3,0.6,0.4,1.3,0.4,2c0,0.7-0.1,1.4-0.4,2c-0.2,0.5-0.6,1-1.1,1.3
		C156.4,189.2,155.2,189.2,154.2,188.6z M156.8,187.1c0.3-0.5,0.4-1.1,0.4-1.7c0-0.6-0.1-1.2-0.4-1.7c-0.4-0.6-1.1-0.7-1.7-0.3
		c-0.1,0.1-0.2,0.2-0.3,0.3c-0.3,0.5-0.4,1.1-0.4,1.7c0,0.6,0.1,1.2,0.4,1.7c0.4,0.6,1.1,0.7,1.7,0.3
		C156.6,187.3,156.8,187.2,156.8,187.1z"/>
	<path class="st9" d="M127.3,150.1l1.4,7l-1.6,0.3l-1.1-5.7l-1.4,0.3l-0.3-1.3L127.3,150.1z"/>
	<path class="st9" d="M134.7,174.9v7.1h-1.6v-5.8h-1.4v-1.3H134.7z"/>
	<path class="st9" d="M145.5,182.6v7.1h-1.6v-5.8h-1.4v-1.3H145.5z"/>
	<path class="st9" d="M163.7,194.4v7.1H162v-5.8h-1.4v-1.3L163.7,194.4z"/>
	<path class="st9" d="M131.6,197.1v7.1H130v-5.8h-1.4v-1.3H131.6z"/>
	<path class="st9" d="M143.3,205.1v7.1h-1.6v-5.8h-1.4v-1.3H143.3z"/>
	<path class="st9" d="M128.7,185.7l-1.4,7l-1.6-0.3l1.1-5.7l-1.4-0.3l0.3-1.3L128.7,185.7z"/>
	<path class="st9" d="M137.6,162.3l1.4,7l-1.6,0.3l-1.1-5.7l-1.4,0.3l-0.3-1.3L137.6,162.3z"/>
	<path class="st9" d="M119.3,155.3c-0.6,0.1-1.1,0.1-1.7-0.1c-0.6-0.2-1.2-0.6-1.7-1.1c-0.5-0.5-0.9-1-1.1-1.7
		c-0.2-0.5-0.2-1.1-0.1-1.7c0.1-0.5,0.4-1,0.8-1.4c0.8-0.8,2-1.1,3.1-0.7c1.3,0.5,2.3,1.5,2.8,2.8c0.4,1.1,0.2,2.3-0.7,3.1
		C120.3,154.9,119.8,155.2,119.3,155.3z M120,152.4c-0.4-1.1-1.3-2-2.4-2.4c-0.7-0.1-1.3,0.3-1.4,0.9c0,0.2,0,0.3,0,0.5
		c0.4,1.1,1.3,2,2.4,2.4c0.7,0.1,1.3-0.3,1.4-0.9C120.1,152.7,120.1,152.6,120,152.4z"/>
</g>
</svg>
