<?xml version="1.0" encoding="utf-8"?>
<!-- Generator: Adobe Illustrator 26.3.1, SVG Export Plug-In . SVG Version: 6.00 Build 0)  -->
<svg version="1.1" id="Ebene_1" xmlns="http://www.w3.org/2000/svg" xmlns:xlink="http://www.w3.org/1999/xlink" x="0px" y="0px"
	 viewBox="0 0 415.1 392" style="enable-background:new 0 0 415.1 392;" xml:space="preserve">
<style type="text/css">
	.st0{fill:#EBEBEB;}
	.st1{fill:#E6E6E6;}
	.st2{fill:#F5F5F5;}
	.st3{fill:#FFFFFF;}
	.st4{fill:#E0E0E0;}
	.st5{fill:#0036AA;}
	.st6{opacity:0.4;enable-background:new    ;}
	.st7{fill:#FF8B7B;}
	.st8{fill:#263238;}
	.st9{opacity:0.2;enable-background:new    ;}
	.st10{opacity:0.7;fill:#FFFFFF;enable-background:new    ;}
	.st11{fill:#FF5652;}
</style>
<g id="freepik--background-complete--inject-72">
	<rect x="-43.9" y="327.4" class="st0" width="500" height="0.2"/>
	<path class="st0" d="M193.1,282.8H0c-3.2,0-5.7-2.6-5.7-5.7V5.7C-5.7,2.5-3.1,0,0,0h193.1c3.2,0,5.7,2.6,5.7,5.7c0,0,0,0,0,0v271.4
		C198.8,280.2,196.2,282.8,193.1,282.8z M0,0.2c-3,0-5.5,2.4-5.5,5.5v271.4c0,3,2.4,5.5,5.5,5.5h193.1c3,0,5.5-2.4,5.5-5.5V5.7
		c0-3-2.4-5.5-5.5-5.5H0z"/>
	<path class="st0" d="M409.4,282.8H216.3c-3.2,0-5.7-2.6-5.7-5.7V5.7c0-3.1,2.6-5.7,5.7-5.7h193.1c3.1,0,5.7,2.5,5.7,5.7v271.4
		C415.1,280.2,412.5,282.8,409.4,282.8z M216.3,0.2c-3,0-5.5,2.4-5.5,5.5v271.4c0,3,2.4,5.5,5.5,5.5h193.1c3,0,5.5-2.4,5.5-5.5V5.7
		c0-3-2.4-5.5-5.5-5.5H216.3z"/>
	<rect x="380" y="343.5" class="st0" width="26" height="0.2"/>
	<rect x="267.1" y="346.2" class="st0" width="45" height="0.2"/>
	<rect x="318.2" y="334.2" class="st0" width="60.8" height="0.2"/>
	<rect x="8.5" y="335.9" class="st0" width="19.2" height="0.2"/>
	<rect x="36.7" y="335.9" class="st0" width="55.3" height="0.2"/>
	<rect x="125.8" y="340.1" class="st0" width="74.5" height="0.2"/>
	<rect x="287.6" y="32.3" class="st1" width="92.5" height="125.9"/>
	<rect x="291.5" y="32.3" class="st2" width="92.5" height="125.9"/>
	<rect x="298.6" y="38.8" class="st3" width="78.3" height="112.8"/>
	<rect x="373.9" y="38.9" class="st1" width="3" height="112.8"/>
	<rect x="294.4" y="58.6" class="st2" width="86.7" height="8.8"/>
	<rect x="153.9" y="32.3" class="st1" width="92.5" height="125.9"/>
	<rect x="157.9" y="32.3" class="st2" width="92.5" height="125.9"/>
	<rect x="165" y="38.9" class="st3" width="78.3" height="112.8"/>
	<rect x="240.3" y="38.8" class="st1" width="3" height="112.8"/>
	<rect x="160.8" y="58.6" class="st2" width="86.7" height="8.8"/>
	<rect x="20.3" y="32.3" class="st1" width="92.5" height="125.9"/>
	<rect x="24.3" y="32.3" class="st2" width="92.5" height="125.9"/>
	<rect x="31.4" y="38.8" class="st3" width="78.3" height="112.8"/>
	<rect x="106.7" y="38.9" class="st1" width="3" height="112.8"/>
	<rect x="27.2" y="58.6" class="st2" width="86.7" height="8.8"/>
	<circle class="st0" cx="91.5" cy="261.8" r="14.1"/>
	<rect x="48.1" y="317.1" class="st2" width="53.4" height="10.3"/>
	<rect x="53.3" y="232" class="st2" width="42.9" height="85.1"/>
	<rect x="85.7" y="232" class="st0" width="10.5" height="85.1"/>
	<rect x="48.1" y="228.4" class="st2" width="53.4" height="7.2"/>
	<path class="st2" d="M74.7,208.2c-12.8,0-23.1,10.3-23.1,23.1h46.2C97.8,218.6,87.5,208.2,74.7,208.2L74.7,208.2z"/>
	<path class="st2" d="M74.7,206.2c-1.5,0-2.6,1.2-2.7,2.6c0,0,0,0,0,0h5.3C77.4,207.3,76.2,206.2,74.7,206.2z"/>
	<circle class="st0" cx="58" cy="261.8" r="14.1"/>
	<circle class="st2" cx="54.8" cy="261.8" r="14.1"/>
	<polygon class="st4" points="167.6,228.4 162.8,228.4 150.5,327.4 155.3,327.4 	"/>
	<polygon class="st4" points="361.1,228.4 356.3,228.4 344,327.4 348.8,327.4 	"/>
	<polygon class="st4" points="195.9,277.9 200.7,277.9 206.9,327.4 202,327.4 	"/>
	<polygon class="st4" points="389,277.9 393.8,277.9 400,327.4 395.1,327.4 	"/>
	<polygon class="st2" points="370.2,270.2 154.2,270.2 147,219.8 363,219.8 	"/>
	<polygon class="st0" points="149.1,270.2 154.2,270.2 147,219.8 142,219.8 	"/>
	<polygon class="st2" points="397.2,279.8 205.3,279.8 202,274.5 394,274.5 	"/>
	<polygon class="st0" points="150.7,279.8 205.3,279.8 202,274.5 147.5,274.5 	"/>
</g>
<g id="freepik--Shadow--inject-72">
	<ellipse id="freepik--path--inject-72" class="st2" cx="206.1" cy="361.2" rx="193.9" ry="11.3"/>
</g>
<g id="freepik--Character--inject-72">
	<path class="st5" d="M163.4,104.4c2.4,0.5,4.3,2.5,4.9,4.9c12.7,61.5-19.7,83.1-24.9,84.1s-44.5-6.9-60.2-67.8
		c-0.6-2.4,0.3-4.9,2.3-6.3l33.1-22.9c1.3-0.9,3-1.2,4.6-0.9L163.4,104.4z"/>
	<path class="st6" d="M163.4,104.4c2.4,0.5,4.3,2.5,4.9,4.9c12.7,61.5-19.7,83.1-24.9,84.1s-44.5-6.9-60.2-67.8
		c-0.6-2.4,0.3-4.9,2.3-6.3l33.1-22.9c1.3-0.9,3-1.2,4.6-0.9L163.4,104.4z"/>
	<polygon class="st7" points="188.7,341.4 196.2,339.2 193.1,321.2 185.6,323.4 	"/>
	<polygon class="st7" points="125,353.2 132.9,353.2 135.9,335.1 128,335.1 	"/>
	<path class="st8" d="M133.6,352.3h-9.5c-0.3,0-0.6,0.2-0.7,0.5l-1.5,7c-0.1,0.6,0.2,1.2,0.9,1.4c0.1,0,0.2,0,0.3,0
		c3.1,0,5.3-0.2,9.2-0.2c2.4,0,9.6,0.2,12.8,0.2s3.7-3.2,2.4-3.5c-6-1.3-10.6-3.1-12.5-4.9C134.5,352.5,134.1,352.3,133.6,352.3z"/>
	<path class="st8" d="M195.9,338.3l-8.2,2.4c-0.3,0.1-0.5,0.4-0.5,0.7l0.5,7.1c0,0.6,0.6,1.1,1.2,1c0.1,0,0.2,0,0.3,0
		c2.9-0.9,7.2-2.4,10.9-3.4c4.4-1.3,6.1-1.7,11.2-3.2c3.1-0.9,3-4.3,1.6-4.2c-6.2,0.5-9,1.3-15-0.3
		C197.2,338.1,196.5,338.1,195.9,338.3z"/>
	<polygon class="st9" points="193.1,321.2 194.7,330.5 187.2,332.7 185.6,323.4 	"/>
	<polygon class="st9" points="128,335.1 135.9,335.1 134.3,344.5 126.5,344.5 	"/>
	<path class="st8" d="M197,327.9l-12.7,3.7c0,0-10.3-43.4-15.3-67.3c-1.5-7.3-4.6-17.3-8.2-28c-4.6-13.4-10.1-27.9-14.6-39.2
		c-4.7-11.9-8.2-20.3-8.2-20.3l27.1-4.9c0,0,23.7,62.7,27.2,86.3C195.7,282.7,197,327.9,197,327.9z"/>
	<path class="st9" d="M160.7,236.4c-4.6-13.4-10.1-27.9-14.6-39.2l2.2-6.4C155.9,198,160.5,222.7,160.7,236.4z"/>
	<path class="st8" d="M150.4,174.5c0,0,4.5,66.9,3.7,89.8c-0.9,25.1-16.1,78.3-16.1,78.3h-14.3c0,0,6.3-47.8,8.1-72.2
		c2-27.8-7.9-91.1-7.9-91.1L150.4,174.5z"/>
	<polygon class="st5" points="139.7,343 122.8,343 122.8,337.9 141.7,337.6 	"/>
	<polygon class="st5" points="198.7,327.7 183.5,332.2 182.1,327.3 198.9,322 	"/>
	<path class="st5" d="M136.2,353.7c0.5,0,1.1-0.1,1.5-0.4c0.3-0.2,0.4-0.6,0.4-1c0-0.2-0.1-0.4-0.3-0.5c-0.9-0.4-3.4,1.1-3.7,1.3
		c-0.1,0-0.1,0.1-0.1,0.2c0,0.1,0.1,0.1,0.1,0.1C134.8,353.6,135.5,353.7,136.2,353.7z M137.4,352.1c0.1,0,0.2,0,0.2,0
		c0.1,0,0.1,0.1,0.1,0.2c0,0.3-0.1,0.5-0.2,0.7c-0.9,0.4-1.9,0.5-2.8,0.1C135.5,352.6,136.4,352.3,137.4,352.1z"/>
	<path class="st5" d="M134.2,353.4L134.2,353.4c0.9-0.4,2.5-2.2,2.3-3c-0.1-0.3-0.3-0.5-0.6-0.5c-0.3,0-0.6,0-0.8,0.2
		c-0.9,0.8-1.1,3-1.1,3.1C134,353.3,134,353.4,134.2,353.4C134.1,353.5,134.2,353.4,134.2,353.4z M135.8,350.3L135.8,350.3
		c0.3,0,0.3,0.1,0.4,0.2c0.1,0.5-0.9,1.8-1.7,2.4c0.1-0.9,0.4-1.7,0.9-2.5C135.5,350.3,135.6,350.3,135.8,350.3L135.8,350.3z"/>
	<path class="st5" d="M196.9,339.1L196.9,339.1c1.3-0.1,3.5-0.5,4.1-1.4c0.2-0.3,0.2-0.7,0.1-1c-0.1-0.2-0.2-0.3-0.4-0.4
		c-1.1-0.2-3.6,2.2-3.9,2.5c-0.1,0.1-0.1,0.2,0,0.3C196.8,339.1,196.9,339.1,196.9,339.1L196.9,339.1z M200.6,336.7L200.6,336.7
		c0.2,0,0.2,0.1,0.2,0.2c0.1,0.2,0.1,0.4,0,0.6c-0.3,0.5-1.6,1-3.3,1.2C198.5,337.8,199.9,336.7,200.6,336.7z"/>
	<path class="st5" d="M196.9,339.1c0,0,0.1,0,0.1,0c0.8-0.7,2.1-2.8,1.7-3.6c-0.1-0.2-0.3-0.4-0.8-0.3c-0.4,0.1-0.7,0.3-0.9,0.6
		c-0.7,1.1-0.3,3.1-0.3,3.2C196.8,339.1,196.8,339.1,196.9,339.1L196.9,339.1z M198.2,335.5c0.2,0,0.2,0.1,0.2,0.1
		c0.2,0.5-0.6,2.1-1.4,3c-0.2-0.9-0.1-1.8,0.3-2.6c0.1-0.2,0.4-0.4,0.6-0.4L198.2,335.5z"/>
	<path class="st7" d="M158.4,111.3c1,2,2.2,4.3,3.4,6.4s2.4,4.2,3.6,6.3c2.4,4.1,5.1,8.1,8,11.8l1,1.3c0.2,0.3,0.5,0.5,0.7,0.8
		c0.2,0.2,0.3,0.3,0.3,0.3c-0.2,0-0.3,0-0.5,0.1c-0.2,0.1-0.4,0.2-0.4,0.2s0.2-0.1,0.5-0.3c0.6-0.6,1.2-1.3,1.6-2
		c1.1-2,2.1-4,2.9-6.1c0.4-1.1,0.9-2.2,1.2-3.4l1.1-3.4l5.8,0.8c0,1.4-0.1,2.7-0.2,4s-0.3,2.7-0.5,4c-0.4,2.8-1.1,5.5-2.2,8.1
		c-0.6,1.6-1.5,3-2.5,4.4c-0.7,0.9-1.5,1.6-2.4,2.2c-1.1,0.8-2.5,1.3-3.9,1.5c-1.4,0.2-2.9,0-4.2-0.4c-1.1-0.4-2.1-0.9-3-1.6
		c-0.8-0.5-1.5-1.1-2.1-1.8c-0.3-0.3-0.5-0.5-0.8-0.8l-0.7-0.8c-1-1-1.8-2-2.7-3s-1.7-2.1-2.5-3.1c-1.7-2.1-3.1-4.3-4.6-6.5
		s-2.8-4.5-4.1-6.8c-0.6-1.1-1.3-2.3-1.9-3.5s-1.2-2.3-1.8-3.6L158.4,111.3z"/>
	<path class="st5" d="M144.2,112.3c-1.3,7.4,15.5,25.2,15.5,25.2l13.9-11.2c-3.5-5.9-7.6-11.4-12.2-16.4
		C154.4,102.9,145.7,104.2,144.2,112.3z"/>
	<path class="st9" d="M160.8,123.8c1.7,3,3.2,6.1,4.4,9.3l-5.5,4.5c0,0-10-10.6-14-18.9C149.9,114.8,156.7,116.6,160.8,123.8z"/>
	<path class="st5" d="M109.2,112.9c3.2,8.1,5.8,16.5,7.8,25c1.4,6,2.5,11.6,3.3,16.8c2,12.1,2.8,21.5,3.5,24.6
		c6-1.1,28.8-5.2,41.2-7.5c0.7-44.9-12.6-66.5-12.6-66.5c-3.4-0.2-6.7-0.3-10.1-0.1c-0.7,0-1.4,0.1-2.1,0.2
		c-5.9,0.7-11.7,1.8-17.5,3.2c-1.1,0.2-2.2,0.5-3.3,0.8C113.9,111,109.2,112.9,109.2,112.9z"/>
	<path class="st8" d="M117.8,173.7c-0.6,0-1-0.4-1-1c0-0.4,0.2-0.8,0.6-0.9c0.4-0.2,37.3-17.1,31-67.9c-0.1-0.6,0.3-1.1,0.9-1.1
		s1.1,0.3,1.1,0.9c6.5,52.3-31.8,69.8-32.2,69.9C118,173.6,117.9,173.7,117.8,173.7z"/>
	<path class="st5" d="M119.4,214.9L119.4,214.9c-0.8-0.5-1.1-1.6-0.5-2.4c0,0,0,0,0,0L250.3,11c0.5-0.8,1.6-1,2.5-0.5l0,0
		c0.8,0.5,1.1,1.6,0.5,2.5L121.9,214.3C121.3,215.2,120.2,215.4,119.4,214.9C119.4,214.9,119.4,214.9,119.4,214.9z"/>
	<path class="st10" d="M119.4,214.9L119.4,214.9c-0.8-0.5-1.1-1.6-0.5-2.4c0,0,0,0,0,0L250.3,11c0.5-0.8,1.6-1,2.5-0.5l0,0
		c0.8,0.5,1.1,1.6,0.5,2.5L121.9,214.3C121.3,215.2,120.2,215.4,119.4,214.9C119.4,214.9,119.4,214.9,119.4,214.9z"/>
	<path class="st5" d="M338.2,77.4c-1.6-1.3-3.3-2.6-5-4l0.6-0.8c1.7,1.4,3.3,2.8,4.9,4L338.2,77.4z"/>
	<path class="st5" d="M328.8,69.6c-4.9-4.3-9.8-8.8-14.5-13.1l0.7-0.7c4.7,4.3,9.5,8.8,14.5,13.1L328.8,69.6z"/>
	<path class="st5" d="M330.8,180c-53.8-13.9-79.5-71-131.5-87.8c-2.2-0.7-3.5-3.1-2.7-5.4c0.1-0.4,0.3-0.7,0.5-1l45.4-69.6
		c1-1.6,3-2.3,4.8-1.8c53.6,15.8,79.1,74.3,133.8,88.4L330.8,180z"/>
	<path class="st3" d="M307.1,66.9l-1,3.7l2.7,2.5l-3.4-0.2l-1,3.7l-1-3.8l-3.4-0.2l2.7-2.1l-1-3.8l2.7,2.5L307.1,66.9z"/>
	<path class="st3" d="M272.9,119.2l-1,3.7l2.7,2.5l-3.4-0.2l-1,3.7c-0.3-1.3-0.7-2.5-1-3.8l-3.3-0.2l2.7-2.1l-1-3.8l2.7,2.5
		L272.9,119.2z"/>
	<path class="st3" d="M293.2,59.9c-0.4,1.2-0.7,2.4-1,3.7l2.7,2.5l-3.4-0.2c-0.3,1.2-0.7,2.4-1,3.7l-1-3.8c-1.1-0.1-2.3-0.1-3.4-0.2
		l2.7-2.2c-0.3-1.2-0.7-2.5-1.1-3.7l2.8,2.4L293.2,59.9z"/>
	<path class="st3" d="M316.3,81l-2.7,2.1l-2.7-2.5c0.4,1.3,0.7,2.5,1,3.8l-2.7,2.1l3.4,0.2c0.3,1.2,0.7,2.5,1.1,3.8
		c0.3-1.2,0.7-2.4,1-3.6l3.4,0.2l-2.8-2.4C315.6,83.4,316,82.2,316.3,81z"/>
	<path class="st3" d="M286.2,126.4c-0.3,1.2-0.7,2.4-1,3.6c0.9,0.8,1.8,1.6,2.8,2.4l-3.4-0.2c-0.4,1.2-0.7,2.4-1,3.6l-1-3.8
		l-3.4-0.2l2.7-2.1c-0.3-1.3-0.7-2.5-1-3.8l2.7,2.5L286.2,126.4z"/>
	<path class="st3" d="M263.6,105.9l-2.7,2.1l-2.8-2.4c0.4,1.2,0.7,2.5,1.1,3.7l-2.7,2.1l3.4,0.2c0.3,1.2,0.7,2.5,1,3.8l1-3.6
		c1.1,0.1,2.2,0.1,3.4,0.2l-2.7-2.5L263.6,105.9z"/>
	<path class="st3" d="M278.1,62.3l-1,3.6l2.8,2.4l-3.4-0.1c-0.3,1.2-0.7,2.4-1,3.6c-0.4-1.2-0.7-2.5-1.1-3.7l-3.5-0.1l2.8-2.2
		c-0.4-1.2-0.8-2.4-1.1-3.6c1,0.8,1.9,1.5,2.8,2.3L278.1,62.3z"/>
	<path class="st3" d="M318.5,98.3l-2.8,2.2l-2.8-2.4c0.4,1.2,0.7,2.5,1.1,3.7l-2.8,2.2l3.4,0.1c0.4,1.2,0.7,2.4,1.1,3.7l1-3.6
		l3.5,0.1l-2.8-2.3L318.5,98.3z"/>
	<path class="st3" d="M301.4,123.9l-1,3.6l2.8,2.3l-3.5-0.1l-1,3.6l-1.1-3.7l-3.4-0.1l2.8-2.2c-0.4-1.2-0.7-2.5-1.1-3.7
		c0.9,0.8,1.9,1.6,2.8,2.4L301.4,123.9z"/>
	<path class="st3" d="M261.5,88.3l-2.8,2.2l-2.8-2.3c0.4,1.2,0.8,2.4,1.1,3.6l-2.8,2.2l3.5,0.1c0.4,1.2,0.7,2.4,1.1,3.7l1-3.6
		l3.4,0.1l-2.8-2.3L261.5,88.3z"/>
	<path class="st3" d="M266.2,72.8c-0.3,1.2-0.7,2.4-1,3.6l2.8,2.3c-1.2,0-2.3-0.1-3.5-0.1l-1,3.6c-0.4-1.2-0.8-2.4-1.1-3.6H259
		l2.8-2.2l-1.2-3.6c1,0.7,1.9,1.5,2.9,2.2L266.2,72.8z"/>
	<path class="st3" d="M313.2,114.1c-0.3,1.2-0.7,2.4-1,3.6c1,0.8,1.9,1.5,2.9,2.2h-3.5c-0.3,1.2-0.7,2.4-1,3.6
		c-0.4-1.2-0.8-2.4-1.2-3.6l-3.5-0.1l2.8-2.2c-0.4-1.2-0.8-2.4-1.1-3.7c0.9,0.8,1.9,1.6,2.8,2.3L313.2,114.1z"/>
	<path class="st3" d="M296.4,101.7c-5-4.6-10-9.3-15.1-13.9c-0.5-0.5-1.3-0.5-1.8,0c-0.1,0.1-0.1,0.1-0.2,0.2l-7.6,11.6
		c-0.5,0.7-0.3,1.7,0.3,2.3c5,4.6,10,9.3,15.1,13.9c0.5,0.5,1.3,0.5,1.8,0c0.1-0.1,0.1-0.1,0.2-0.2l7.6-11.7
		C297.1,103.3,297,102.3,296.4,101.7z M285.2,102.5l-2.4,4.7c-0.9-0.8-1.7-1.6-2.6-2.4l3.3-4c-0.4-0.9-0.3-2,0.2-2.9
		c0.6-1,1.9-1.3,2.9-0.7c0.2,0.1,0.3,0.2,0.4,0.3c1.1,1,1.3,2.6,0.5,3.9C287,102.3,286.1,102.7,285.2,102.5z"/>
	<path class="st3" d="M295.9,99.1L295.9,99.1c-0.5-0.5-0.6-1.4-0.3-2l0.7-1.1c2-3.2,1.7-7.2-0.6-10.1c-2.9-3.4-7.4-3.1-9.7,0.4
		l-0.8,1.3c-0.3,0.5-1,0.7-1.5,0.4c-0.1,0-0.2-0.1-0.2-0.2l0,0c-0.5-0.5-0.7-1.4-0.3-2c0.2-0.3,0.4-0.7,0.7-1
		c2.8-4.3,8.1-5.4,12.1-2.2c4.4,3.8,5.4,10.2,2.4,15.1l-0.9,1.3c-0.3,0.5-1,0.6-1.5,0.3C296,99.2,296,99.2,295.9,99.1z"/>
	<path class="st9" d="M116.9,137.9c1.4,6,2.5,11.6,3.3,16.8l4.4-17.2L116.9,137.9z"/>
	<path class="st8" d="M125.1,88.1c1.5,2,1.3,4.7-0.4,6s-4.4,0.7-5.9-1.3s-1.3-4.7,0.4-6S123.5,86,125.1,88.1z"/>
	<path class="st8" d="M137.7,73.9c1.1,4.2,0.3,8.1-1.8,8.6s-4.7-2.4-5.8-6.7s-0.3-8.1,1.8-8.6S136.6,69.7,137.7,73.9z"/>
	<path class="st7" d="M120.8,88.6c2.1,5.4,5.1,15.6,1.9,20c4.2,3,9.4,4.1,14.5,2.9c4.8-1,4.4-4.4,3-6.1c-6.6-0.4-7.2-5-6.9-9.6
		L120.8,88.6z"/>
	<path class="st9" d="M125.8,91.5l7.4,4.3c-0.1,1.1-0.1,2.1,0,3.2c-2.5,0.1-6.2-1.9-7-4.4C125.9,93.6,125.8,92.5,125.8,91.5z"/>
	<path class="st7" d="M116.6,82.2c3,7.2,4.4,11.5,9.4,14c7.5,3.7,15.4-2.8,14.6-10.7c-0.7-7.1-5.5-17.6-13.7-18
		c-5.8-0.3-10.8,4.2-11.1,10.1C115.7,79.1,116,80.7,116.6,82.2z"/>
	<path class="st8" d="M120.4,87.6c1.1-1.6,2.6-8.4,0.5-11.2c2-1,11.1-3.7,13-6.9c2.4-4,3.8-10.7-6-11.4s-5.6,6.8-5.6,6.8
		s-18.7,4.8-13.9,10.4c-6.5,3.3,4.6,15.2,7.7,14c1.9-0.8,3.6,3.2,4.6,1.4C121.3,89.7,121.2,88.4,120.4,87.6z"/>
	<path class="st7" d="M116,90.5c1.4,1.3,3.3,2,5.3,1.9c2.6-0.1,3.1-2.6,1.7-4.6c-1.3-1.8-4.1-3.9-6.4-2.8S114.3,88.9,116,90.5z"/>
	<path class="st8" d="M128.5,80.4c0.2,0.6,0.7,1,1.1,0.8s0.5-0.7,0.3-1.3s-0.7-1-1.1-0.8S128.2,79.8,128.5,80.4z"/>
	<path class="st8" d="M135.2,78c0.2,0.6,0.7,1,1.1,0.8s0.5-0.7,0.3-1.3s-0.7-1-1.1-0.8S135,77.4,135.2,78z"/>
	<path class="st11" d="M133.2,79.1c1.3,1.6,2.9,3,4.6,4.1c-0.6,0.9-1.6,1.4-2.7,1.5L133.2,79.1z"/>
	<path class="st8" d="M133.2,87.2c0.3-0.1,0.5-0.1,0.8-0.2c0.1,0,0.1-0.1,0.1-0.2c0,0,0,0,0,0c0-0.1-0.1-0.1-0.2-0.1c0,0,0,0,0,0
		c-1.5,0.6-3.2,0.4-4.5-0.5c-0.1-0.1-0.2,0-0.3,0c-0.1,0.1,0,0.2,0,0.3C130.3,87.2,131.8,87.5,133.2,87.2z"/>
	<path class="st8" d="M125.6,78.9c0.1,0,0.2-0.1,0.3-0.2c0.3-0.9,0.9-1.7,1.8-2c0.2,0,0.3-0.2,0.3-0.4c0,0,0,0,0,0
		c-0.1-0.2-0.3-0.3-0.4-0.3c-1.1,0.4-2,1.3-2.4,2.4c-0.1,0.2,0,0.4,0.2,0.5C125.5,78.9,125.6,78.9,125.6,78.9z"/>
	<path class="st8" d="M137.3,74.7c0.1,0,0.1,0,0.2-0.1c0.1-0.1,0.1-0.4,0-0.5c0,0,0,0,0,0c-0.8-0.9-2-1.3-3.2-1.1
		c-0.2,0-0.4,0.2-0.3,0.4s0.2,0.4,0.4,0.3c0,0,0.1,0,0.1,0c0.9-0.1,1.9,0.2,2.5,0.9C137,74.7,137.2,74.7,137.3,74.7z"/>
	<path class="st7" d="M117,120.5l0.6,3.4c0.2,1.2,0.4,2.3,0.7,3.5c0.5,2.3,1,4.6,1.6,6.9c1.1,4.5,2.5,8.9,4.1,13.3
		c0.2,0.5,0.4,1,0.7,1.5l0.6,1.3c0.3,0.6,0.7,1.1,1.1,1.5c1.5,1.3,3.2,2.5,5.1,3.4c4.2,2.1,8.6,4,13,5.6l-1.1,5.8
		c-5.3-0.3-10.5-1.2-15.5-2.9c-2.8-0.9-5.4-2.2-7.8-3.9c-1.5-1.1-2.9-2.4-3.9-3.9l-0.4-0.7l-0.2-0.4l-0.5-0.9
		c-0.3-0.6-0.7-1.2-0.9-1.8c-2.3-4.7-4.2-9.7-5.6-14.7c-0.7-2.5-1.4-5-1.9-7.5c-0.3-1.3-0.5-2.5-0.8-3.8s-0.4-2.5-0.6-3.9L117,120.5
		z"/>
	<path class="st5" d="M103.6,117.6c-4.1,6.3,1.8,24.7,1.8,24.7l19.8-4.1c-1.1-6-2.8-11.8-4.9-17.5
		C116.5,110.9,108.6,110,103.6,117.6z"/>
	<path class="st7" d="M143.3,160.6l7.9-0.3l-3.8,9.3c0,0-6.8-1.2-6.6-4.9L143.3,160.6z"/>
	<polygon class="st7" points="156.6,164.1 153.1,171.6 147.5,169.6 151.2,160.3 	"/>
	<path class="st7" d="M187.5,125l2.4-5.7l-10.1-1.7c0,0-0.8,5.2,3.1,8.1L187.5,125z"/>
	<polygon class="st7" points="186.7,110.1 178.7,113.4 179.8,117.6 189.9,119.2 	"/>
</g>
</svg>
