<?xml version="1.0" encoding="utf-8"?>
<!-- Generator: Adobe Illustrator 26.3.1, SVG Export Plug-In . SVG Version: 6.00 Build 0)  -->
<svg version="1.1" id="Ebene_1" xmlns="http://www.w3.org/2000/svg" xmlns:xlink="http://www.w3.org/1999/xlink" x="0px" y="0px"
	 viewBox="0 0 665 500" style="enable-background:new 0 0 665 500;" xml:space="preserve">
<style type="text/css">
	.st0{fill:#EBEBEB;}
	.st1{fill:#A6A6A6;}
	.st2{fill:#0010AE;}
	.st3{fill:#263238;}
	.st4{fill:#DBDBDB;}
	.st5{fill:#37474F;}
	.st6{fill:#C7C7C7;}
	.st7{fill:#FFFFFF;}
	.st8{fill:#455A64;}
	.st9{opacity:0.6;fill:#FFFFFF;enable-background:new    ;}
	.st10{opacity:0.1;enable-background:new    ;}
	.st11{fill:#F7A9A0;}
	.st12{fill:#AD6359;}
	.st13{fill:#FF9CBD;}
	.st14{opacity:0.2;fill:#263238;enable-background:new    ;}
</style>
<g id="freepik--background-complete--inject-59">
	<path class="st0" d="M172,132.3H45.4V45.7H172V132.3z M46.4,131.3H171V46.7H46.4V131.3z"/>
	<path class="st1" d="M55.3,51.3c0,1.4-1.1,2.5-2.5,2.5c-1.4,0-2.5-1.1-2.5-2.5s1.1-2.5,2.5-2.5l0,0C54.1,48.8,55.3,49.9,55.3,51.3z
		"/>
	<path class="st0" d="M65.6,51.3c0,1.4-1.1,2.5-2.5,2.5c-1.4,0-2.5-1.1-2.5-2.5c0-1.4,1.1-2.5,2.5-2.5
		C64.4,48.7,65.5,49.9,65.6,51.3C65.5,51.3,65.6,51.3,65.6,51.3z"/>
	<path class="st2" d="M75.8,51.3c0,1.4-1.1,2.5-2.5,2.5c-1.4,0-2.5-1.1-2.5-2.5s1.1-2.5,2.5-2.5l0,0C74.7,48.8,75.8,49.9,75.8,51.3z
		"/>
	<rect x="45.9" y="55.7" class="st0" width="125.6" height="1"/>
	<path class="st0" d="M620.6,233.5H494v-86.6h126.6V233.5z M495,232.5h124.6v-84.6H495L495,232.5z"/>
	<path class="st1" d="M503.9,152.4c0,1.4-1.1,2.5-2.5,2.5c-1.4,0-2.5-1.1-2.5-2.5c0-1.4,1.1-2.5,2.5-2.5
		C502.7,149.9,503.9,151.1,503.9,152.4C503.9,152.4,503.9,152.4,503.9,152.4z"/>
	<path class="st0" d="M514.2,152.4c0,1.4-1.1,2.5-2.5,2.5c-1.4,0-2.5-1.1-2.5-2.5c0-1.4,1.1-2.5,2.5-2.5
		C513,149.9,514.2,151.1,514.2,152.4C514.2,152.4,514.2,152.4,514.2,152.4z"/>
	<path class="st2" d="M524.5,152.4c0,1.4-1.1,2.5-2.5,2.5c-1.4,0-2.5-1.1-2.5-2.5c0-1.4,1.1-2.5,2.5-2.5
		C523.3,149.9,524.5,151.1,524.5,152.4C524.5,152.4,524.5,152.4,524.5,152.4z"/>
	<rect x="494.5" y="156.9" class="st0" width="125.6" height="1"/>
	<path class="st0" d="M624.7,128l5.9-9.5l-2.9-1.8c-0.8-0.5-1.3-1.5-1.2-2.5c0-0.6,0-1.1,0-1.7c0-1,0.5-1.9,1.4-2.4l3-1.6l-5.3-9.8
		l-3,1.6c-0.9,0.5-2,0.4-2.8-0.2c-0.5-0.3-0.9-0.6-1.4-0.9c-0.9-0.5-1.4-1.4-1.4-2.4l0.1-3.4L606,93l-0.1,3.4c0,1-0.6,1.9-1.6,2.3
		l-0.7,0.4l-0.7,0.4c-0.9,0.5-1.9,0.5-2.8,0l-2.9-1.8l-5.9,9.5l2.9,1.8c0.8,0.5,1.3,1.5,1.2,2.5c0,0.6-0.1,1.1-0.1,1.7
		c0,1-0.5,2-1.4,2.4l-3,1.6l5.3,9.8l3-1.6c0.9-0.5,2-0.4,2.8,0.2c0.5,0.3,0.9,0.6,1.4,0.9c0.9,0.5,1.4,1.4,1.4,2.4l-0.1,3.4
		l11.2,0.4l0.1-3.4c0-1,0.6-1.9,1.5-2.3l0.7-0.4c0.2-0.1,0.5-0.3,0.7-0.4c0.9-0.5,1.9-0.5,2.8,0L624.7,128z M615.3,121
		c-4.5,2.4-10,0.7-12.4-3.8c-2.4-4.5-0.7-10,3.8-12.4c4.4-2.4,9.9-0.7,12.3,3.7C621.4,113,619.7,118.5,615.3,121L615.3,121z"/>
	<path class="st0" d="M96,255.8l5.9-9.5l-2.9-1.8c-0.8-0.5-1.3-1.5-1.2-2.5c0-0.6,0-1.1,0-1.7c0-1,0.5-1.9,1.4-2.4l3-1.6l-5.3-9.9
		l-3,1.6c-0.9,0.5-2,0.4-2.8-0.2c-0.5-0.3-0.9-0.6-1.4-0.9c-0.9-0.5-1.4-1.4-1.4-2.4l0.1-3.4l-11.2-0.3l-0.1,3.4
		c0,1-0.6,1.9-1.6,2.3c-0.2,0.1-0.5,0.2-0.7,0.4l-0.7,0.4c-0.8,0.5-1.9,0.5-2.8,0l-2.9-1.8l-5.9,9.5l2.9,1.8
		c0.8,0.5,1.3,1.5,1.2,2.5c-0.1,0.6-0.1,1.1-0.1,1.7c0,1-0.5,1.9-1.4,2.4l-3,1.6l5.3,9.9l3-1.6c0.9-0.5,2-0.4,2.8,0.2
		c0.5,0.3,0.9,0.6,1.4,0.9c0.9,0.5,1.4,1.4,1.4,2.4l-0.1,3.4l11.2,0.4l0.1-3.4c0-1,0.6-1.9,1.6-2.3l0.7-0.4l0.7-0.4
		c0.9-0.5,1.9-0.5,2.8,0L96,255.8z M86.6,248.8c-4.5,2.4-10,0.7-12.4-3.7s-0.7-10,3.7-12.4c4.5-2.4,10-0.7,12.4,3.7c0,0,0,0,0,0
		C92.7,240.8,91,246.4,86.6,248.8C86.6,248.8,86.5,248.8,86.6,248.8L86.6,248.8z"/>
	<path class="st0" d="M584.7,55.9l-3.9-6.8l-2.1,1.2c-0.6,0.4-1.4,0.3-2-0.1c-0.3-0.2-0.7-0.4-1-0.6c-0.6-0.3-1-1-1-1.7v-2.4h-7.8
		V48c0,0.7-0.4,1.3-1,1.7c-0.3,0.2-0.7,0.4-1,0.6c-0.6,0.4-1.4,0.4-2,0.1l-2.1-1.2l-3.9,6.8l2.1,1.2c0.6,0.4,1,1,0.9,1.7
		c0,0.2,0,0.4,0,0.6s0,0.4,0,0.6c0,0.7-0.3,1.4-0.9,1.7l-2.1,1.2l3.9,6.8l2.1-1.2c0.6-0.4,1.4-0.3,2,0.1c0.3,0.2,0.7,0.4,1,0.6
		c0.6,0.3,1,1,1,1.7v2.4h7.8v-2.4c0-0.7,0.4-1.3,1-1.7c0.3-0.2,0.7-0.4,1-0.6c0.6-0.4,1.4-0.4,2-0.1l2.1,1.2l3.9-6.8l-2.1-1.2
		c-0.6-0.4-1-1-0.9-1.7c0-0.2,0-0.4,0-0.6s0-0.4,0-0.6c-0.1-0.7,0.3-1.4,0.9-1.7L584.7,55.9z M577.2,59.4c0,3.5-2.9,6.4-6.4,6.4
		c-3.5,0-6.4-2.9-6.4-6.4s2.9-6.4,6.4-6.4c0,0,0,0,0,0C574.4,53,577.2,55.9,577.2,59.4C577.2,59.4,577.2,59.4,577.2,59.4z"/>
</g>
<g id="freepik--Shadow--inject-59">
	<ellipse class="st0" cx="334" cy="429.9" rx="314.8" ry="19.5"/>
</g>
<g id="freepik--Floor--inject-59">
	<polygon class="st3" points="9.7,399.7 90.8,399.5 171.9,399.4 334,399.2 496.1,399.4 577.2,399.5 658.3,399.7 577.2,400 
		496.1,400.1 334,400.2 171.9,400.1 90.8,400 	"/>
</g>
<g id="freepik--device-3--inject-59">
	<rect x="251.4" y="399.6" class="st4" width="165.9" height="13.9"/>
	<polygon class="st0" points="397.5,399.6 271.1,399.6 274.4,375.5 274.5,374.4 274.8,372.1 275,371 275.3,368.7 275.3,368.4 
		275.4,367.6 275.7,365.3 275.9,364.2 278.1,347.4 390.6,347.4 392.7,363.2 392.8,364 393.1,366.6 393.2,367.4 393.4,368.4 
		393.6,370 393.7,370.8 394,373.4 394.1,374.2 	"/>
	<polygon class="st4" points="393.4,368.4 275.9,364.2 278.1,347.4 390.6,347.4 	"/>
	<rect x="121.5" y="66.6" class="st3" width="425.7" height="289.5"/>
	<rect x="121.5" y="313.4" class="st0" width="425.7" height="42.7"/>
	<path class="st5" d="M341.3,331.9c0,3.9-3.2,7.1-7,7.1c-3.9,0-7.1-3.2-7.1-7c0-3.9,3.2-7.1,7-7.1c0,0,0,0,0,0
		C338.1,324.8,341.3,328,341.3,331.9z"/>
	<rect x="141.1" y="85.5" class="st6" width="386.4" height="207.9"/>
</g>
<g id="freepik--Screen--inject-59">
	<rect x="104.1" y="105.5" class="st7" width="386.6" height="207.9"/>
	<path class="st3" d="M491.2,313.8H103.6V105h387.6V313.8z M104.6,312.8h385.6V106H104.6L104.6,312.8z"/>
	<rect x="104.1" y="105.5" class="st8" width="386.6" height="8"/>
	<path class="st6" d="M110.2,109.5c0,1.1-0.9,2-2,2s-2-0.9-2-2s0.9-2,2-2S110.2,108.4,110.2,109.5z"/>
	<path class="st7" d="M118.3,109.5c0,1.1-0.9,2-2,2s-2-0.9-2-2s0.9-2,2-2S118.3,108.4,118.3,109.5z"/>
	<path class="st2" d="M126.4,109.5c0,1.1-0.9,2-2,2s-2-0.9-2-2s0.9-2,2-2S126.4,108.4,126.4,109.5z"/>
	<rect x="120.8" y="130.3" class="st2" width="142.2" height="89.4"/>
	<rect x="120.8" y="130.3" class="st9" width="142.2" height="89.4"/>
	<polygon class="st2" points="183.9,200.4 263,200.4 223.5,152.3 	"/>
	<polygon class="st10" points="183.9,200.4 263,200.4 223.5,152.3 	"/>
	<polygon class="st2" points="153,200.5 218.2,200.5 185.6,169.1 	"/>
	<rect x="120.8" y="200.4" class="st2" width="142.2" height="19.3"/>
	<circle class="st2" cx="147.5" cy="155.7" r="10.1"/>
	<rect x="283.4" y="231.8" class="st2" width="79" height="64.2"/>
	<rect x="283.4" y="231.8" class="st9" width="79" height="64.2"/>
	<polygon class="st2" points="305.7,282.2 362.5,282.2 334.1,247.6 	"/>
	<polygon class="st10" points="305.7,282.2 362.5,282.2 334.1,247.6 	"/>
	<polygon class="st2" points="283.5,282.2 330.3,282.2 306.9,259.7 	"/>
	<rect x="283.5" y="282.2" class="st2" width="79" height="13.8"/>
	<circle class="st2" cx="300.1" cy="248.8" r="7.6"/>
	<rect x="283.2" y="152.9" class="st1" width="160.5" height="5.8"/>
	<rect x="283.2" y="164.8" class="st4" width="188.2" height="5.8"/>
	<rect x="283.2" y="176.8" class="st4" width="188.2" height="5.8"/>
	<rect x="283.2" y="188.7" class="st4" width="188.2" height="5.8"/>
	<rect x="283.2" y="200.7" class="st4" width="188.2" height="5.8"/>
	<rect x="283.2" y="212.6" class="st4" width="103" height="5.8"/>
	<rect x="369.8" y="231.6" class="st1" width="89.4" height="5.7"/>
	<rect x="369.8" y="243.4" class="st4" width="101.7" height="5.7"/>
	<rect x="369.8" y="255.2" class="st4" width="101.7" height="5.7"/>
	<rect x="369.8" y="267" class="st4" width="101.7" height="5.7"/>
	<rect x="369.8" y="278.7" class="st4" width="101.7" height="5.7"/>
	<rect x="369.8" y="290.5" class="st4" width="79.6" height="5.7"/>
	<rect x="283.2" y="130" class="st2" width="188.2" height="17"/>
	<rect x="120.8" y="231.6" class="st2" width="142.2" height="17"/>
	<rect x="120.8" y="254.8" class="st4" width="142.2" height="5.7"/>
	<rect x="120.8" y="266.7" class="st4" width="142.2" height="5.7"/>
	<rect x="120.8" y="278.6" class="st4" width="142.2" height="5.7"/>
	<rect x="120.8" y="290.5" class="st4" width="97.4" height="5.7"/>
	<rect x="482" y="113.5" class="st4" width="8.8" height="199.9"/>
	<path class="st1" d="M486.3,218.1L486.3,218.1c-1.3,0-2.3-1-2.3-2.3c0,0,0,0,0,0v-98.1c0-1.3,1-2.3,2.3-2.3l0,0l0,0
		c1.3,0,2.3,1,2.3,2.3c0,0,0,0,0,0v98.1C488.6,217,487.6,218.1,486.3,218.1L486.3,218.1z"/>
</g>
<g id="freepik--character-2--inject-59">
	<path class="st11" d="M506.8,421.3c1.8,0.6,53-0.1,55-1.4c0.8-0.5,1.1-7.9,1.2-17v-0.3c0-1.9,0.1-3.8,0.1-5.7c0-0.3,0-0.5,0-0.8
		c0.1-13-0.1-26.6-0.1-26.6l-34.3,0.4l1,26.3v1l0.2,5.5v0.6c0,0-19.5,9-21.5,10.6S505,420.7,506.8,421.3z"/>
	<path class="st2" d="M522.2,406.8c0.1,0,0.2-0.1,0.2-0.1L522.2,406.8z"/>
	<path class="st2" d="M506.8,421.3c1.8,0.6,53-0.1,55-1.4c0.7-0.4,1-6.4,1.2-14c-9.4,2-45.8,9.3-46.8,6.2c-0.4-1.2,2.7-3.3,4.7-4.5
		c-5.4,2.6-11.3,5.5-12.4,6.4C506.6,415.6,505,420.7,506.8,421.3z"/>
	<path class="st10" d="M539,421.2c11.5-0.3,21.9-0.7,22.8-1.3c0.7-0.4,1-6.4,1.2-14c-1.3,0.3-3.2,0.7-5.5,1.1L539,421.2z"/>
	<path class="st5" d="M573.5,221.9c0,0-7.7,86.6-9,93.2c-0.3,1.5-0.5,9.7-0.6,20.2c-0.3,23-0.1,64.4-0.1,64.4h-36.1
		c0,0,1.1-71.8,2.7-85s11.8-92.9,11.8-92.9L573.5,221.9z"/>
	<path class="st3" d="M529.4,393.4c5.6-0.1,4-0.2,9.7-0.2c2.8,0,20.9-0.2,23.5,0.2c0,0,0,0,0,0.1c0,0,0,0,0,0
		c-2.6,0.4-20.7,0.3-23.5,0.2c-5.6,0-4-0.1-9.7-0.2C529.3,393.6,529.3,393.5,529.4,393.4C529.3,393.4,529.3,393.4,529.4,393.4z"/>
	<path class="st3" d="M557,352.4l0.1-15.7c0-5.1,0-10.2,0.3-15.2c0.5-10.3,2.6-20.4,4-30.5s2.7-20.4,3.8-30.5
		c1.3-11.4,2.4-22.9,3.5-34.4c0-0.1,0.1-0.1,0.1,0c-1.7,20.5-3.6,40.9-6.4,61.2c-0.7,5.1-1.5,10.1-2.3,15.1
		c-0.8,5.1-1.7,10.2-2.1,15.4s-0.5,10.1-0.5,15.2c-0.1,5.2-0.1,10.5-0.2,15.7c-0.1,11.6-0.2,29.5-0.3,41.2c0,0.1-0.1,0.2-0.2,0.2
		c-0.1,0-0.2-0.1-0.2-0.2C556.8,379.4,556.9,362.8,557,352.4z"/>
	<path class="st3" d="M581.1,221.9c0,0-15.3,86.6-16.6,93.2c-0.3,1.5-0.5,9.7-0.6,20.2l0,0l-17.2-113.4H581.1z"/>
	<path class="st11" d="M592.3,424.2c1.9-0.3,47.3-24,48.5-26c0.5-0.8-2.6-7.6-6.6-15.7l-0.1-0.3c-0.8-1.7-17-29-17-29l-27.9,16.4
		l15.5,27.6l0.3,0.5c0,0-13.3,16.9-14.4,19.2S590.4,424.5,592.3,424.2z"/>
	<path class="st2" d="M592.3,424.2c1.9-0.3,47.3-24,48.5-26c0.4-0.6-1.8-5.7-4.9-12.2c-6.5,4.9-38,28.5-40.2,26.1
		c-0.5-0.5-0.1-1.7,0.5-3.1c-2,2.5-3.9,5.2-5.6,7.9C589.4,419.2,590.4,424.5,592.3,424.2z"/>
	<path class="st5" d="M600.5,396.2l33.1-20.5c0,0-38.3-54.8-38.5-59.7c-0.3-7.2-3.8-37.1-6.7-61.3c0,0,5.5-13.1-4.8-32.9h-41.5
		c0,0,2.8,18.8,7.5,30.8c3.2,1.1,6.3,2.5,9.2,4.2c0,0,4.1,53.9,4.3,60.6C563.5,330.8,600.5,396.2,600.5,396.2z"/>
	<path class="st3" d="M598.5,388.5c4.8-3,3.4-2.2,8.2-5.1c2.3-1.4,17.8-10.9,20.3-11.8c0,0,0.1,0,0.1,0c0,0,0,0,0,0.1
		c-2,1.7-17.6,10.9-20,12.3c-4.9,2.9-3.5,2-8.4,4.8c0,0-0.1,0-0.1,0S598.5,388.6,598.5,388.5z"/>
	<path class="st3" d="M548.2,251.8c3.7,1.3,7.3,3,10.8,5c0.1,0,0.1,0.1,0.1,0.2c0,0.1-0.1,0.1-0.2,0.1c-3.6-1.6-7.3-3.1-10.9-4.8
		c-0.1-0.1-0.1-0.3,0-0.3C548,251.8,548.1,251.8,548.2,251.8z"/>
	<path class="st3" d="M553.2,245.8c-0.4-2.2-0.7-4.3-0.8-6.5c-0.4-4.1-0.3-8.2,0.1-12.2c0-0.1,0.1-0.1,0.1-0.1c0,0,0.1,0,0.1,0.1
		c-0.1,5.7,0.2,11.3,1,16.9c0.4,2.7,1.8,6.8-1,7.2s-4.7-6.4-5.1-8.2c-0.9-5.3-1.1-10.7-0.6-16c0-0.1,0.2-0.1,0.2,0
		c0,4.3,0.2,8.1,0.6,12.2c0.2,1.9,1.7,12.2,4.9,11.5c0.5-0.1,0.8-0.7,0.9-1.5C553.7,248,553.6,246.9,553.2,245.8"/>
	<path class="st3" d="M552.7,250.8c0.3,0.7,0.5,1.4,0.7,2.1c0.2,0.6,0.3,1.2,0.3,1.8c0,0.1-0.2,0.1-0.2,0.1
		c-0.3-0.5-0.6-1.1-0.8-1.7c-0.2-0.7-0.5-1.3-0.7-2c-0.1-0.2,0-0.4,0.2-0.5C552.4,250.5,552.6,250.6,552.7,250.8z"/>
	<path class="st3" d="M578.8,224.5c1.3,2.1,2.4,4.4,3.3,6.8c0.9,2.4,1.5,4.8,2,7.3c0.3,1.2,0.4,2.5,0.5,3.8c0.1,1.3,0.2,2.5,0.1,3.8
		c0,2.5-0.3,5-0.8,7.5v-0.1c1.1,10.4,2.2,20.9,3.2,31.3c1,10.4,2.1,20.9,3.1,31.3l0.1,1l0,0.5c0,0.2,0,0.4,0.1,0.4
		c0.2,0.5,0.6,1.1,0.9,1.6c0.7,1.1,1.3,2.2,2,3.4l4.2,6.7l8.4,13.3l16.9,26.6c-5.8-8.7-11.7-17.4-17.4-26.2
		c-2.9-4.4-5.8-8.8-8.6-13.2l-4.2-6.7c-0.7-1.1-1.4-2.2-2-3.4c-0.4-0.6-0.7-1.2-1-1.8c-0.1-0.2-0.1-0.4-0.1-0.5v-0.5l-0.1-1
		c-1.1-10.5-2.1-20.9-3.1-31.4c-1-10.5-2-20.9-3-31.4v-0.1c0.5-2.4,0.8-4.9,0.9-7.4c0.1-1.2,0-2.5-0.1-3.7s-0.2-2.5-0.4-3.7
		c-0.4-2.5-1-4.9-1.8-7.3C581.1,229,580,226.7,578.8,224.5z"/>
	<path class="st3" d="M550.1,139.2c-1,0.2-5.3,0.2-7.7,4.4c-2.3,4-2,15.2-2.3,17.7s-3.4,3.2-3.9,6.1c-0.4,2.5,1.5,3.2,1.9,4.9
		c0.3,1.4-0.9,3.6,0.6,5.5c1.3,1.7,3.3,1.1,4.6,1.6s2.3,3.2,4.7,3.7s4.1-1.8,5.3-1.9s3,3.4,6.9,2.6s4.6-4.2,6.1-5s5.7-0.2,7.3-2.4
		s1.6-4.9,2.3-6s2.5-1.1,3.2-3.5s-1.5-3.6-2-5.6c-0.4-1.4,0.7-2.8-0.4-4.8c-1.5-2.8-5-1.8-6.7-4.6c-1.3-2.2-4.6-12.1-11-13.9
		C554.6,136.8,550.1,139.2,550.1,139.2z"/>
	<path class="st3" d="M540.2,160.7c-0.2,0.5-0.5,1-0.9,1.4l-1.1,1.2c-0.8,0.8-1.5,1.6-2,2.6c-0.5,0.9-0.5,2.1,0,3
		c0.3,0.5,0.6,0.9,1,1.2c0.4,0.4,0.8,0.9,1.1,1.4c0.2,0.6,0.2,1.2,0,1.9c-0.1,0.6-0.3,1.1-0.4,1.6c-0.2,1-0.1,2.1,0.5,3
		c0.3,0.4,0.7,0.8,1.2,0.9c0.5,0.2,1,0.2,1.6,0.2c0.5,0,1.1-0.1,1.7-0.1c0.6-0.1,1.1,0,1.7,0.2c-0.5-0.1-1.1-0.1-1.6,0
		c-0.5,0.1-1.1,0.2-1.7,0.3c-0.6,0.1-1.2,0.1-1.7-0.1c-0.6-0.2-1.1-0.5-1.5-1c-0.7-1-0.9-2.2-0.6-3.4c0.1-0.6,0.2-1.1,0.3-1.6
		c0.2-0.5,0.2-1,0-1.4c-0.4-0.9-1.5-1.5-2-2.6c-0.5-1.1-0.5-2.4,0.1-3.5c0.6-1,1.3-1.9,2.2-2.6l1.2-1.1
		C539.6,161.6,540,161.2,540.2,160.7z"/>
	<path class="st3" d="M565.4,143.1c1.2,1.6,2.2,3.3,3.2,5.1c0.5,0.9,1,1.7,1.6,2.5c0.3,0.4,0.6,0.8,0.9,1.1c0.1,0.1,0.2,0.1,0.3,0.2
		c0.1,0.1,0.2,0.1,0.3,0.1c0.2,0.1,0.5,0.2,0.7,0.2c1,0.3,1.9,0.6,2.9,1c1,0.4,1.8,1.1,2.4,1.9c0.3,0.5,0.4,1,0.5,1.5
		c0,0.5-0.1,1-0.3,1.5c-0.4,0.9-0.6,1.9-0.6,2.9c-0.1-1,0-2,0.3-3c0.2-0.5,0.2-0.9,0.2-1.4c-0.1-0.5-0.2-0.9-0.5-1.3
		c-0.6-0.8-1.4-1.3-2.2-1.7c-0.9-0.4-1.9-0.6-2.8-0.9c-0.2-0.1-0.5-0.2-0.7-0.3c-0.3-0.1-0.5-0.3-0.7-0.5c-0.4-0.4-0.7-0.8-1-1.2
		c-0.6-0.8-1.1-1.7-1.5-2.6l-1.3-2.7C566.3,144.9,565.9,144,565.4,143.1z"/>
	<path class="st3" d="M576.8,169.6c-0.3,0.7-0.4,1.4-0.4,2.1c-0.1,0.7-0.1,1.4-0.2,2.1c-0.1,0.7-0.3,1.4-0.5,2.1
		c-0.2,0.7-0.7,1.4-1.2,1.9c-1.3,0.9-2.8,1.2-4.3,1c-0.7,0-1.4-0.1-2.2-0.2c-0.7-0.1-1.4,0-2.1,0.2c0.6-0.4,1.4-0.6,2.1-0.6
		c0.7,0,1.5,0,2.2,0c1.4,0.1,2.7-0.2,3.9-1c0.5-0.5,0.9-1,1.1-1.7c0.3-0.6,0.5-1.3,0.6-2c0.2-0.7,0.3-1.4,0.4-2.1
		c0.1-0.4,0.2-0.7,0.3-1.1C576.4,170.2,576.6,169.9,576.8,169.6z"/>
	<path class="st11" d="M553.6,179.8c-6.2,3.3-28.5,12.6-37.1,10.4c-6.2-1.6-13.7-8.6-22.4-19.1c-3-3.7,10.6-21.6,13.8-17.6
		c3,3.6,13.7,17.8,16.7,19.4c2.2,1.2,14.4-2.1,28.5-1.3C560.6,172,561.8,175.4,553.6,179.8z"/>
	<path class="st2" d="M517.7,193.6l11.6-21.3c7.8-0.9,15.7-1.5,23.7-1.5c11.3,0,13.8,3.3,1.3,9.9S526.2,193.7,517.7,193.6z"/>
	<path class="st2" d="M517.7,193.6l11.6-21.3c7.8-0.9,15.7-1.5,23.7-1.5c11.3,0,13.8,3.3,1.3,9.9S526.2,193.7,517.7,193.6z"/>
	<path class="st7" d="M561,173.4c0.4,0.6,0.3,1.4-0.2,1.8c-0.6,0.4-1.4,0.3-1.8-0.2l0,0c-0.4-0.5-0.3-1.3,0.2-1.8
		C559.7,172.8,560.5,172.9,561,173.4C561,173.4,561,173.4,561,173.4z M544,185.4c-0.1,0.1-0.2,0.2-0.3,0.4l1.4-0.6
		C544.7,185.1,544.2,185.1,544,185.4L544,185.4z M536.9,176.5c-0.5,0.4-0.6,1.2-0.2,1.8c0.4,0.5,1.2,0.6,1.8,0.2
		c0.5-0.4,0.6-1.2,0.2-1.8C538.3,176.2,537.5,176,536.9,176.5C536.9,176.5,536.9,176.5,536.9,176.5L536.9,176.5z M547.7,175.2
		c-0.5,0.4-0.6,1.2-0.2,1.8c0.4,0.5,1.2,0.6,1.8,0.2c0.5-0.4,0.6-1.2,0.2-1.8c0,0,0,0,0,0C549,174.8,548.2,174.7,547.7,175.2
		C547.6,175.2,547.6,175.2,547.7,175.2L547.7,175.2z M521.7,188.7c-0.5,0.4-0.6,1.2-0.2,1.8c0.4,0.5,1.2,0.6,1.8,0.2
		c0.5-0.4,0.6-1.2,0.2-1.8c0,0,0,0,0,0C523,188.3,522.2,188.2,521.7,188.7C521.6,188.7,521.6,188.7,521.7,188.7L521.7,188.7z
		 M532.4,187.4c-0.5,0.4-0.6,1.2-0.2,1.8c0.4,0.5,1.2,0.6,1.8,0.2c0.5-0.4,0.6-1.2,0.2-1.8C533.8,187,533,186.9,532.4,187.4
		C532.4,187.4,532.4,187.4,532.4,187.4L532.4,187.4z M526.2,178.2l-1.1,2v0.1c0.4,0.6,1.2,0.6,1.8,0.2c0.6-0.4,0.6-1.2,0.2-1.8
		C526.8,178.4,526.5,178.2,526.2,178.2L526.2,178.2z"/>
	<path class="st3" d="M531.9,173.8c-1.5,3-3,6-4.7,8.9c-0.8,1.5-1.7,2.9-2.5,4.4c-0.9,1.5-1.9,2.9-2.8,4.3c0,0.1-0.2,0-0.1-0.1
		c1.7-2.9,3.3-5.9,5-8.8L531.9,173.8C531.9,173.7,532,173.8,531.9,173.8z"/>
	<path class="st10" d="M517.7,193.6c8.4,0.1,24.1-6.5,36.6-13c7.2-3.8,9.4-6.4,7.8-8l-11.7,1.8L517.7,193.6z"/>
	<path class="st11" d="M495.3,172.4c-2-0.9-8.8-5-9.6-6.9c-1-2.5-1.3-10.4-0.8-15.1s1.9-5.5,3.5-5.2s0.9,10.1,0.9,10.1
		s-2.4-13.5-2.7-16.9s-1.4-11.1,1.5-12c1.3-0.4,2.3,1.9,2.3,1.9s-0.6-3.3,1-3.6c1.9-0.4,2.6,2.2,2.6,2.2s-0.2-2,1.3-1.9
		c3.3,0.2,3.6,12.9,3.6,12.9s-3.6-10-0.9-10.1c3.8,0,6.1,19.6,7.5,21.9s3,4.9,3,4.9L495.3,172.4z"/>
	<path class="st3" d="M487.6,145.2c0.5,0,0.9,0.2,1.2,0.6c0.3,0.4,0.5,0.8,0.6,1.2c0.3,0.9,0.5,1.8,0.6,2.8c0.3,1.9,0.4,3.8,0.7,5.7
		c0.2-1.9,0.2-3.9,0-5.8c-0.1-1-0.4-1.9-0.8-2.9c-0.2-0.5-0.5-0.9-0.9-1.2C488.7,145.1,488.1,145,487.6,145.2z"/>
	<path class="st3" d="M490.4,128.3c0.2,1.4,0.4,2.7,0.7,4.1s0.5,2.7,0.8,4.1l0.8,4.1c0.3,1.4,0.5,2.7,0.8,4.1c0-1.4-0.1-2.8-0.3-4.2
		c-0.2-1.4-0.4-2.8-0.7-4.1s-0.6-2.7-0.9-4.1S490.9,129.6,490.4,128.3z"/>
	<path class="st3" d="M497.1,141.9c0.1-1.3,0-2.6-0.1-3.9c-0.1-1.3-0.3-2.5-0.6-3.8c-0.3-1.3-0.6-2.5-1-3.7
		c-0.4-1.2-0.8-2.4-1.4-3.6c0.3,1.3,0.6,2.5,0.9,3.7s0.6,2.5,0.8,3.7s0.5,2.5,0.7,3.7S496.9,140.6,497.1,141.9z"/>
	<path class="st3" d="M500.4,140.2c0.1-2.1-0.2-4.1-0.7-6.1c-0.4-2-1.1-4-2.1-5.8c0.5,2,1,4,1.5,6S500,138.2,500.4,140.2z"/>
	<path class="st2" d="M584.6,222.7l-34-0.8h-8.4l0.2-18.3c0-0.1,0-0.2,0-0.3v-0.6c-0.8-0.9-1.4-1.9-2-3c-1-1.8-1.5-3.8-1.5-5.8v-0.4
		c0-0.2,0.1-0.5,0.2-0.9c0-0.2,0.1-0.3,0.2-0.5l0.1-0.4c0-0.1,0.1-0.2,0.1-0.3c2.3-6.3,10.6-18.4,11.3-19.1
		c3.5-3.3,7.8-4.3,12.5,0.1c8,7.4,16,32.7,19.4,44.3c0.1,0.2,0.2,0.5,0.2,0.8C584.1,220.8,584.6,222.7,584.6,222.7z"/>
	<path class="st7" d="M543.8,202.2c-0.7-0.1-1.3,0.4-1.4,1.1l0,0c0,0.1,0,0.2,0,0.3c0.1,0.6,0.5,1.1,1.1,1.1
		c0.7,0.1,1.3-0.4,1.4-1.1C545,202.9,544.5,202.3,543.8,202.2z M555.2,203.3c-0.7-0.1-1.3,0.4-1.4,1.1c-0.1,0.7,0.4,1.3,1.1,1.4
		s1.3-0.4,1.4-1.1c0,0,0,0,0,0C556.4,204,555.9,203.4,555.2,203.3C555.2,203.3,555.2,203.3,555.2,203.3L555.2,203.3z M566.5,204.4
		c-0.7-0.1-1.4,0.3-1.5,1s0.3,1.4,1,1.5c0.1,0,0.1,0,0.2,0c0.7,0,1.3-0.6,1.3-1.3C567.5,205.1,567.1,204.5,566.5,204.4z
		 M577.8,205.6c-0.7-0.1-1.3,0.4-1.4,1.1c0,0,0,0,0,0c-0.1,0.7,0.4,1.3,1.1,1.4c0.7,0.1,1.3-0.4,1.4-1.1l0,0
		C579,206.2,578.5,205.6,577.8,205.6C577.8,205.6,577.8,205.6,577.8,205.6L577.8,205.6z M548.6,211.9c-0.7-0.1-1.3,0.4-1.4,1.1
		c-0.1,0.7,0.4,1.3,1.1,1.4c0.7,0.1,1.3-0.4,1.4-1.1C549.8,212.6,549.3,212,548.6,211.9C548.6,211.9,548.6,211.9,548.6,211.9
		L548.6,211.9z M559.9,213c-0.7-0.1-1.3,0.4-1.4,1.1c-0.1,0.7,0.4,1.3,1.1,1.4s1.3-0.4,1.4-1.1c0,0,0,0,0,0
		C561.1,213.7,560.6,213.1,559.9,213C559.9,213.1,559.9,213.1,559.9,213L559.9,213z M571.2,214.2c-0.7,0-1.3,0.5-1.3,1.2
		c0,0.6,0.4,1.2,1,1.3c0.7,0,1.3-0.5,1.3-1.2C572.3,214.8,571.8,214.3,571.2,214.2z M582.9,216.8c-0.1-0.5-0.3-1-0.5-1.5
		c-0.7,0-1.3,0.5-1.3,1.2c0,0.7,0.5,1.3,1.2,1.3l0,0c0.3,0,0.6-0.1,0.8-0.2C583.1,217.3,583,217.1,582.9,216.8L582.9,216.8z
		 M545.8,182.8c-0.7-0.1-1.3,0.4-1.4,1.1c-0.1,0.7,0.4,1.3,1.1,1.4s1.3-0.4,1.4-1.1c0,0,0,0,0,0C547,183.5,546.5,182.9,545.8,182.8
		C545.8,182.8,545.8,182.8,545.8,182.8L545.8,182.8z M557.1,183.9c-0.7-0.1-1.3,0.4-1.4,1.1s0.4,1.3,1.1,1.4
		c0.7,0.1,1.3-0.4,1.4-1.1c0,0,0,0,0,0C558.3,184.6,557.8,184,557.1,183.9C557.1,183.9,557.1,183.9,557.1,183.9L557.1,183.9z
		 M568.4,185c-0.7-0.1-1.3,0.4-1.4,1.1s0.4,1.3,1.1,1.4c0.7,0.1,1.3-0.4,1.4-1.1c0,0,0,0,0,0C569.6,185.7,569.1,185.1,568.4,185z
		 M539.6,191.5L539.6,191.5c0,0.1-0.1,0.2-0.1,0.3l-0.1,0.4c-0.1,0.2-0.1,0.4-0.2,0.5c-0.1,0.3-0.1,0.6-0.2,0.9v0.4
		c0.7,0,1.2-0.5,1.3-1.1C540.4,192.2,540.1,191.7,539.6,191.5L539.6,191.5z M550.5,192.5c-0.7-0.1-1.3,0.4-1.4,1.1
		c-0.1,0.7,0.4,1.3,1.1,1.4c0.7,0.1,1.3-0.4,1.4-1.1C551.7,193.2,551.2,192.6,550.5,192.5L550.5,192.5z M561.8,193.6h-0.2
		c-0.6,0-1.1,0.5-1.2,1.1c0,0.4,0.1,0.8,0.5,1.1c0.2,0.2,0.4,0.3,0.7,0.3c0.7,0,1.3-0.6,1.3-1.3
		C562.9,194.2,562.4,193.7,561.8,193.6L561.8,193.6z M573.2,194.7c-0.7-0.1-1.3,0.4-1.4,1.1c-0.1,0.7,0.4,1.3,1.1,1.4
		c0.7,0.1,1.3-0.4,1.4-1.1c0,0,0,0,0,0C574.3,195.4,573.8,194.8,573.2,194.7L573.2,194.7z M552.4,173.1c-0.7-0.1-1.3,0.4-1.4,1.1
		c-0.1,0.7,0.4,1.3,1.1,1.4c0.7,0.1,1.3-0.4,1.4-1.1C553.6,173.8,553.1,173.2,552.4,173.1z M563.7,174.2c-0.7-0.1-1.3,0.4-1.4,1.1
		c0,0.4,0.1,0.8,0.5,1.1c0.2,0.2,0.4,0.3,0.7,0.3c0.7,0.1,1.3-0.4,1.4-1.1C564.9,174.9,564.4,174.3,563.7,174.2L563.7,174.2z"/>
	<path class="st3" d="M549.7,200.8c2.2,0.4,4.3,1,6.4,1.7c1,0.4,2,0.8,3,1.2c0.5,0.2,1,0.4,1.5,0.6c0.5,0.2,1.1,0.4,1.6,0.5
		 M562.2,204.9c-0.5,0-1.1-0.1-1.6-0.2c-0.5-0.1-1-0.3-1.5-0.4c-1-0.4-2.1-0.8-3.1-1.2c-2.1-0.8-4.2-1.6-6.3-2.2
		c-0.1,0,0-0.2,0.1-0.2L562.2,204.9z"/>
	<path class="st3" d="M544.1,202.1c1.8,0,3.6,0.1,5.4,0.3c0.9,0.1,1.8,0.3,2.7,0.4l1.3,0.3c0.5,0.1,0.9,0.3,1.4,0.4c0,0,0,0.1,0,0.1
		c-0.4-0.1-0.9-0.1-1.3-0.1l-1.3-0.2l-2.7-0.3c-1.8-0.2-3.6-0.5-5.4-0.6C544,202.3,544,202.1,544.1,202.1z"/>
	<path class="st10" d="M555.9,221.9h-13.7l0.2-18.3c0-0.1,0-0.2,0-0.3v-0.6c-0.8-0.9-1.4-1.9-2-3c7-10,17.7-24.2,22.3-23.3
		c0.2,0,0.5,0.1,0.7,0.3C567,181.6,558.5,216.2,555.9,221.9z"/>
	<path class="st11" d="M559.4,171.6c-0.1,0.9-3.7,6.6-7.5,6.7c-1.2,0-1.8-6.8-1.8-6.8L550,171l-2.1-6.9l7.8-5.9l1.1-0.8
		c0,0,0.5,1.9,1,4.3c0,0.1,0,0.2,0.1,0.3s0.1,0.3,0.1,0.4c0.1,0.4,0.2,0.7,0.3,1.1s0.1,0.6,0.2,0.9s0.1,0.6,0.2,0.9
		C559,167.3,559.3,169.4,559.4,171.6z"/>
	<path class="st3" d="M557.8,161.7c-1.1,4.1-4,7.5-7.8,9.3l-2.1-6.9l7.8-5.9l1.1-0.8C556.8,157.4,557.3,159.3,557.8,161.7z"/>
	<path class="st11" d="M537.4,152.1c-2.4,12.4,4.7,15.3,7.4,15.8c2.4,0.5,10.8,1.8,14.5-10.3s-1.3-17.2-6.8-18.6
		S539.9,139.7,537.4,152.1z"/>
	<path class="st3" d="M539.6,150.3c0.3,0,0.6,0,0.9,0c0.3,0,0.6,0,0.9-0.2c0.2-0.1,0.2-0.4,0.1-0.5c-0.2-0.3-0.6-0.5-1-0.4
		c-0.4,0-0.8,0.1-1.1,0.4c-0.2,0.2-0.2,0.5,0,0.7C539.4,150.3,539.5,150.3,539.6,150.3z"/>
	<path class="st3" d="M548.2,151.8c-0.3-0.1-0.6-0.2-0.8-0.3c-0.3-0.1-0.6-0.2-0.8-0.5c-0.1-0.2-0.1-0.4,0.1-0.5
		c0.3-0.2,0.8-0.3,1.1-0.1c0.4,0.1,0.7,0.4,0.9,0.7c0.1,0.2,0,0.5-0.2,0.6C548.4,151.8,548.3,151.8,548.2,151.8z"/>
	<path class="st3" d="M545.7,154.5C545.7,154.5,545.7,154.6,545.7,154.5c-0.1,0.9-0.2,1.9,0.5,2.4l0,0
		C545.2,156.6,545.3,155.3,545.7,154.5z"/>
	<path class="st3" d="M546.6,153.8c1.4,0.2,1,2.9-0.3,2.8S545.4,153.6,546.6,153.8z"/>
	<path class="st3" d="M547.1,154c0.2,0.2,0.4,0.5,0.7,0.6s0.6-0.2,0.9-0.4l0,0c-0.1,0.5-0.4,1-0.9,1s-0.8-0.5-0.9-1.1
		C546.9,154.1,547,153.9,547.1,154z"/>
	<path class="st3" d="M541,153.6C541,153.6,540.9,153.6,541,153.6c-0.2,0.9-0.4,1.9-1.2,2.1l0,0C540.7,155.7,541,154.4,541,153.6z"
		/>
	<path class="st3" d="M540.3,152.6c-1.4-0.3-1.9,2.4-0.6,2.7S541.5,152.9,540.3,152.6z"/>
	<path class="st3" d="M539.7,152.7c-0.2,0.1-0.5,0.3-0.8,0.3s-0.5-0.4-0.6-0.7c0,0,0,0,0,0c-0.1,0.5,0,1.1,0.4,1.3s0.9-0.2,1.1-0.7
		C539.9,152.8,539.8,152.6,539.7,152.7z"/>
	<path class="st3" d="M544.7,161.5c-0.2,0.2-0.5,0.4-0.8,0.4c-0.3,0-0.6-0.2-0.9-0.3c0,0-0.1,0,0,0c0.2,0.4,0.6,0.6,1,0.6
		C544.4,162.2,544.7,161.9,544.7,161.5C544.7,161.5,544.7,161.5,544.7,161.5z"/>
	<path class="st3" d="M541.6,157.9c0,0-0.4,1.2-0.5,1.8c0,0.1,0.1,0.1,0.3,0.1l0,0c1,0.4,2.1,0.1,2.9-0.6c0.1-0.1,0-0.1-0.1-0.1
		c-0.9,0.4-1.8,0.5-2.7,0.3c0-0.2,0.7-2.1,0.7-2.1c-0.5,0-1,0-1.4,0.1c0.7-2.6,1.9-5.1,2.6-7.7c0-0.1-0.1-0.1-0.2-0.1
		c-1.3,2.6-2.4,5.3-3.1,8.2C540.1,158.1,541.4,157.9,541.6,157.9z"/>
	<path class="st3" d="M558.1,157.9c-2-0.2-1.7-4.5-1.7-4.5s-4.1-0.7-4.4-6.8c-0.2,1.8,0.1,3.6,0.9,5.2c0,0-7-2-9-8.6
		c0.3,1.6,0.8,3.1,1.6,4.6c-1.7-0.9-3.1-2.3-3.9-4.1c0,0-1.9,3.2-3,4c0,0,2.5-12.5,13.9-9.1c0,0,7.2,1.8,8.8,8
		S558.1,157.9,558.1,157.9z"/>
	<path class="st11" d="M558.5,162.2c-0.2,0.1-0.4,0.1-0.6,0.1c-0.5,0-0.9-0.1-1.3-0.4c-0.2-0.1-0.3-0.3-0.4-0.4
		c-0.2-0.2-0.3-0.5-0.4-0.8l1-3.3c0,0,3.2-3.6,4.8-2.5S560.6,161.6,558.5,162.2z"/>
	<path class="st3" d="M560.8,156.6c-1.4,0.5-2.6,1.6-3.1,3.1c0.4-0.5,1.1-0.6,1.7-0.3c0,0,0.1,0.1,0.1,0.1c0,0,0,0.1,0,0.1
		c-0.5-0.2-1.1-0.1-1.5,0.3c-0.3,0.3-0.6,0.7-0.8,1.1c-0.1,0.1-0.3,0-0.2-0.1l0,0C557.1,159,558.8,156.5,560.8,156.6L560.8,156.6z"
		/>
	<path class="st7" d="M558.3,161.6c-0.1,0.3-0.4,0.5-0.7,0.4c0,0,0,0,0,0c-0.3-0.1-0.5-0.4-0.4-0.7c0.1-0.3,0.4-0.5,0.7-0.4
		C558.3,161,558.4,161.3,558.3,161.6C558.3,161.6,558.3,161.6,558.3,161.6z"/>
	<path class="st7" d="M559.6,160.9c-0.1,0.2-0.3,0.3-0.5,0.3c-0.2-0.1-0.3-0.3-0.3-0.5c0.1-0.2,0.3-0.3,0.5-0.3c0,0,0,0,0,0
		C559.6,160.5,559.7,160.7,559.6,160.9z"/>
	<path class="st11" d="M562.4,183c-5.9,17.1-9.8,31.9-16.7,35.5c-10.3,5.3-36,6.2-42.2,3.9c-2.7-1,1.5-22.8,4.6-22.6
		c3.7,0.3,28.6,1.2,30.1,0.1c2.7-1.8,6.1-7.6,17.4-20.7C564.4,169,564.7,176.4,562.4,183z"/>
	<path class="st11" d="M515.9,203.1c0,0-3.1-4.2-6-9.1c-1.6-2.8-4.8-7.2-6.8-8.7c-3.1-2.2-17.7-9.5-19.5-6
		c-1.7,3.1,11.6,7.8,11.6,7.8s-13-5.9-14.3-1.7s14.4,7.4,14.4,7.4s-13.5-5.8-14.2-1.2c-0.5,3.4,13.5,7.2,13.5,7.2
		s-11.6-4.9-12.3-1.4c-0.7,3.9,12,8.1,12,8.1c-0.2,9.1,4.5,16.2,10.6,17.3C506,223,515.9,203.1,515.9,203.1z"/>
	<path class="st3" d="M499.8,188.8c-1.5-0.8-3-1.5-4.6-2.1s-3.2-1.2-4.8-1.6c-2.1-0.6-4.3-1.1-6.4-1.2c3.8,0.7,7.4,1.8,11,3.3
		C496.5,187.8,498.1,188.3,499.8,188.8C499.8,188.9,499.8,188.9,499.8,188.8z"/>
	<path class="st3" d="M497.7,194.5c-2-0.9-3.9-1.8-5.9-2.6s-3.9-1.4-6-2c-0.2-0.1-0.1,0,0,0.1c2,0.7,3.8,1.6,5.8,2.3
		S495.6,193.7,497.7,194.5C497.7,194.6,497.7,194.5,497.7,194.5z"/>
	<path class="st3" d="M496.7,199.7c-3-1.4-6.1-2.5-9.3-3.3c-0.2,0-0.1,0.1,0,0.1c3.1,1,5.5,1.8,9.2,3.2
		C496.7,199.8,496.8,199.8,496.7,199.7z"/>
	<path class="st2" d="M547.5,219.9l-7.7-23.1c4.7-6.4,9.7-12.5,15-18.3c7.7-8.2,11.8-7.9,8.1,5.7S553.3,213.8,547.5,219.9z"/>
	<path class="st7" d="M562.3,179.5c0.3,0.6,0,1.4-0.7,1.7c-0.6,0.3-1.4,0-1.7-0.7c-0.3-0.6,0-1.4,0.6-1.7
		C561.3,178.6,562,178.8,562.3,179.5z M551.9,207.5c-0.6,0.3-0.9,1-0.7,1.7c0.3,0.6,1,0.9,1.7,0.7c0.6-0.3,0.9-1,0.7-1.7
		c0,0,0,0,0,0C553.3,207.5,552.5,207.2,551.9,207.5L551.9,207.5z M547.3,197.1c-0.6,0.3-0.9,1-0.7,1.7c0.3,0.6,1,0.9,1.7,0.7
		c0.6-0.3,0.9-1,0.7-1.7c0,0,0,0,0,0C548.7,197.1,548,196.8,547.3,197.1L547.3,197.1z M558,198.6c-0.6,0.3-0.9,1-0.7,1.6
		c0,0,0,0,0,0c0.1,0.1,0.2,0.3,0.3,0.4c0.3-0.7,0.5-1.4,0.8-2.1C558.3,198.5,558.1,198.5,558,198.6z M553.4,188.2
		c-0.6,0.3-0.9,1-0.6,1.7s1,0.9,1.7,0.6c0.6-0.3,0.9-1,0.6-1.7C554.8,188.2,554.1,187.9,553.4,188.2L553.4,188.2z"/>
	<path class="st3" d="M549.6,183.2c-0.3,0.7-0.6,1.3-1,1.9c-0.1,0.2-0.2,0.4-0.4,0.6c0.9-1,1.7-2,2.6-3c0,0,0.1,0,0.1,0
		c0,0,0,0.1,0,0.1c-1.9,2.3-10.7,13.3-11.1,13.9c0,0,0.4,1.3,0.4,1.3s-0.1,0.1-0.1,0s-0.7-1.6-0.7-1.6c0.3-0.6,7.2-8.9,8-9.8
		c0-0.1,0-0.1,0.1-0.2l0.3-0.5l0.5-0.9C548.7,184.4,549.1,183.8,549.6,183.2C549.6,183.2,549.7,183.2,549.6,183.2z"/>
	<path class="st3" d="M542,195.6c0.4,0.8,0.8,1.7,1.1,2.5c0.4,0.8,0.7,1.7,1.1,2.5c0.7,1.6,1.3,3.3,1.9,4.9
		c1.3,3.3,2.3,6.7,3.3,10.1c0,0.1-0.1,0.1-0.1,0c-1.3-3.4-2.5-6.8-3.7-10.1l-1.8-5c-0.3-0.8-0.6-1.7-0.9-2.5S542.1,196.4,542,195.6
		C541.9,195.5,542,195.5,542,195.6z"/>
</g>
<g id="freepik--character-1--inject-59">
	<path class="st12" d="M113.2,423.5c-1.8,0.6-53.4-0.1-55.4-1.4c-0.8-0.5-1.1-8-1.2-17.1c0-0.1,0-0.2,0-0.3c0-1.9-0.1-3.8-0.1-5.8
		c0-0.3,0-0.5,0-0.8l2.5-26.8l34.5,0.3l-3.4,26.5v1l-0.2,5.5v0.6c0,0,19.6,9.1,21.6,10.7S115.1,422.9,113.2,423.5z"/>
	<path class="st0" d="M113.2,423.5c-1.8,0.6-53.4-0.1-55.4-1.4c-0.8-0.5-1.1-8-1.2-17.1c0-0.1,0-0.2,0-0.3c0-1.9-0.1-3.8-0.1-5.8
		c0-0.3,0-0.5,0-0.8l33.6,0.1v1l-0.2,5.5v0.6c0,0,19.6,9.1,21.6,10.7S115.1,422.9,113.2,423.5z"/>
	<path class="st2" d="M113.2,423.5c-0.9,0.3-15,0.3-28.7,0c-2.8,0-5.5-0.1-8.1-0.2c-9.8-0.3-17.8-0.7-18.6-1.2s-1.1-7.8-1.2-16.7
		c0-0.1,0-0.2,0-0.4c0-0.1,0-0.2,0-0.3l0,0h33.3v0.6c0,0,19.6,9.1,21.6,10.7S115.1,422.9,113.2,423.5z"/>
	<path class="st3" d="M112.7,421.5c-8.7-0.3-43.8-0.8-52.4-0.5c-0.1,0-0.1,0,0,0c8.6,0.5,43.7,0.7,52.4,0.6
		C112.9,421.6,112.9,421.5,112.7,421.5z"/>
	<path class="st3" d="M93.6,404.9c-3.4-0.7-7.6-0.2-10.2,2.2c-0.1,0.1,0,0.2,0.1,0.2c3.3-1,6.7-1.7,10.1-2c0.1,0,0.2-0.2,0.1-0.3
		C93.7,405,93.7,405,93.6,404.9z"/>
	<path class="st3" d="M96.1,406.5c-3.4-0.7-7.6-0.2-10.3,2.2c-0.1,0.1,0,0.2,0.1,0.2c3.3-1,6.7-1.7,10.1-2c0.1,0,0.2-0.2,0.1-0.3
		C96.2,406.5,96.1,406.5,96.1,406.5z"/>
	<path class="st3" d="M98.5,408c-3.4-0.7-7.6-0.2-10.3,2.2c-0.1,0.1,0,0.2,0.1,0.2c3.3-1,6.7-1.7,10.1-2c0.1,0,0.2-0.2,0.1-0.3
		C98.6,408.1,98.6,408,98.5,408z"/>
	<path class="st10" d="M84.6,423.5c-2.8,0-5.5-0.1-8.1-0.2c-9.8-0.3-17.8-0.7-18.6-1.2s-1.1-7.8-1.2-16.7c0-0.1,0-0.2,0-0.4
		c0-0.1,0-0.2,0-0.3l0,0C61.2,407.9,77.3,418.6,84.6,423.5z"/>
	<path class="st5" d="M91.9,404.9H54.8c0,0,7.5-86.8,7.2-88.3c-0.4-1.9-2.6-10.7-5.5-22.2c-0.9-3.6-1.9-7.4-2.9-11.4
		c-2.8-10.8-5.8-22.6-8.5-32.9c-4-15.4-7.1-27.3-7.1-27.3h31.5c0,0,3.7,11.6,8.3,26.8c7.5,24.6,17.6,58.5,18.6,66.7
		C97.9,329.5,91.9,404.9,91.9,404.9z"/>
	<path class="st3" d="M90.3,398.6c-5.7-0.1-4.1-0.2-9.7-0.2c-2.8,0-21-0.2-23.6,0.2c0,0-0.1,0-0.1,0.1c0,0,0,0.1,0.1,0.1
		c2.6,0.4,20.8,0.3,23.6,0.2c5.7-0.1,4-0.1,9.7-0.2C90.3,398.7,90.3,398.7,90.3,398.6C90.3,398.6,90.3,398.6,90.3,398.6z"/>
	<path class="st3" d="M68.9,311.3c-1.2-5.4-3-10.6-4.6-15.9c-3.2-10.7-6.5-21.4-9.7-32.1c-1.6-5.3-3.3-10.7-4.9-16.1
		c-0.8-2.7-1.7-5.4-2.5-8.1c-0.8-2.6-1.8-5.2-2.5-7.9c-0.3-1.1-0.5-0.5-0.1,0.9c0.8,2.8,1.6,5.6,2.4,8.3c1.6,5.5,3.2,11,4.8,16.4
		c3.2,10.9,6.5,21.8,9.8,32.6l4.9,16.4c0.8,2.6,1.5,5.2,2,7.9c0.4,2.8,0.6,5.6,0.3,8.5c-0.3,5.7-1,11.4-1.5,17s-1,11.4-1.6,17.1
		c-1,11.3-2.1,22.6-3.1,33.9c-0.1,1.4-0.3,2.9-0.4,4.3c0,0.5,0.7,0.5,0.7,0c1.2-11.2,2.2-22.4,3.2-33.6l3.1-33.5
		c0.3-2.8,0.6-5.6,0.6-8.4C69.8,316.4,69.5,313.8,68.9,311.3z"/>
	<path class="st3" d="M65.8,222.7c-2.2,16.9-6.3,48.6-9.4,71.7c-7.1-27.9-18.5-71.6-18.5-71.6L65.8,222.7z"/>
	<path class="st12" d="M73.2,424c-1.8,0.6-53.4,0.1-55.4-1.1c-0.8-0.5-1.1-8-1.3-17.1c0-0.1,0-0.2,0-0.3c0-1.9-0.1-3.8-0.1-5.8
		c0-0.3,0-0.5,0-0.8c-0.1-13.1,0.8-26.8,0.8-26.8l33.7,0.2l-1,26.5v1l-0.2,5.5v0.6c0,0,19.7,9,21.7,10.6S75,423.4,73.2,424z"/>
	<path class="st0" d="M73.2,424c-1.8,0.6-53.4,0.1-55.4-1.1c-0.8-0.5-1.1-8-1.3-17.1c0-0.1,0-0.2,0-0.3c0-1.9-0.1-3.8-0.1-5.8
		c0-0.3,0-0.5,0-0.8h33.6v1l-0.2,5.5v0.6c0,0,19.7,9,21.7,10.6S75,423.4,73.2,424z"/>
	<path class="st2" d="M73.2,424c-1.8,0.6-53.4,0.1-55.4-1.1c-0.8-0.5-1.1-8-1.3-17.1c0-0.1,0-0.2,0-0.3l33.3-0.1v0.6
		c0,0,19.7,9,21.7,10.6S75,423.4,73.2,424z"/>
	<path class="st3" d="M72.6,422c-8.7-0.3-43.8-0.6-52.4-0.3c-0.1,0-0.1,0,0,0c8.6,0.5,43.7,0.5,52.4,0.4
		C72.8,422.1,72.8,422,72.6,422z"/>
	<path class="st3" d="M53.5,405.5c-3.4-0.7-7.6-0.2-10.2,2.2c-0.1,0.1,0,0.2,0.1,0.2c3.3-1,6.7-1.7,10.1-2c0.1,0,0.2-0.1,0.2-0.3
		C53.7,405.6,53.6,405.5,53.5,405.5z"/>
	<path class="st3" d="M56,407c-3.4-0.7-7.6-0.2-10.2,2.2c-0.1,0.1,0,0.2,0.1,0.2c3.3-1,6.7-1.7,10.1-2c0.1,0,0.2-0.1,0.2-0.2
		C56.2,407.1,56.1,407,56,407z"/>
	<path class="st3" d="M58.4,408.5c-3.4-0.7-7.6-0.2-10.2,2.2c-0.1,0.1,0,0.2,0.2,0.2c3.3-1,6.7-1.7,10.1-2c0.1,0,0.2-0.1,0.2-0.2
		C58.7,408.6,58.6,408.5,58.4,408.5z"/>
	<path class="st5" d="M68.4,222.7c0,0-0.7,15.1-4.2,27c-0.3,1-0.6,2-0.9,2.9c-3.2,1.3-6.2,2.8-9.1,4.7c0,0-0.4,12.1-0.7,25.6
		c-0.4,15.1-0.8,32-0.7,35.6c0.3,13.4-1.7,87-1.7,87L14,405.6c0,0,6.7-82.2,6.7-87.1c-0.1-7.9,1.8-42.7,3.2-68.1
		c0.9-15.6,1.6-27.7,1.6-27.7L68.4,222.7z"/>
	<path class="st3" d="M49.8,398.9c-5.7-0.1-4-0.1-9.7-0.2c-2.8,0-21-0.1-23.6,0.4c0,0-0.1,0-0.1,0.1c0,0,0,0.1,0.1,0.1
		c2.6,0.4,20.8,0.2,23.6,0.1c5.7-0.1,4-0.1,9.7-0.3c0.1,0,0.2,0,0.2-0.1C50,398.8,49.9,398.8,49.8,398.9z"/>
	<path class="st3" d="M28.6,228.1c-0.7,20.7-1.4,41.5-2.3,62.2s-2.2,41.6-3.9,62.3c-1,11.6-1.9,27.9-3.1,39.5c0,0.1,0.1,0.1,0.1,0
		c2.7-20.6,4.2-46,5.5-66.7s2.2-41.4,2.9-62.1c0.4-11.7,0.7-23.4,1-35.2C28.8,228,28.6,228,28.6,228.1z"/>
	<path class="st3" d="M64.8,251.7c-3.7,1.5-7.2,3.4-10.6,5.6c-0.1,0-0.1,0.1,0,0.2c0,0,0.1,0.1,0.1,0c3.6-1.7,7.2-3.4,10.7-5.4
		c0.1-0.1,0.2-0.2,0.1-0.3C65.1,251.7,65,251.7,64.8,251.7L64.8,251.7z"/>
	<path class="st3" d="M65.1,239c-0.2,1.3-0.6,2.6-0.8,4s-0.5,2.5-0.8,3.7c-0.3,1.2-0.9,2.3-1.7,3.1c-0.5,0.4-1,0.8-1.5,1.3
		c-0.3,0.2-0.6,0.4-0.9,0.7c0-0.2,0.1-0.4,0.1-0.5c0.1-0.5,0.2-1,0.2-1.5c0.2-1.1,0.4-2.2,0.5-3.3c0.3-2.2,0.6-4.4,1.1-6.6
		c0-0.1-0.1-0.1-0.1,0c-0.6,2.1-1.2,4.3-1.6,6.4c-0.2,1.1-1.1,6.3-1.1,6.7s-0.1,0.8-0.1,1.1c-0.1,0.4-0.1,0.8,0,1.2
		c0,0,0.1,0.1,0.1,0c0,0,0,0,0,0l0,0c0.2-0.4,0.3-0.7,0.3-1.1c0.1-0.4,0.2-0.8,0.2-1.1l0.1-0.4c0.5-0.3,1-0.7,1.5-1.1s1-0.8,1.6-1.2
		c0.9-0.8,1.6-1.8,1.9-2.9c0.3-1.2,0.5-2.5,0.6-3.8c0.2-1.5,0.3-3,0.5-4.5C65.2,238.9,65.1,238.9,65.1,239z"/>
	<path class="st12" d="M54.7,175c3.2,5.1,22.2,28.9,30.8,25c8.2-3.7,16.4-12.2,20.1-16c2.7-2.9-10.2-20.2-11.9-18
		c-4.7,6-11.1,13.9-12.4,13.5c-7-2.5-13.7-5.7-20-9.8C54.4,165.4,49.3,166.5,54.7,175z"/>
	<path class="st5" d="M66.2,189.6l16-10.8c0,0-18.7-10.1-25.1-11.5c-7.1-1.6-6.4,2.4-2.7,8.3S66.2,189.6,66.2,189.6z"/>
	<path class="st3" d="M78,177.4c-0.6,0.3-5.7,3.6-6.7,4.3s-5.5,3.7-6.6,4.6c0,0,0,0,0,0.1c0,0,0,0,0,0c1.2-0.6,5.7-3.6,6.8-4.4
		S77.5,178,78,177.4C78.1,177.5,78.1,177.4,78,177.4z"/>
	<path class="st3" d="M72.4,185.4l-6.2,4.2c0,0-8.1-8.1-11.8-14c-2.7-4.3-3.8-7.6-1.4-8.4L72.4,185.4z"/>
	<path class="st12" d="M104.3,184.7c1.9-1,8.6-5.4,9.2-7.4c0.9-2.6,0.8-10.5,0.1-15.1s-2.1-5.4-3.7-5.1s-0.4,10.1-0.4,10.1
		s1.8-13.6,1.9-16.9s0.9-11.2-2-11.9c-1.3-0.3-2.2,1.9-2.2,1.9s0.4-3.3-1.2-3.6c-1.9-0.3-2.5,2.4-2.5,2.4s0.1-2-1.4-1.9
		c-3.3,0.4-3,13-3,13s3.2-10.2,0.5-10.1c-3.8,0.1-3.9,21.7-5.2,23.9s-2.8,4.9-2.8,4.9L104.3,184.7z"/>
	<path class="st3" d="M110.7,157.1c-0.5,0-0.9,0.2-1.2,0.6c-0.2,0.4-0.4,0.8-0.6,1.2c-0.2,0.9-0.4,1.8-0.5,2.8
		c-0.2,1.9-0.2,3.8-0.4,5.8c-0.3-1.9-0.4-3.9-0.2-5.8c0.1-1,0.3-2,0.6-2.9c0.2-0.5,0.5-0.9,0.8-1.3
		C109.7,157.2,110.2,157,110.7,157.1z"/>
	<path class="st3" d="M107.1,140.4c-0.1,1.4-0.3,2.8-0.5,4.1s-0.4,2.7-0.6,4.1l-0.6,4.1c-0.2,1.4-0.4,2.7-0.6,4.1
		c-0.1-1.4,0-2.8,0.1-4.2c0.1-1.4,0.3-2.8,0.5-4.1s0.4-2.8,0.7-4.1S106.8,141.7,107.1,140.4z"/>
	<path class="st3" d="M101.1,154.2c-0.1-1.3-0.1-2.6-0.1-3.8c0.1-1.3,0.2-2.5,0.4-3.8c0.2-1.3,0.5-2.5,0.8-3.8
		c0.3-1.2,0.7-2.4,1.2-3.6c-0.2,1.3-0.5,2.5-0.7,3.7s-0.4,2.5-0.6,3.8s-0.4,2.5-0.5,3.8S101.2,153,101.1,154.2z"/>
	<path class="st3" d="M97.7,152.8c-0.1-2.1,0-4.1,0.4-6.2c0.3-2,1-4,1.8-5.9c-0.4,2-0.8,4-1.2,6S98,150.8,97.7,152.8z"/>
	<path class="st2" d="M22.3,230.9c0.1,0.1,51.5,0.5,52-0.1c0.7-0.7-10.8-56.5-16-63.4c-1.1-1.5-8.2-3.5-12.3-0.1
		c-8.7,7.1-16.3,31.6-18.1,38.9C25,218.4,21.9,230.4,22.3,230.9z"/>
	<path class="st10" d="M58.6,167.9H45.3l0.7-0.6c0.1-0.1,0.3-0.2,0.4-0.3h11.4c0.2,0.1,0.3,0.3,0.5,0.4
		C58.4,167.6,58.5,167.8,58.6,167.9z"/>
	<path class="st10" d="M59.8,170.4H43l0.7-0.9h15.7L59.8,170.4z"/>
	<path class="st10" d="M60.8,172.9H41.2l0.6-0.9h18.7L60.8,172.9z"/>
	<path class="st10" d="M61.7,175.4H39.7c0.2-0.3,0.3-0.6,0.5-0.9h21.1C61.5,174.8,61.6,175.1,61.7,175.4z"/>
	<path class="st10" d="M62.4,177.9H38.3c0.2-0.3,0.3-0.6,0.5-0.9h23.4C62.3,177.3,62.3,177.6,62.4,177.9z"/>
	<path class="st10" d="M63.2,180.4H37.1c0.1-0.3,0.3-0.6,0.4-0.9h25.4C63,179.8,63.1,180.1,63.2,180.4z"/>
	<path class="st10" d="M63.9,182.9H36c0.1-0.3,0.3-0.6,0.4-0.9h27.3C63.7,182.3,63.8,182.6,63.9,182.9z"/>
	<path class="st10" d="M64.6,185.4H34.9c0.1-0.3,0.2-0.6,0.4-0.9h29.1L64.6,185.4z"/>
	<path class="st10" d="M65.2,187.9H33.9c0.1-0.3,0.2-0.6,0.3-0.9H65C65.1,187.3,65.2,187.6,65.2,187.9z"/>
	<path class="st10" d="M65.9,190.4h-33c0.1-0.3,0.2-0.6,0.3-0.9h32.4C65.7,189.8,65.8,190.1,65.9,190.4z"/>
	<path class="st10" d="M66.5,192.9H32c0.1-0.3,0.2-0.6,0.3-0.9h34C66.3,192.3,66.4,192.6,66.5,192.9z"/>
	<path class="st10" d="M67.1,195.4h-36l0.3-0.9h35.5L67.1,195.4z"/>
	<path class="st10" d="M67.7,197.9H30.3c0.1-0.3,0.2-0.6,0.3-0.9h36.9L67.7,197.9z"/>
	<path class="st10" d="M68.3,200.4H29.5c0.1-0.3,0.2-0.6,0.3-0.9h38.3C68.1,199.8,68.2,200.1,68.3,200.4z"/>
	<path class="st10" d="M68.9,202.9H28.8c0.1-0.3,0.2-0.6,0.2-0.9h39.6C68.7,202.3,68.8,202.6,68.9,202.9z"/>
	<path class="st10" d="M69.4,205.4H28.1c0.1-0.3,0.2-0.6,0.2-0.9h40.9C69.3,204.8,69.3,205.1,69.4,205.4z"/>
	<path class="st10" d="M70,207.9H27.5l0.2-0.9h42.1C69.8,207.3,69.9,207.6,70,207.9z"/>
	<path class="st10" d="M70.5,210.4H26.9l0.2-0.9h43.2C70.4,209.8,70.5,210.1,70.5,210.4z"/>
	<path class="st10" d="M71.1,212.9H26.3l0.2-0.9h44.3C70.9,212.3,71,212.6,71.1,212.9z"/>
	<path class="st10" d="M71.6,215.4H25.7c0.1-0.3,0.1-0.6,0.2-0.9h45.5C71.5,214.8,71.5,215.1,71.6,215.4z"/>
	<path class="st10" d="M72.1,217.9h-47l0.2-0.9h46.6L72.1,217.9z"/>
	<path class="st10" d="M72.6,220.4H24.5c0.1-0.3,0.2-0.6,0.2-0.9h47.7C72.5,219.8,72.5,220.1,72.6,220.4z"/>
	<path class="st10" d="M73.1,222.9H23.9c0.1-0.3,0.1-0.6,0.2-0.9h48.8C73,222.3,73,222.6,73.1,222.9z"/>
	<path class="st10" d="M73.6,225.4H23.3c0.1-0.3,0.1-0.6,0.2-0.9h49.9C73.4,224.8,73.5,225.1,73.6,225.4z"/>
	<path class="st10" d="M74,227.9H22.8c0-0.3,0.1-0.6,0.2-0.9h50.9C73.9,227.3,73.9,227.6,74,227.9z"/>
	<path class="st10" d="M74.3,230.4h-52c0-0.2,0.1-0.5,0.1-0.9h51.8C74.3,229.8,74.3,230.1,74.3,230.4z"/>
	<path class="st3" d="M52.1,163.6c-4.2-0.5-9.3,3.1-5.5,8.1s7.8,5.9,10,5.2c2.7-0.8,3.6-6.2,3-8.7S55.7,164.1,52.1,163.6z"/>
	<path class="st12" d="M55.6,175.1c-1.8,0.3-7-3-8.9-6.5c-0.1-0.2,0.8-9.9,0.7-11.8c0-0.4,12.2,2.8,12.2,2.8c-0.7,2.4-1,4.9-1.1,7.4
		c0,0.3,0,0.5,0.1,0.8c0,0,0,0.1,0,0.1C58.8,169.4,58.1,174.7,55.6,175.1z"/>
	<path class="st3" d="M48.1,156.8c0.5,2.9,2.5,11.1,9.2,11.2c0.4,0,0.8,0,1.2-0.1c0,0,0-0.1,0-0.1c-0.1-0.3-0.1-0.5-0.1-0.8
		c0.1-2.5,0.4-5,1.1-7.4C59.5,159.6,50.8,157.3,48.1,156.8z"/>
	<path class="st12" d="M45.3,142.7c-1.1,4.4,1.8,16.6,5,19.3c4.6,3.8,11.9,3.8,15-1.7c3-5.3-1-21.3-4.5-23.6
		C55.6,133.3,46.9,136.3,45.3,142.7z"/>
	<path class="st3" d="M57.8,149.8C57.8,149.8,57.7,149.9,57.8,149.8c0.2,0.9,0.3,1.9-0.4,2.3c0,0,0,0.1,0,0
		C58.3,151.9,58.1,150.6,57.8,149.8z"/>
	<path class="st3" d="M56.9,149.1c-1.4,0.2-0.8,2.9,0.4,2.7S58,149,56.9,149.1z"/>
	<path class="st3" d="M62.4,148.9C62.4,148.9,62.5,148.9,62.4,148.9c0.2,0.9,0.5,1.8,1.3,2c0,0,0,0,0,0.1
		C62.8,151,62.4,149.7,62.4,148.9z"/>
	<path class="st3" d="M63,147.9c1.3-0.4,1.9,2.3,0.7,2.6S61.9,148.2,63,147.9z"/>
	<path class="st3" d="M55.5,148.5c0.3-0.2,0.7-0.4,1-0.6c0.4-0.2,0.7-0.4,0.9-0.8c0.1-0.2,0-0.5-0.2-0.7c-0.5-0.2-1-0.2-1.4,0.1
		c-0.5,0.2-0.8,0.6-1,1.1c-0.1,0.3,0.1,0.7,0.4,0.8C55.2,148.6,55.4,148.6,55.5,148.5z"/>
	<path class="st3" d="M63.6,145.8c-0.4,0-0.7,0-1.1-0.1c-0.4,0-0.8-0.1-1.1-0.3c-0.2-0.2-0.2-0.5-0.1-0.7c0.3-0.4,0.8-0.6,1.4-0.5
		c0.5,0,1,0.2,1.4,0.6c0.2,0.2,0.2,0.6,0,0.9C63.9,145.7,63.8,145.7,63.6,145.8z"/>
	<path class="st3" d="M58.2,157.6c0.2,0.2,0.5,0.4,0.8,0.4c0.3-0.1,0.6-0.2,0.8-0.4c0,0,0.1,0,0,0c-0.2,0.4-0.6,0.6-1,0.6
		c-0.4,0-0.7-0.3-0.8-0.6C58.1,157.6,58.2,157.6,58.2,157.6z"/>
	<path class="st3" d="M58.6,154.9c0.6,0.6,1.3,0.9,2.1,0.9c0.3,0,0.7,0,1-0.1l0.2-0.1l0.2-0.1c0.1,0,0.1-0.1,0.1-0.2l0,0
		c0,0,0-0.1,0-0.1l0,0v-0.1c-0.1-0.6-0.3-1.6-0.3-1.6c0.3,0.1,1.6,0.4,1.5,0c-0.6-2.9-1.5-5.7-2.7-8.4c0,0-0.1-0.1-0.1,0
		s-0.1,0.1,0,0.1l0,0c0.6,2.7,1.6,5.2,2.2,7.9c-0.5-0.1-0.9-0.2-1.4-0.2c-0.1,0,0.5,1.9,0.5,2.1l0,0c-1,0.3-2.2,0.2-3.1-0.4
		C58.6,154.8,58.6,154.9,58.6,154.9z"/>
	<path class="st3" d="M61.3,155.4c-0.3,0.5-0.7,1-1.2,1.3c-0.3,0.2-0.6,0.3-0.9,0.2c-0.7-0.1-0.8-0.6-0.8-1.2c0-0.3,0.1-0.6,0.2-0.9
		C59.5,155.3,60.4,155.5,61.3,155.4z"/>
	<path class="st13" d="M60.2,156.7c-0.3,0.2-0.6,0.3-0.9,0.2c-0.7-0.1-0.8-0.6-0.8-1.2C59.2,155.6,59.9,156,60.2,156.7z"/>
	<path class="st14" d="M46,152.6c0.8-0.4,2-3.6,2.5-4.9s-0.6-7.3-0.8-8.6c-1.2,1.2-2.1,2.7-2.5,4.4C44.8,145.4,45.2,149,46,152.6z"
		/>
	<path class="st3" d="M59.1,141.1c-0.7,1.3-2,2.2-3.5,2.3c-1.5,0.1-3-0.6-3.9-1.8c0,0-0.1,0-0.1,0c0.8,1.4,2.4,2.2,4,2.1
		c1.6-0.2,3-1.2,3.6-2.6C59.2,141.1,59.1,141.1,59.1,141.1z"/>
	<path class="st3" d="M52.3,131.7c-2.3,0.5-4.1,2.2-4.9,4.4c-0.3,1.1-0.2,2.2,0.2,3.2c0,0,0.1,0,0.1,0c-0.6-1.9,0-3.9,1.4-5.3
		c1.5-1.6,3.6-2.3,5.8-2.1c1,0.1,2,0.6,2.7,1.3c0.1,0.1,0.2,0,0.2-0.1C56.8,131.7,54.5,131.2,52.3,131.7z"/>
	<path class="st3" d="M67.8,133.7c-0.7-1.1-1.8-2-3-2.4c-1.7-0.6-3.4,0-5,0.5c0,0,0,0.1,0,0.1c1.4-0.6,2.9-0.8,4.3-0.5
		c1.2,0.3,2.3,1,3.1,2c1.7,2.3,1.2,5.6-1.1,7.3c-1,0.8-2.3,1.1-3.6,1c-0.1,0-0.1,0.1,0,0.1c2.7,0.3,5.3-1.5,5.9-4.2
		C68.7,136.3,68.5,134.9,67.8,133.7z"/>
	<path class="st3" d="M45,146c0,0-3.3-3.9-2-6.8c0.8-1.7,4.5-2.3,4.5-2.3c0.6-1.7,1.9-3,3.6-3.8c2.9-1.4,7-0.4,7-0.4
		c1.5-1.3,3.6-1.9,5.6-1.4c4.3,1.3,5.1,7.2,1.7,9.9c-2.4,1.9-6.6,0.4-6.6,0.4c-0.3,0.1-3.4,3.1-6.9,0.5c0,0-1.8,2.5-4,1.5
		C47.6,145,46.4,145.9,45,146z"/>
	<path class="st2" d="M56.7,154.8c-2.1,0.2-3.9-1.3-4.1-3.4s1.3-3.9,3.4-4.1c1.7-0.2,3.3,0.9,3.9,2.5l0,0c0.7,2-0.3,4.1-2.3,4.8
		C57.3,154.7,57,154.7,56.7,154.8z M56,147.8c-0.3,0-0.5,0.1-0.8,0.2c-1.7,0.6-2.6,2.5-1.9,4.2s2.5,2.6,4.2,1.9
		c1.7-0.6,2.6-2.5,1.9-4.2C58.9,148.5,57.5,147.6,56,147.8z"/>
	<path class="st2" d="M65.1,152.9c-1.4,0.1-2.9-1.2-3.3-3.1c-0.2-0.9-0.1-1.9,0.2-2.7c0.3-0.8,0.9-1.3,1.7-1.5
		c0.8-0.1,1.6,0.1,2.2,0.7c0.7,0.6,1.1,1.5,1.3,2.4c0.4,2-0.4,3.9-1.9,4.3L65.1,152.9z M64.1,146h-0.2c-0.6,0.2-1.1,0.6-1.4,1.2
		c-0.3,0.8-0.4,1.6-0.2,2.4c0.4,1.8,1.7,3,2.9,2.7s1.9-1.9,1.6-3.7c-0.2-0.8-0.6-1.6-1.2-2.1C65.2,146.2,64.6,146,64.1,146z"/>
	<path class="st2" d="M59.8,150.2l-0.4-0.3c0.5-0.6,1.6-1.5,2.7-0.7l-0.3,0.4C60.9,148.9,59.9,150.2,59.8,150.2z"/>
	<path class="st2" d="M44.4,154.7l-0.5-0.1c0.1-0.2,0.6-2.2,1.7-2.6s6.9-1.2,7.2-1.2l0.1,0.5c-2.4,0.3-4.8,0.7-7.1,1.2
		C45.1,152.6,44.6,154.1,44.4,154.7z"/>
	<path class="st12" d="M48.4,152.7c0,0-3.1-3.8-4.8-2.7s0.8,6.8,3,7.4c1.1,0.4,2.4-0.2,2.8-1.3c0,0,0-0.1,0-0.1L48.4,152.7z"/>
	<path class="st3" d="M44.4,151.7c1.4,0.6,2.5,1.8,3.1,3.2c-0.4-0.5-1.1-0.7-1.7-0.3c-0.1,0-0.1,0.1-0.2,0.1c0,0,0,0.1,0,0.1
		c0.5-0.2,1.1-0.1,1.5,0.4c0.3,0.4,0.6,0.7,0.8,1.1c0.1,0.1,0.3,0,0.3-0.1l0,0C48.1,154.2,46.4,151.7,44.4,151.7L44.4,151.7z"/>
	<path class="st12" d="M43,175.9c-0.1,13.5,3.9,44.5,11,47.4c9.5,3.9,24.5,8.4,30.6,6.1c2.6-1,3.9-21.7,0.8-21.9
		c-13.8-1-19.9-1.4-22.5-4.9c-0.6-0.8-5.1-13.8-10.4-24C46.4,166.8,43.1,168.5,43,175.9z"/>
	<path class="st5" d="M58.8,191.1L41.8,201c0,0-1-21.5,0.5-27.9c1.7-7.2,5-4.8,8.8,1.2S58.8,191.1,58.8,191.1z"/>
	<path class="st3" d="M56.7,188.5c-0.6,0.3-5.9,3.3-7.1,4s-5.8,3.4-6.9,4.2c-0.1,0,0,0.1,0,0.1c1.2-0.6,6-3.3,7.1-4s6.3-3.8,6.9-4.2
		C56.8,188.6,56.7,188.5,56.7,188.5z"/>
	<path class="st12" d="M82.9,207.6c0,0,4.9-1.3,10.1-3.4c2.9-1.1,8-2.7,10.5-2.5c3.8,0.2,19.3,3.4,18.6,7.2c-0.6,3.4-13.6-1-13.6-1
		s13.5,3.3,12,7.3s-15.6-3-15.6-3s13.8,3.7,11.6,7.6c-1.7,2.9-14.7-2.7-14.7-2.7s11.9,3.3,10.3,6.4c-1.8,3.4-14.1-1-14.1-1
		c-5.4,7.1-13.3,9.6-18.6,6.9C78.5,228.9,82.9,207.6,82.9,207.6z"/>
	<path class="st3" d="M103.9,206.4c1.6,0.3,3.2,0.7,4.8,1.1s3.1,1,4.6,1.6c2,0.8,3.9,1.8,5.7,3c-3.3-1.7-6.8-3.1-10.4-4.2
		C107,207.5,105.4,207,103.9,206.4C103.8,206.4,103.9,206.4,103.9,206.4z"/>
	<path class="st3" d="M102.1,212c2,0.5,4.1,1,6.1,1.6s3.8,1.4,5.8,2.1c0.1,0.1,0.1,0.1-0.1,0.1c-2-0.7-3.9-1.1-5.8-1.8
		S104.1,212.6,102.1,212C102,212.1,102,212,102.1,212z"/>
	<path class="st3" d="M99.6,216.6c3.1,0.7,6.2,1.7,9.1,3.1c0.1,0.1,0,0.1-0.1,0.1c-3-1.1-5.4-2-9-3.1
		C99.6,216.7,99.6,216.6,99.6,216.6z"/>
</g>
<g id="freepik--device-2--inject-59">
	<path class="st3" d="M648.8,265.1H575c-4.2,0-7.5,3.4-7.5,7.6c0,0,0,0,0,0v151.9c0,4.2,3.3,7.6,7.5,7.6h73.8c4.2,0,7.5-3.4,7.5-7.6
		V272.7C656.3,268.5,652.9,265.1,648.8,265.1C648.8,265.1,648.8,265.1,648.8,265.1z M651.6,419.9c0.1,3.8-2.8,7.1-6.7,7.2h-66
		c-3.8-0.2-6.8-3.4-6.7-7.2V278.4c0-8.1,3-8.5,6.7-8.5h13.2c0.8,0,1.4,0.9,1.4,2v0.5c0,2.5,1.4,2.5,3.1,2.5h30.6
		c1.7,0,3.1,0,3.1-2.5v-0.5c0-1.1,0.6-2,1.4-2h13.2c3.7,0,6.7,1.1,6.7,8.5V419.9z"/>
	<path class="st7" d="M616.1,271.7h-8.3c-0.3,0-0.5-0.2-0.5-0.5c0,0,0,0,0,0l0,0c0-0.3,0.2-0.5,0.5-0.5l0,0h8.3
		c0.3,0,0.5,0.2,0.5,0.5c0,0,0,0,0,0l0,0C616.6,271.5,616.3,271.7,616.1,271.7L616.1,271.7z"/>
	<path class="st7" d="M651.6,278.4v141.4c0.1,3.8-2.8,7.1-6.7,7.2h-66c-3.8-0.2-6.8-3.4-6.7-7.2V278.4c0-8.1,3-8.5,6.7-8.5h13.2
		c0.8,0,1.4,0.9,1.4,2v0.5c0,2.5,1.4,2.5,3.1,2.5h30.6c1.7,0,3.1,0,3.1-2.5v-0.5c0-1.1,0.6-2,1.4-2h13.2
		C648.6,269.9,651.6,271,651.6,278.4z"/>
	<path class="st2" d="M651.6,278.4V289h-79.4v-10.6c0-8.1,3-8.5,6.7-8.5h13.2c0.8,0,1.4,0.9,1.4,2v0.5c0,2.5,1.4,2.5,3.1,2.5h30.6
		c1.7,0,3.1,0,3.1-2.5v-0.5c0-1.1,0.6-2,1.4-2h13.2C648.6,269.9,651.6,271,651.6,278.4z"/>
	<polygon class="st7" points="579.7,283.8 577.4,281.6 579.7,279.4 580.1,279.8 578.1,281.6 580.1,283.4 	"/>
	<path class="st7" d="M644.4,284h-1.7v-0.6c0,0,0-0.1,0-0.1c-0.1,0-0.1-0.1-0.2-0.1c0,0-0.1,0-0.1,0l-0.5,0.3l-0.8-1.4l0.5-0.3
		c0,0,0-0.1,0-0.1v-0.2c0,0,0-0.1,0-0.1l-0.5-0.3l0.8-1.4l0.5,0.3c0,0,0.1,0,0.1,0c0.1,0,0.1-0.1,0.2-0.1c0,0,0-0.1,0-0.1v-0.6h1.7
		v0.6c0,0,0,0.1,0,0.1l0.2,0.1c0,0,0.1,0,0.1,0l0.5-0.3l0.8,1.4l-0.5,0.3c0,0,0,0.1,0,0.1v0.2c0,0,0,0.1,0,0.1l0.5,0.3l-0.8,1.4
		l-0.5-0.3c0,0-0.1,0-0.1,0l-0.2,0.1c0,0-0.1,0,0,0.1L644.4,284z M643.2,283.6h0.8v-0.2c0-0.2,0.1-0.4,0.3-0.5l0.2-0.1
		c0.2-0.1,0.4-0.1,0.5,0l0.2,0.1l0.4-0.7l-0.2-0.1c-0.2-0.1-0.3-0.3-0.2-0.5v-0.2c0-0.2,0.1-0.4,0.2-0.5l0.2-0.1l-0.4-0.7l-0.2,0.1
		c-0.2,0.1-0.4,0.1-0.5,0l-0.2-0.1c-0.2-0.1-0.3-0.3-0.3-0.5v-0.2h-0.8v0.2c0,0.2-0.1,0.4-0.3,0.5l-0.1,0.1c-0.2,0.1-0.4,0.1-0.5,0
		l-0.2-0.1l-0.4,0.7l0.2,0.1c0.2,0.1,0.3,0.3,0.2,0.5v0.2c0,0.2-0.1,0.4-0.2,0.5l-0.2,0.1l0.4,0.7l0.2-0.1c0.2-0.1,0.4-0.1,0.5,0
		l0.1,0.1c0.2,0.1,0.3,0.3,0.3,0.5L643.2,283.6z M643.6,282.8c-0.7,0-1.2-0.6-1.2-1.2c0-0.7,0.6-1.2,1.2-1.2c0.7,0,1.2,0.6,1.2,1.2
		C644.8,282.3,644.3,282.8,643.6,282.8C643.6,282.9,643.6,282.9,643.6,282.8L643.6,282.8z M643.6,280.8c-0.4,0-0.8,0.4-0.8,0.8
		c0,0.4,0.4,0.8,0.8,0.8c0.4,0,0.8-0.4,0.8-0.8C644.4,281.2,644.1,280.8,643.6,280.8C643.6,280.8,643.6,280.8,643.6,280.8
		L643.6,280.8z"/>
	<g id="freepik--u5Zjqx--inject-59">
		<path class="st7" d="M589.8,273.1l-0.1,0.1l-0.1,0.1c-0.3-0.3-0.8-0.5-1.2-0.5c-0.5,0-0.9,0.2-1.2,0.5l-0.1-0.1l-0.1-0.1l0,0
			l0.2-0.1c0.1-0.1,0.2-0.2,0.4-0.2c0.2-0.1,0.3-0.1,0.5-0.2h0.2h0.4c0.2,0,0.3,0.1,0.5,0.1l0.3,0.1c0.1,0.1,0.2,0.1,0.3,0.2
			L589.8,273.1L589.8,273.1z"/>
		<path class="st7" d="M587.6,273.7l-0.2-0.2c0.6-0.6,1.5-0.6,2.1,0l-0.2,0.2C588.8,273.2,588,273.2,587.6,273.7L587.6,273.7z"/>
		<path class="st7" d="M589,273.9l-0.2,0.2c-0.1-0.1-0.3-0.2-0.4-0.2c-0.2,0-0.3,0.1-0.4,0.2c-0.1-0.1-0.1-0.1-0.2-0.2
			C588.1,273.5,588.6,273.5,589,273.9C589,273.8,589,273.9,589,273.9z"/>
		<path class="st7" d="M588.6,274.2c0,0.1-0.1,0.2-0.2,0.2c-0.1,0-0.2-0.1-0.2-0.2c0-0.1,0.1-0.2,0.2-0.2l0,0
			C588.5,274.1,588.6,274.2,588.6,274.2z"/>
	</g>
	<path class="st7" d="M577.4,273.5c0-0.3,0.2-0.5,0.5-0.5c0,0,0,0,0,0c0.3,0,0.5,0.2,0.5,0.5v0c0,0.3-0.2,0.5-0.5,0.5c0,0,0,0,0,0
		C577.6,274,577.4,273.7,577.4,273.5L577.4,273.5z"/>
	<path class="st7" d="M579,273.5c0-0.3,0.2-0.5,0.5-0.5s0.5,0.2,0.5,0.5c0,0,0,0,0,0c0,0.3-0.2,0.5-0.5,0.5
		C579.2,274,579,273.7,579,273.5z"/>
	<circle class="st7" cx="581.2" cy="273.5" r="0.5"/>
	<path class="st7" d="M582.3,273.5c0-0.3,0.2-0.5,0.5-0.5c0,0,0,0,0,0c0.3,0,0.5,0.2,0.5,0.5v0c0,0.3-0.2,0.5-0.5,0.5c0,0,0,0,0,0
		C582.6,274,582.3,273.7,582.3,273.5L582.3,273.5z"/>
	<path class="st7" d="M584,273.5c0-0.3,0.2-0.5,0.5-0.5c0,0,0,0,0,0c0.3,0,0.5,0.2,0.5,0.5v0c0,0.3-0.2,0.5-0.5,0.5c0,0,0,0,0,0
		C584.2,274,584,273.7,584,273.5L584,273.5z"/>
	<path class="st7" d="M645.6,274.6h-4.3v-2h4.3V274.6z M641.6,274.4h3.9v-1.6h-3.9V274.4z"/>
	<rect x="641.7" y="273" class="st7" width="2.8" height="1.3"/>
	<rect x="645.6" y="273.1" class="st7" width="0.4" height="1.1"/>
	<polygon class="st0" points="584.2,418.5 583.7,418.5 583.7,421.2 582.5,421.2 582.5,419.8 580.5,419.8 580.5,421.2 579.4,421.2 
		579.4,418.5 578.8,418.5 581.5,415.6 	"/>
	<rect x="638.4" y="415.6" class="st0" width="6.6" height="0.9"/>
	<rect x="638.4" y="418" class="st0" width="6.6" height="0.9"/>
	<rect x="638.4" y="420.3" class="st0" width="6.6" height="0.9"/>
	<rect x="572.2" y="289" class="st2" width="79.4" height="49.9"/>
	<rect x="572.2" y="289" class="st9" width="79.4" height="49.9"/>
	<polygon class="st2" points="607.4,328.2 651.6,328.2 629.5,301.3 	"/>
	<polygon class="st10" points="607.4,328.2 651.6,328.2 629.5,301.3 	"/>
	<polygon class="st2" points="590.1,328.2 626.6,328.2 608.3,310.7 	"/>
	<rect x="572.2" y="328.2" class="st2" width="79.4" height="10.8"/>
	<circle class="st2" cx="587.1" cy="303.2" r="5.6"/>
	<rect x="579.2" y="344.8" class="st2" width="65.3" height="7.8"/>
	<rect x="579.2" y="355.5" class="st4" width="65.3" height="2.6"/>
	<rect x="579.2" y="360.9" class="st4" width="65.3" height="2.6"/>
	<rect x="579.2" y="366.4" class="st4" width="65.3" height="2.6"/>
	<rect x="579.2" y="371.8" class="st4" width="44.7" height="2.6"/>
	<rect x="579.2" y="387.6" class="st1" width="55.7" height="2"/>
	<rect x="579.2" y="391.8" class="st4" width="65.3" height="2"/>
	<rect x="579.2" y="395.9" class="st4" width="65.3" height="2"/>
	<rect x="579.2" y="400" class="st4" width="65.3" height="2"/>
	<rect x="579.2" y="404.2" class="st4" width="65.3" height="2"/>
	<rect x="579.2" y="408.3" class="st4" width="35.7" height="2"/>
	<rect x="579.2" y="379.7" class="st2" width="65.3" height="5.9"/>
</g>
<g id="freepik--device-1--inject-59">
	<path class="st8" d="M303,275.7v144.8c-0.1,6.5-5.4,11.7-11.9,11.7H63.6c-6.5,0-11.8-5.2-11.9-11.7V275.7
		c0.1-6.5,5.4-11.7,11.9-11.7c0,0,0,0,0,0h227.5C297.7,263.9,303,269.2,303,275.7C303,275.7,303,275.7,303,275.7z"/>
	<rect x="69.5" y="271.1" class="st7" width="216.3" height="153.8"/>
	<rect x="208.8" y="368" class="st0" width="64.2" height="44.9"/>
	<path class="st4" d="M216.3,380.7c0,2.9,2.4,5.3,5.3,5.3c2.9,0,5.3-2.4,5.3-5.3c0-2.9-2.4-5.3-5.3-5.3S216.3,377.8,216.3,380.7
		L216.3,380.7z"/>
	<polygon class="st6" points="237.2,403.2 272.9,403.2 255.1,379 	"/>
	<polygon class="st4" points="223.3,403.2 252.7,403.2 238,387.5 	"/>
	<rect x="208.8" y="403.2" class="st4" width="64.2" height="9.7"/>
	<rect x="186.6" y="281.8" class="st2" width="86.3" height="16.4"/>
	<rect x="186.6" y="304.5" class="st4" width="86.3" height="2.3"/>
	<rect x="186.6" y="309.9" class="st4" width="86.3" height="2.3"/>
	<rect x="186.6" y="315.3" class="st4" width="86.3" height="2.3"/>
	<rect x="186.6" y="320.7" class="st4" width="86.3" height="2.3"/>
	<rect x="186.6" y="326.1" class="st4" width="86.3" height="2.3"/>
	<rect x="186.6" y="331.5" class="st4" width="86.3" height="2.3"/>
	<rect x="186.6" y="336.9" class="st4" width="49.6" height="2.3"/>
	<rect x="113.3" y="400.4" class="st4" width="86.3" height="2.3"/>
	<rect x="113.3" y="367.9" class="st4" width="86.3" height="2.3"/>
	<rect x="113.3" y="373.4" class="st4" width="86.3" height="2.3"/>
	<rect x="113.3" y="378.8" class="st4" width="86.3" height="2.3"/>
	<rect x="113.3" y="384.1" class="st4" width="58.9" height="2.3"/>
	<rect x="113.3" y="395" class="st4" width="86.3" height="2.3"/>
	<rect x="113.3" y="405.8" class="st4" width="58.9" height="2.3"/>
	<rect x="82.4" y="356.5" class="st8" width="190.6" height="5.4"/>
	<rect x="82.4" y="367.9" class="st2" width="24.7" height="44.9"/>
	<rect x="208.8" y="368" class="st2" width="64.2" height="44.9"/>
	<rect x="208.8" y="368" class="st9" width="64.2" height="44.9"/>
	<path class="st2" d="M215.9,379.9c0,2.9,2.4,5.3,5.3,5.3c2.9,0,5.3-2.4,5.3-5.3c0-2.9-2.4-5.3-5.3-5.3S215.9,377,215.9,379.9
		L215.9,379.9z"/>
	<polygon class="st2" points="237.2,403.2 272.9,403.2 255.1,379 	"/>
	<polygon class="st10" points="237.2,403.2 272.9,403.2 255.1,379 	"/>
	<polygon class="st2" points="223.3,403.2 252.7,403.2 238,387.5 	"/>
	<rect x="208.8" y="403.2" class="st2" width="64.2" height="9.7"/>
	<rect x="82.4" y="281.8" class="st2" width="95.9" height="67.2"/>
	<rect x="82.4" y="281.8" class="st9" width="95.9" height="67.2"/>
	<path class="st2" d="M93.6,300.9c0,4.4,3.6,7.9,8,7.9s7.9-3.6,7.9-8c0-4.4-3.6-7.9-7.9-7.9C97.2,293,93.6,296.6,93.6,300.9z"/>
	<polygon class="st2" points="125,334.5 178.3,334.5 151.6,298.4 	"/>
	<polygon class="st10" points="125,334.5 178.3,334.5 151.6,298.4 	"/>
	<polygon class="st2" points="104.1,334.6 148.1,334.6 126.1,311 	"/>
	<rect x="82.4" y="334.5" class="st2" width="95.9" height="14.5"/>
	<path class="st3" d="M61.9,329.8h0.3c0.6,0,1.1,0.5,1.1,1.1v34.3c0,0.6-0.5,1.1-1.1,1.1h-0.3c-0.6,0-1.1-0.5-1.1-1.1v-34.3
		C60.8,330.3,61.3,329.8,61.9,329.8z"/>
	<path class="st3" d="M300,348.1c0,2.6-2.1,4.7-4.7,4.7c-2.6,0-4.7-2.1-4.7-4.7c0-2.6,2.1-4.7,4.7-4.7c0,0,0,0,0,0
		C297.9,343.4,300,345.5,300,348.1z"/>
</g>
</svg>
