<?xml version="1.0" encoding="utf-8"?>
<!-- Generator: Adobe Illustrator 26.2.1, SVG Export Plug-In . SVG Version: 6.00 Build 0)  -->
<svg version="1.1" id="Ebene_1" xmlns="http://www.w3.org/2000/svg" xmlns:xlink="http://www.w3.org/1999/xlink" x="0px" y="0px"
	 viewBox="0 0 425 391" style="enable-background:new 0 0 425 391;" xml:space="preserve">
<style type="text/css">
	.st0{fill:#EBEBEB;}
	.st1{fill:#F5F5F5;}
	.st2{fill:#E0E0E0;}
	.st3{fill:#FFFFFF;}
	.st4{fill:#F0F0F0;}
	.st5{fill:#263238;}
	.st6{opacity:0.2;fill:#FFFFFF;enable-background:new    ;}
	.st7{fill:#CE7A63;}
	.st8{opacity:0.4;fill:#FFFFFF;enable-background:new    ;}
	.st9{opacity:0.4;fill:none;stroke:#263238;stroke-width:0.9434;stroke-miterlimit:10;enable-background:new    ;}
	.st10{opacity:0.2;enable-background:new    ;}
	.st11{fill:#BA4D3C;}
	.st12{fill:#002888;}
	.st13{opacity:0.7;fill:#FFFFFF;enable-background:new    ;}
	.st14{opacity:0.1;enable-background:new    ;}
	.st15{opacity:0.1;fill:#263238;enable-background:new    ;}
	.st16{opacity:0.2;fill:#263238;enable-background:new    ;}
	.st17{opacity:0.6;fill:#002888;enable-background:new    ;}
</style>
<g id="freepik--background-complete--inject-31">
	<rect x="-34" y="327.4" class="st0" width="500" height="0.2"/>
	<rect x="360.7" y="343.5" class="st0" width="55.2" height="0.2"/>
	<rect x="287.8" y="338.2" class="st0" width="8.7" height="0.2"/>
	<rect x="338.5" y="334.2" class="st0" width="19.2" height="0.2"/>
	<rect x="18.5" y="335.9" class="st0" width="43.2" height="0.2"/>
	<rect x="181.3" y="342.4" class="st0" width="45.7" height="0.2"/>
	<rect x="106.5" y="338.1" class="st0" width="93.7" height="0.2"/>
	<path class="st0" d="M208.7,277.1c0,3.2-2.6,5.7-5.7,5.7c0,0,0,0,0,0H9.9c-3.1,0-5.7-2.6-5.7-5.7V5.7C4.2,2.5,6.8,0,9.9,0H203
		c3.2,0,5.7,2.6,5.7,5.7c0,0,0,0,0,0 M208.5,5.7c0-3-2.4-5.5-5.4-5.5c0,0,0,0,0,0H9.9c-3,0-5.5,2.4-5.5,5.5v271.4
		c0,3,2.4,5.5,5.5,5.5H203c3,0,5.5-2.4,5.5-5.5"/>
	<path class="st0" d="M419.3,282.8H226.2c-3.2,0-5.7-2.6-5.7-5.7V5.7c0-3.1,2.6-5.7,5.7-5.7h193.1c3.1,0,5.7,2.5,5.7,5.7v271.4
		C425,280.2,422.5,282.8,419.3,282.8z M226.2,0.2c-3,0-5.5,2.4-5.5,5.5v271.4c0,3,2.4,5.5,5.5,5.5h193.1c3,0,5.5-2.4,5.5-5.5V5.7
		c0-3-2.4-5.5-5.5-5.5H226.2z"/>
	<path class="st1" d="M61.7,53.8h180.2c3,0,5.4,2.4,5.4,5.4v84.1c0,3-2.4,5.4-5.4,5.4H61.7c-3,0-5.4-2.4-5.4-5.4V59.2
		C56.3,56.2,58.7,53.8,61.7,53.8z"/>
	<path class="st2" d="M53.7,45.9h180.2c3,0,5.4,2.4,5.4,5.4v84.1c0,3-2.4,5.4-5.4,5.4H53.7c-3,0-5.4-2.4-5.4-5.4V51.3
		C48.3,48.3,50.7,45.9,53.7,45.9z"/>
	<path class="st0" d="M45.6,37.7h180.2c3,0,5.4,2.4,5.4,5.4v84.1c0,3-2.4,5.4-5.4,5.4H45.6c-3,0-5.4-2.4-5.4-5.4V43.1
		C40.2,40.1,42.6,37.7,45.6,37.7z"/>
	<path class="st3" d="M56.8,48.4h157.7c3,0,5.4,2.4,5.4,5.4v19c0,3-2.4,5.4-5.4,5.4H56.8c-3,0-5.4-2.4-5.4-5.4v-19
		C51.5,50.8,53.9,48.4,56.8,48.4z"/>
	<path class="st2" d="M88.1,90.6h95.2c2.1,0,3.9,1.7,3.9,3.9v17.9c0,2.1-1.7,3.9-3.9,3.9H88.1c-2.1,0-3.9-1.7-3.9-3.9V94.5
		C84.2,92.3,85.9,90.6,88.1,90.6z"/>
	<path class="st2" d="M135.7,72.3c-0.9,0-1.7-0.8-1.7-1.7V55.9c0.1-0.9,0.9-1.6,1.8-1.6c0.8,0.1,1.5,0.7,1.6,1.6v14.8
		C137.4,71.6,136.6,72.3,135.7,72.3z"/>
	<path class="st2" d="M143.1,65h-14.8c-0.9,0.1-1.7-0.6-1.8-1.6c-0.1-0.9,0.6-1.7,1.6-1.8c0.1,0,0.2,0,0.3,0h14.8
		c0.9-0.1,1.7,0.6,1.8,1.6c0.1,0.9-0.6,1.7-1.6,1.8C143.2,65,143.1,65,143.1,65z"/>
	<path class="st2" d="M140.9,70.2c-0.4,0-0.9-0.2-1.2-0.5l-10.5-10.5c-0.7-0.7-0.7-1.7,0-2.4c0.7-0.7,1.7-0.7,2.4,0l0,0l10.5,10.4
		c0.7,0.7,0.7,1.7,0,2.4C141.8,70,141.3,70.2,140.9,70.2z"/>
	<path class="st2" d="M130.4,70.2c-0.4,0-0.9-0.2-1.2-0.5c-0.7-0.7-0.7-1.7,0-2.4l10.5-10.4c0.7-0.7,1.7-0.7,2.4,0
		c0.7,0.7,0.7,1.7,0,2.4l0,0l-10.5,10.5C131.3,70,130.9,70.2,130.4,70.2z"/>
	<path class="st2" d="M177.8,72.3c-0.9,0-1.7-0.8-1.7-1.7c0,0,0,0,0,0V55.9c0.1-0.9,0.9-1.6,1.8-1.6c0.8,0.1,1.5,0.7,1.6,1.6v14.8
		C179.5,71.6,178.7,72.3,177.8,72.3z"/>
	<path class="st2" d="M185.2,65h-14.8c-0.9-0.1-1.6-0.9-1.6-1.8c0.1-0.8,0.7-1.5,1.6-1.6h14.8c0.9,0.1,1.6,0.9,1.6,1.8
		C186.7,64.3,186,64.9,185.2,65z"/>
	<path class="st2" d="M183,70.2c-0.4,0-0.9-0.2-1.2-0.5l-10.4-10.5c-0.7-0.7-0.7-1.7,0-2.4c0.7-0.7,1.7-0.7,2.4,0l0,0l10.5,10.4
		c0.6,0.7,0.6,1.7,0,2.4C183.9,70,183.4,70.2,183,70.2z"/>
	<path class="st2" d="M172.6,70.2c-0.4,0-0.9-0.2-1.2-0.5c-0.7-0.7-0.7-1.7,0-2.4l10.4-10.4c0.6-0.7,1.7-0.8,2.4-0.2
		c0.7,0.6,0.8,1.7,0.2,2.4c0,0.1-0.1,0.1-0.2,0.2l-10.5,10.5C173.4,70,173,70.2,172.6,70.2z"/>
	<path class="st2" d="M93.6,72.3c-0.9,0-1.7-0.8-1.7-1.7c0,0,0,0,0,0V55.9c0.1-0.9,0.9-1.6,1.8-1.6c0.8,0.1,1.5,0.7,1.6,1.6v14.8
		C95.2,71.6,94.5,72.3,93.6,72.3z"/>
	<path class="st2" d="M100.9,65H86.2c-0.9-0.1-1.6-0.9-1.6-1.8c0.1-0.8,0.7-1.5,1.6-1.6h14.8c0.9,0.1,1.6,0.9,1.6,1.8
		C102.4,64.3,101.8,64.9,100.9,65z"/>
	<path class="st2" d="M98.8,70.2c-0.4,0-0.9-0.2-1.2-0.5L87.1,59.2c-0.7-0.7-0.7-1.7,0-2.4s1.7-0.7,2.4,0L100,67.3
		c0.6,0.7,0.6,1.7,0,2.4C99.7,70,99.2,70.2,98.8,70.2z"/>
	<path class="st2" d="M88.3,70.2c-0.4,0-0.9-0.2-1.2-0.5c-0.7-0.7-0.7-1.7,0-2.4l10.5-10.4c0.6-0.7,1.7-0.8,2.4-0.2
		c0.7,0.6,0.8,1.7,0.2,2.4c0,0.1-0.1,0.1-0.2,0.2L89.5,69.7C89.2,70,88.8,70.2,88.3,70.2z"/>
	<path class="st4" d="M34.7,250l-13.2-42c-0.5-1.6,0.4-3.3,2-3.7c0.1,0,0.1,0,0.2,0l1.7-0.4c5.2-1.2,10.1-3.3,14.7-6
		c4.6-2.9,8.5-6.6,11.6-11.1c0.9-1.3,2.6-1.7,4-0.9c4.7,2.7,9.8,4.5,15.2,5.1c5.3,0.5,10.7,0.3,15.9-0.8l1.7-0.4
		c1.6-0.4,3.2,0.6,3.5,2.2c0,0.1,0,0.2,0,0.3l6,43.7c0.1,0.9-0.2,1.8-0.8,2.5l-24.6,24.8c-0.8,0.8-2,1.1-3.1,0.7l-32.9-11.9
		C35.7,251.6,35,250.9,34.7,250z"/>
	<path class="st2" d="M62.4,212.8L62,224.4l6.1,21.6l-8.6-21.7L58.4,214l-5.8-6.2l1.6-20.6c0.1-0.7,0.7-1.3,1.4-1.2
		c0.2,0,0.4,0.1,0.6,0.2c1.4,0.8,2.9,1.5,4.3,2.1c0.4,0.2,0.7,0.7,0.6,1.1l-3.9,15.7L62.4,212.8z"/>
	<path class="st1" d="M325.7,46.1l-55.5,18c-2.3,0.7-3.5,3.2-2.8,5.5l12.4,38.2c0.7,2.3,3.2,3.5,5.5,2.8l55.5-18
		c2.3-0.7,3.5-3.2,2.8-5.5l-12.4-38.2C330.4,46.6,328,45.3,325.7,46.1z"/>
	<path class="st2" d="M308.5,76.7l6.2,13.7l-9.4,3.1l-3.1-14.7c-4-0.6-6.7-4.4-6.1-8.4c0.6-4,4.4-6.7,8.4-6.1s6.7,4.4,6.1,8.4
		C310.3,74.2,309.6,75.6,308.5,76.7L308.5,76.7z"/>
	<path class="st0" d="M259.3,17.4c-8.6,12.1-5.6,28.9,5.9,38.2l2.7,2.2c1.7,1.3,4.1,1.1,5.4-0.6s1.1-4.1-0.6-5.4l-3.5-2.9
		c-8.6-7-9.9-19.7-2.8-28.3c0.6-0.7,1.1-1.3,1.8-1.9c7.4-7,19.1-6.9,27-0.5l4.3-6.4c-11.9-9.7-29.5-7.9-39.2,4
		C260.1,16.4,259.7,16.9,259.3,17.4z"/>
	<path class="st0" d="M342.8,275.5c-6.5,0-12.7-2.6-17.3-7.1l0,0c-9.6-9.5-9.6-25,0-34.6c9.5-9.6,25-9.6,34.6,0
		c9.6,9.5,9.6,25,0,34.6C355.5,272.9,349.2,275.5,342.8,275.5z M332.1,261.7c5.9,5.9,15.4,5.9,21.2,0s5.9-15.4,0-21.2
		s-15.4-5.9-21.2,0c0,0,0,0,0,0C326.3,246.3,326.3,255.8,332.1,261.7z"/>
	<path class="st0" d="M391.4,304.4c-1.3,0-2.5-0.5-3.4-1.4l-34.7-34.7c-1.8-1.9-1.7-4.9,0.3-6.7c1.8-1.7,4.6-1.7,6.4,0l34.7,34.7
		c1.8,1.8,1.8,4.8,0,6.7C393.8,303.9,392.6,304.4,391.4,304.4L391.4,304.4z"/>
	<path class="st0" d="M373.3,310.9c-2.6,0-4.7-2.1-4.7-4.7c0-1.2,0.5-2.4,1.4-3.3l12.3-12.3c1.8-1.9,4.8-2,6.7-0.3s2,4.8,0.3,6.7
		c-0.1,0.1-0.2,0.2-0.3,0.3l-12.3,12.3C375.7,310.4,374.5,310.9,373.3,310.9z"/>
	<path class="st0" d="M367.5,297.4c-2.6,0-4.7-2.1-4.7-4.7c0-1.2,0.5-2.4,1.4-3.3l8.4-8.4c1.8-1.9,4.8-2,6.7-0.3s2,4.8,0.3,6.7
		c-0.1,0.1-0.2,0.2-0.3,0.3l-8.4,8.4C370,296.9,368.8,297.4,367.5,297.4z"/>
</g>
<g id="freepik--Shadow--inject-31">
	<ellipse id="freepik--path--inject-31" class="st1" cx="216" cy="361.2" rx="193.9" ry="11.3"/>
</g>
<g id="freepik--Character--inject-31">
	<path class="st5" d="M289.5,204.4c-3.6,5.2-13.9,17.5-22.9,20.8c-14.2,28.2,5.4,68.6,24.4,81.7c0,0,53.1-27.6,61.6-95L289.5,204.4z
		"/>
	<path class="st5" d="M357.2,41.4c-10.8-2-35.8-3.1-37.6,26s-11.3,48.2,12.6,53.3l1.7-7.9L357.2,41.4z"/>
	<path class="st6" d="M357.2,41.4c-10.8-2-35.8-3.1-37.6,26s-11.3,48.2,12.6,53.3l1.7-7.9L357.2,41.4z"/>
	<path class="st5" d="M316.6,112.2c-5.6-2.4-12,0.1-14.5,5.7l0,0.1l-4.7,10.8c-1.6,3.6-3.2,7.2-4.8,10.8c-0.8,1.8-1.6,3.5-2.5,5.3
		s-1.7,3.5-2.5,5.1s-1.8,3.2-2.6,4.8c-0.4,0.6-0.7,1.2-1.1,1.7l-1.7,0.2c-2,0.2-4,0.3-6,0.3c-2.1,0-4.3-0.1-6.5-0.2
		s-4.4-0.4-6.7-0.6c-4.5-0.5-9-1.1-13.6-1.9c-2.3-0.4-4.6-0.8-6.8-1.2l-6.8-1.2h-0.2c-3-0.5-5.8,1.5-6.4,4.4
		c-0.4,2.4,0.8,4.8,2.9,5.9c4.4,2.2,9,4.1,13.6,5.8c2.3,0.8,4.6,1.7,7,2.4s4.8,1.4,7.2,2.1c5,1.3,10,2.3,15.1,2.9
		c2.7,0.3,5.4,0.5,8.2,0.4c3,0,6-0.3,9-1c1.7-0.4,3.2-1.2,4.4-2.4l0.5-0.5c1.8-1.8,3.4-3.8,4.9-5.9c1.4-1.9,2.6-3.8,3.8-5.6
		c2.4-3.7,4.5-7.5,6.4-11.2c1-1.9,2-3.8,2.9-5.7s1.8-3.8,2.7-5.7s1.7-3.8,2.5-5.8s1.6-3.8,2.4-5.9
		C324.6,120.7,322,114.6,316.6,112.2z"/>
	<path class="st6" d="M316.6,112.2c-5.6-2.4-12,0.1-14.5,5.7l0,0.1l-4.7,10.8c-1.6,3.6-3.2,7.2-4.8,10.8c-0.8,1.8-1.6,3.5-2.5,5.3
		s-1.7,3.5-2.5,5.1s-1.8,3.2-2.6,4.8c-0.4,0.6-0.7,1.2-1.1,1.7l-1.7,0.2c-2,0.2-4,0.3-6,0.3c-2.1,0-4.3-0.1-6.5-0.2
		s-4.4-0.4-6.7-0.6c-4.5-0.5-9-1.1-13.6-1.9c-2.3-0.4-4.6-0.8-6.8-1.2l-6.8-1.2h-0.2c-3-0.5-5.8,1.5-6.4,4.4
		c-0.4,2.4,0.8,4.8,2.9,5.9c4.4,2.2,9,4.1,13.6,5.8c2.3,0.8,4.6,1.7,7,2.4s4.8,1.4,7.2,2.1c5,1.3,10,2.3,15.1,2.9
		c2.7,0.3,5.4,0.5,8.2,0.4c3,0,6-0.3,9-1c1.7-0.4,3.2-1.2,4.4-2.4l0.5-0.5c1.8-1.8,3.4-3.8,4.9-5.9c1.4-1.9,2.6-3.8,3.8-5.6
		c2.4-3.7,4.5-7.5,6.4-11.2c1-1.9,2-3.8,2.9-5.7s1.8-3.8,2.7-5.7s1.7-3.8,2.5-5.8s1.6-3.8,2.4-5.9
		C324.6,120.7,322,114.6,316.6,112.2z"/>
	<path class="st7" d="M233.7,151.4l-8.2-2.4l-0.1,14.3c0,0,5.2,0.9,9-0.5c2.3-0.9,3.6-3.3,3.2-5.7l-0.2-1.5
		C237.1,153.6,235.7,152,233.7,151.4z"/>
	<path class="st7" d="M214.6,154.7l0.8,5c0.3,2,2,3.5,4.1,3.5h6l0.1-14.3l-7.4,1c-2.3,0.3-3.9,2.4-3.6,4.6
		C214.6,154.6,214.6,154.7,214.6,154.7z"/>
	<path class="st5" d="M360,108.8c-15-2.2-30.2-2.7-45.4-1.6c-7.1,0.6-12.7,6.4-13.1,13.5c-1.2,30.1-5.8,59.9-13.7,89
		c6.4,7.3,28.3,20.7,63.9,12.2c11.5-19.5,19.6-48.7,27.3-85.9c2.7-12.2-5-24.2-17.2-26.9C361.3,109,360.6,108.9,360,108.8z"/>
	<path class="st8" d="M360,108.8c-15-2.2-30.2-2.7-45.4-1.6c-7.1,0.6-12.7,6.4-13.1,13.5c-1.2,30.1-5.8,59.9-13.7,89
		c6.4,7.3,28.3,20.7,63.9,12.2c11.5-19.5,19.6-48.7,27.3-85.9c2.7-12.2-5-24.2-17.2-26.9C361.3,109,360.6,108.9,360,108.8z"/>
	<path class="st9" d="M328.8,115.4c-7,19.5-6.4,32.2-8,46.1s-8.8,45.6-16.7,54.7"/>
	<path class="st5" d="M117.7,73.4c10.2,4.5,20.4,9.1,30.5,13.9s20.1,9.7,30.1,14.7c19.9,10,39.6,20.5,59.1,31.4
		c19.5,11,38.6,22.5,57.3,34.8c18.7,12.3,36.9,25.4,54.4,39.4c1.5,1.2,1.7,3.4,0.5,4.9s-3.4,1.7-4.9,0.5l0,0h-0.1
		c-17-14.1-34.8-27.4-53.1-40c-18.4-12.4-37.2-24.3-56.4-35.6c-19.2-11.3-38.6-22.2-58.4-32.5c-9.9-5.2-19.8-10.2-29.8-15.2
		c-10-4.9-20-9.8-30.1-14.4l0,0c-0.5-0.2-0.7-0.8-0.5-1.4S117.2,73.2,117.7,73.4L117.7,73.4z"/>
	<path class="st5" d="M320.3,195.9c-15.8-11.7-32-22.9-48.6-33.5c-8.3-5.3-16.6-10.5-25-15.6c-8.4-5.1-16.9-10.1-25.4-15
		c-17.1-9.8-34.3-19.2-51.8-28.3c-17.5-9.1-35.1-17.9-52.9-26.1h0.1c-6-0.6-11.9-0.6-17.9-0.1c-6,0.5-11.9,1.4-17.7,2.8
		c-2.9,0.7-5.8,1.6-8.6,2.6c-2.8,1-5.4,2.3-7.9,4c-1.2,0.8-2.2,1.8-3.1,3c-0.9,1.1-1.3,2.5-1.3,3.9c0.1,1.4,0.7,2.7,1.6,3.8
		c0.9,1.2,1.9,2.2,3.1,3.1c2.4,1.8,4.9,3.4,7.6,4.6c2.7,1.3,5.5,2.4,8.1,3.9c2.7,1.4,5.2,3.3,7.3,5.6c1,1.2,1.8,2.6,2.3,4.1
		c0.4,1.5,0.5,3.2,0.1,4.7c-0.8,3-2.2,5.8-4.1,8.2c-1.8,2.5-3.8,4.7-5.7,7.1c-1.9,2.3-3.7,4.6-5.4,7.1c-1.7,2.4-2.7,5.2-3.1,8.2
		c-0.2,2.9,0.7,5.7,2.4,8c1.8,2.3,4,4.3,6.4,5.9c4.8,3.4,10.9,4.5,16.8,4.4c5.9-0.2,11.8-1.2,17.5-3c5.7-1.7,11.3-3.8,16.8-6.2
		c11-4.7,21.7-10.2,32.5-15.4c5.4-2.7,10.9-5.1,16.6-7.2c1.4-0.5,2.9-0.9,4.4-1.2c1.5-0.4,3.1-0.5,4.7-0.4c0.8,0,1.7,0.2,2.4,0.6
		c0.8,0.3,1.5,0.9,2.1,1.6c0.9,1.4,1.4,3,1.3,4.7c0,0.4-0.3,0.7-0.7,0.8c0,0,0,0,0,0c-0.4,0-0.7-0.3-0.7-0.7l0,0
		c0.1-1.3-0.3-2.7-1-3.8c-0.8-1-2.1-1.6-3.4-1.6c-1.4-0.1-2.9,0.1-4.3,0.4c-1.4,0.3-2.9,0.7-4.2,1.2c-5.6,2-11.1,4.4-16.4,7.1
		c-10.8,5.2-21.5,10.7-32.6,15.4c-5.5,2.4-11.2,4.4-17,6.2c-5.8,1.8-11.8,2.8-17.9,3.1c-3.1,0.1-6.1-0.2-9.1-0.9
		c-3-0.7-5.9-1.9-8.4-3.7c-2.6-1.7-4.9-3.8-6.7-6.2c-0.9-1.3-1.7-2.7-2.2-4.2c-0.5-1.5-0.6-3.1-0.5-4.7c0.4-3.1,1.6-6,3.3-8.6
		c1.7-2.5,3.5-4.9,5.5-7.2c1.9-2.3,3.9-4.6,5.6-7c1.8-2.3,3.2-4.9,4-7.8c0.3-1.4,0.3-2.8-0.1-4.2c-0.4-1.4-1.1-2.6-2.1-3.7
		c-2-2.2-4.4-4-7-5.3c-2.6-1.4-5.4-2.5-8.1-3.9c-2.7-1.3-5.3-2.9-7.8-4.8c-1.2-1-2.3-2.1-3.3-3.3c-1-1.3-1.6-2.8-1.7-4.4
		c0-1.6,0.5-3.2,1.5-4.5c0.9-1.2,2.1-2.3,3.4-3.2c2.5-1.7,5.3-3.1,8.1-4.1c2.8-1.1,5.7-1.9,8.7-2.6c5.9-1.4,11.8-2.3,17.9-2.8
		c6-0.5,12.1-0.5,18.1,0.1c0,0,0.1,0,0.1,0c17.9,8.3,35.4,17.1,52.9,26.2s34.7,18.6,51.8,28.4c8.5,4.9,17,9.9,25.4,15
		c8.4,5.1,16.8,10.3,25,15.7c16.6,10.7,32.7,21.9,48.6,33.6c0.1,0.1,0.1,0.2,0,0.3C320.5,196,320.4,196,320.3,195.9L320.3,195.9
		L320.3,195.9z"/>
	<path class="st5" d="M132.4,82.3l-1.1,2c-0.3,0.6-1.1,0.8-1.7,0.5l0,0c-0.6-0.3-0.8-1.1-0.5-1.7l1.1-2c0.3-0.6,1.1-0.8,1.7-0.5l0,0
		C132.5,80.9,132.7,81.7,132.4,82.3C132.4,82.3,132.4,82.3,132.4,82.3z"/>
	<path class="st5" d="M190.6,112.2l-1.1,2c-0.3,0.6-1.1,0.8-1.7,0.5c0,0,0,0,0,0l0,0c-0.6-0.3-0.8-1.1-0.5-1.7c0,0,0,0,0,0l1.1-2
		c0.3-0.6,1.1-0.8,1.7-0.5c0,0,0,0,0,0l0,0C190.7,110.8,190.9,111.6,190.6,112.2z"/>
	<path class="st5" d="M251.2,146.2l-1.1,2c-0.3,0.6-1.1,0.8-1.7,0.5l0,0c-0.6-0.3-0.8-1.1-0.5-1.7l1.1-2c0.3-0.6,1.1-0.8,1.7-0.5
		l0,0C251.3,144.8,251.6,145.6,251.2,146.2z"/>
	<path class="st5" d="M309.4,184.7l-1.1,2c-0.3,0.6-1.1,0.8-1.7,0.5l0,0c-0.6-0.3-0.8-1.1-0.5-1.7l1.1-2c0.3-0.6,1.1-0.8,1.7-0.5
		l0,0C309.5,183.3,309.7,184.1,309.4,184.7z"/>
	<path class="st5" d="M339.9,195.8l-8.4,15c-0.4,0.8-1.4,1-2.1,0.6c0,0-0.1-0.1-0.1-0.1l-21.6-15c-0.7-0.5-0.9-1.4-0.5-2.1l8.4-15
		c0.4-0.8,1.4-1,2.1-0.6c0,0,0.1,0.1,0.1,0.1l21.6,15C340.1,194.2,340.3,195.1,339.9,195.8z"/>
	<path class="st5" d="M320,211.9c-1.8,0-3.5-0.5-5-1.6l-1.5-1c-3.7-2.6-4.8-7.5-2.6-11.4l1.8-3.2c0.4-0.6,1-1.1,1.7-1.3
		c0.7-0.2,1.5,0,2.1,0.4l11.6,8.1c1.1,0.8,1.4,2.2,0.8,3.4l-1.2,2.2c-1.2,2.1-3.3,3.7-5.6,4.2C321.3,211.8,320.7,211.9,320,211.9z
		 M315.3,197.2l-1.3,2.4c-1.3,2.3-0.6,5.3,1.6,6.8l1.5,1c1.2,0.8,2.7,1.1,4.2,0.8c1.4-0.3,2.7-1.2,3.4-2.5l0.8-1.5L315.3,197.2z"/>
	<path class="st5" d="M338.7,190.6l-2.1,3.8c-0.2,0.3-0.6,0.5-0.9,0.3c0,0,0,0-0.1,0l-14.4-10c-0.4-0.3-0.5-0.7-0.2-1.1l2.1-3.8
		c0.2-0.3,0.6-0.5,0.9-0.3c0,0,0,0,0.1,0l14.4,10C338.8,189.7,338.9,190.2,338.7,190.6z"/>
	<path class="st7" d="M352.1,79.4l-18.2,12.7c1.5,6.4,1.5,13.2-7.4,15.2c0.7,3,3.1,4.9,7.4,5.5c5.6,1.1,9.9,1.6,14.6-1.7
		c1.8-1.3,4.1-2.5,3.1-4.6C348.2,99.1,350.3,86.7,352.1,79.4z"/>
	<path class="st10" d="M344.7,84.6l-10.8,7.5c0.4,1.6,0.6,3.2,0.7,4.8c3.9,0.8,9.7-2.9,10.3-6.7C345.2,88.4,345.1,86.5,344.7,84.6z"
		/>
	<path class="st7" d="M357.8,68.3c-2.7,11.3-3.7,18.1-10.5,22.9c-10.3,7.2-23.5-0.6-24.2-12.6c-0.7-10.8,3.9-27.5,15.9-30
		c8.7-1.8,17.2,3.8,19,12.5C358.4,63.5,358.4,66,357.8,68.3z"/>
	<path class="st3" d="M325.3,76.9c0,0,4.6-0.5,17.2,0.8c-1.9,3.2-5,5.7-11.4,4.9S325.3,76.9,325.3,76.9z"/>
	<path class="st5" d="M356.1,46.7c-11.4-7-26.7-3.3-29.4,4.3c1.6-1,3.5-1.4,5.4-1.2c-2.3,1.1-5.4,3.9-4.3,7.6
		c2.8-3.2,5.7-3.3,5.7-3.3s2.1,4,8.9,4.9c-0.3-1.2-0.6-2.4-0.8-3.6c2.1,4.1,5.9,6.9,10.4,7.7c-2,2.2-2.6,10.1,2.3,13.2
		c7-0.4,12.8-2.8,12.4-7.1c0.5,1.1,0.9,2.1,1.3,3.2c0,0,4.4-5.9-0.8-12.7C369.9,56.5,364.5,51.9,356.1,46.7z"/>
	<path class="st5" d="M325,61.2c0,0-2.4,4.8-2,8.5c2.7,0,9.1-1,9.1-1c2.3,2,5,3.5,7.9,4.4c4.3,1.1,18.2,0.2,18.2,0.2l0.6-4
		c0,0-18.7-6.1-25.9-7.4S325,61.2,325,61.2z"/>
	<path class="st7" d="M361.3,80.6c-1.8,2.3-4.5,3.8-7.4,4.1c-3.9,0.4-5.2-3.2-3.6-6.5c1.4-3,5.2-6.8,8.8-5.7
		C362.7,73.6,363.5,77.7,361.3,80.6z"/>
	<path class="st3" d="M340.2,67.4c-0.2,0.9-0.8,1.6-1.4,1.5s-1-1-0.8-1.9s0.8-1.6,1.4-1.5S340.3,66.5,340.2,67.4z"/>
	<path class="st3" d="M329,65.3c-0.2,0.9-0.8,1.6-1.4,1.5s-1-1-0.8-1.9s0.8-1.6,1.4-1.5S329.1,64.3,329,65.3z"/>
	<path class="st11" d="M333.1,65.3c0,0-3.1,5-5.9,7.2c1.4,1.9,4.3,1.7,4.3,1.7L333.1,65.3z"/>
	<path class="st5" d="M339.1,60.1c-0.1,0.1-0.1,0.1-0.2,0.2c-0.1,0.3,0,0.6,0.3,0.7c1.7,0.7,3.6,0.5,5.1-0.4
		c0.2-0.2,0.3-0.5,0.1-0.8c0,0,0,0,0,0c-0.2-0.3-0.5-0.3-0.8-0.1l0,0c-1.2,0.7-2.7,0.8-4,0.3C339.5,59.9,339.2,59.9,339.1,60.1z"/>
	<path class="st5" d="M328.8,59.3c0-0.2-0.2-0.3-0.3-0.4c-1.3-0.5-2.3-1.6-2.7-2.9c-0.1-0.3-0.3-0.5-0.6-0.4
		c-0.3,0.1-0.5,0.4-0.4,0.7c0.4,1.7,1.7,3.1,3.4,3.8c0.3,0.1,0.6,0,0.7-0.3c0,0,0,0,0,0C328.8,59.5,328.8,59.4,328.8,59.3z"/>
	<path class="st5" d="M376.5,119.4c1,2,1.8,3.9,2.7,5.8s1.6,3.9,2.4,5.8c1.6,3.9,3,7.9,4.3,11.9s2.5,8.2,3.4,12.6
		c0.5,2.2,0.9,4.4,1.2,6.8c0.4,2.5,0.5,5.1,0.5,7.7c0,1.6-0.2,3.1-0.5,4.7c-0.2,0.9-0.4,1.9-0.7,2.8l-0.3,0.8l-0.3,0.8
		c-0.2,0.5-0.4,0.9-0.7,1.4l-0.5,0.9c-0.2,0.4-0.4,0.7-0.7,1.1c-0.5,0.7-0.9,1.4-1.4,2c-0.9,1.1-1.9,2.2-3,3.2
		c-3.7,3.3-7.9,5.9-12.4,7.9c-2.1,1-4.1,1.8-6.2,2.5s-4.1,1.4-6.2,1.9s-4.2,1.1-6.2,1.5c-2.1,0.4-4.1,0.8-6.4,1
		c-3,0.4-5.8-1.8-6.1-4.8c-0.3-2.3,0.9-4.5,2.9-5.5l0.3-0.1c6.8-3.5,13.8-7.2,19.6-11.4c2.6-1.8,5-3.9,7.1-6.3
		c0.3-0.4,0.6-0.9,0.9-1.4c0.1-0.2,0.2-0.4,0.3-0.6l0.1-0.2l0.2-0.5c0,0,0-0.1,0,0c0,0,0,0.1,0,0.1l0,0c0,0,0-0.1,0-0.2
		s0-0.8-0.1-1.4c-0.1-1.5-0.4-2.9-0.7-4.4c-0.3-1.6-0.8-3.3-1.3-5c-1-3.5-2.2-7-3.5-10.6s-2.7-7.2-4.2-10.8l-2.4-5.3l-2.2-5.2
		l-0.1-0.2c-2-5.7,0.9-12,6.6-14.1C368.2,112.6,373.9,114.8,376.5,119.4L376.5,119.4z"/>
	<path class="st6" d="M376.5,119.4c1,2,1.8,3.9,2.7,5.8s1.6,3.9,2.4,5.8c1.6,3.9,3,7.9,4.3,11.9s2.5,8.2,3.4,12.6
		c0.5,2.2,0.9,4.4,1.2,6.8c0.4,2.5,0.5,5.1,0.5,7.7c0,1.6-0.2,3.1-0.5,4.7c-0.2,0.9-0.4,1.9-0.7,2.8l-0.3,0.8l-0.3,0.8
		c-0.2,0.5-0.4,0.9-0.7,1.4l-0.5,0.9c-0.2,0.4-0.4,0.7-0.7,1.1c-0.5,0.7-0.9,1.4-1.4,2c-0.9,1.1-1.9,2.2-3,3.2
		c-3.7,3.3-7.9,5.9-12.4,7.9c-2.1,1-4.1,1.8-6.2,2.5s-4.1,1.4-6.2,1.9s-4.2,1.1-6.2,1.5c-2.1,0.4-4.1,0.8-6.4,1
		c-3,0.4-5.8-1.8-6.1-4.8c-0.3-2.3,0.9-4.5,2.9-5.5l0.3-0.1c6.8-3.5,13.8-7.2,19.6-11.4c2.6-1.8,5-3.9,7.1-6.3
		c0.3-0.4,0.6-0.9,0.9-1.4c0.1-0.2,0.2-0.4,0.3-0.6l0.1-0.2l0.2-0.5c0,0,0-0.1,0,0c0,0,0,0.1,0,0.1l0,0c0,0,0-0.1,0-0.2
		s0-0.8-0.1-1.4c-0.1-1.5-0.4-2.9-0.7-4.4c-0.3-1.6-0.8-3.3-1.3-5c-1-3.5-2.2-7-3.5-10.6s-2.7-7.2-4.2-10.8l-2.4-5.3l-2.2-5.2
		l-0.1-0.2c-2-5.7,0.9-12,6.6-14.1C368.2,112.6,373.9,114.8,376.5,119.4L376.5,119.4z"/>
	<path class="st7" d="M342.2,191.2l-8.1,0.1l4.2,13.7c2.5-0.4,4.9-1.2,7.2-2.3c2.7-1.6,3.7-5,2.3-7.8l-0.2-0.3
		C346.7,192.5,344.6,191.1,342.2,191.2z"/>
	<path class="st7" d="M325.5,200.1l2.3,4.5c0.9,1.8,3,2.7,4.9,2.1l5.7-1.8l-4.2-13.6l-6.8,3.2C325.3,195.6,324.4,198,325.5,200.1
		C325.4,200.1,325.4,200.1,325.5,200.1z"/>
	<path class="st10" d="M359.5,45.8c-8.9-3.3-16.1-3.2-20.8-2.4c-0.9,0.2-1.5,1.1-1.4,2c0.1,0.6,0.5,1.1,1.1,1.3
		c6.9,2.5,12.6,10.1,11.2,21.8c-2.8,23.2-15.8,44.7-15.8,44.7l16.6,0.1c0,0,12.2-6.1,19.6-21.9S375.9,51.8,359.5,45.8z"/>
	<path class="st5" d="M333.9,112.8c0,0,20.2-26.2,20.8-47.1s-21.6-22.1-21.6-22.1s6.9-5.4,24.1-2.2s22.7,26.5,17.9,43.2
		c-3,10.3-8.1,19.9-14.9,28.2l-28,7.9L333.9,112.8z"/>
	<path class="st8" d="M333.9,112.8c0,0,20.2-26.2,20.8-47.1s-21.6-22.1-21.6-22.1s6.9-5.4,24.1-2.2s22.7,26.5,17.9,43.2
		c-3,10.3-8.1,19.9-14.9,28.2l-28,7.9L333.9,112.8z"/>
</g>
<g id="freepik--Notebook--inject-31">
	<path class="st12" d="M299.1,165.2v121.5c0,5.8-4.7,10.5-10.5,10.5H92.9c-5.8,0-10.5-4.7-10.5-10.5V165.2c0-5.8,4.7-10.4,10.5-10.4
		h195.7C294.4,154.8,299.1,159.5,299.1,165.2z"/>
	<path class="st12" d="M92.3,301.1c-5.4,0-11.1,1.5-12.6,3.3l-40.1,44.9c-2.1,2.6,1.5,8.6,8.1,8.6h239.3c6.6,0,12-2.1,12-4.7v-48.8
		c0-1.8-4.4-3.3-9.9-3.3L92.3,301.1z"/>
	<path class="st10" d="M92.3,301.1c-5.4,0-11.1,1.5-12.6,3.3l-40.1,44.9c-2.1,2.6,1.5,8.6,8.1,8.6h239.3c6.6,0,12-2.1,12-4.7v-48.8
		c0-1.8-4.4-3.3-9.9-3.3L92.3,301.1z"/>
	<path class="st12" d="M92.3,297.2c-5.4,0-11.1,1.5-12.6,3.3l-40.1,48.8c-2.1,2.6,1.5,4.7,8.1,4.7h239.3c6.6,0,12-2.1,12-4.7v-48.8
		c0-1.8-4.4-3.3-9.9-3.3L92.3,297.2z"/>
	<path class="st10" d="M87.6,304.6l-16.8,21.5c-1.2,1.5,1.2,2.7,5.3,2.7h203.3c4.1,0,7.4-1.2,7.5-2.7l0.9-21.5
		c0-1.3-2.9-2.3-6.6-2.3H96.1C92.4,302.4,88.6,303.4,87.6,304.6z"/>
	<path class="st10" d="M136,334.7l-7.2,13.3c-0.4,0.7,0.8,1.3,2.6,1.3h75.8c1.8,0,3.5-0.6,3.7-1.3l3.7-13.3c0.2-0.6-1.1-1.2-2.8-1.2
		h-72.1C138.1,333.5,136.4,334.1,136,334.7z"/>
	<path class="st13" d="M92.7,157.6h196.1c4.1,0,7.5,3.3,7.5,7.5V287c0,4.1-3.3,7.5-7.5,7.5H92.7c-4.1,0-7.5-3.3-7.5-7.5V165.1
		C85.2,160.9,88.6,157.6,92.7,157.6z"/>
	<rect x="135.7" y="208.5" class="st12" width="110.2" height="65.6"/>
	<rect x="135.7" y="208.5" class="st14" width="110.2" height="65.6"/>
	<polygon class="st15" points="190.7,244.3 245.8,208.5 135.7,208.5 	"/>
	<path class="st12" d="M197.6,177.2l48.2,31.3H135.7l48.2-31.3C188,174.5,193.4,174.5,197.6,177.2z"/>
	<path class="st16" d="M139.8,208.5l45.8-29.7c3.2-2,7.2-2,10.4,0l45.8,29.7H139.8z"/>
	<path class="st5" d="M195.2,184.2c-0.4,0-0.7-0.3-0.7-0.7c0,0,0,0,0,0v-33.3c0-0.4,0.3-0.7,0.7-0.7c0.4,0,0.7,0.3,0.7,0.7v33.3
		C196,183.9,195.6,184.2,195.2,184.2z"/>
	<path class="st5" d="M195.2,150.9c-1.7,0-3-1.3-3-3c0-1.7,1.3-3,3-3c1.6,0,3,1.3,3,2.9C198.3,149.5,196.9,150.9,195.2,150.9
		C195.3,150.9,195.3,150.9,195.2,150.9z M195.2,146.3c-0.9,0-1.6,0.7-1.6,1.6s0.7,1.6,1.6,1.6s1.6-0.7,1.6-1.6
		S196.1,146.3,195.2,146.3L195.2,146.3z"/>
	<polygon class="st3" points="162.4,175.6 147.7,180 145.4,214.9 190.7,244.3 236,214.9 238.4,182.2 	"/>
	<path class="st17" d="M209.1,214.3c-0.7,8.9-8.4,15.6-17.3,14.9s-15.6-8.4-14.9-17.3c0.7-8.9,8.4-15.6,17.3-14.9c0,0,0,0,0,0
		c8.8,0.6,15.5,8.3,14.9,17.2C209.1,214.2,209.1,214.2,209.1,214.3z"/>
	<path class="st3" d="M205,221c-4.3,6.7-13.2,8.6-19.8,4.3c-2.3-1.5-4.2-3.7-5.3-6.2C187.9,214.6,197.8,215.4,205,221z"/>
	
		<ellipse transform="matrix(0.1864 -0.9825 0.9825 0.1864 -47.3983 359.5069)" class="st3" cx="193.4" cy="208.4" rx="6.4" ry="6.4"/>
	<path class="st5" d="M188,191.4c-3.8,0-7-2.7-7.8-6.4l-0.8,0.8c-0.4,0.2-0.8,0.1-1-0.3c-0.1-0.2-0.1-0.5,0-0.7l1.9-1.9
		c0.3-0.3,0.8-0.3,1,0c0.1,0.1,0.2,0.3,0.2,0.5c0,3.6,2.9,6.5,6.4,6.5c0.4,0,0.7,0.3,0.7,0.7C188.7,191.1,188.4,191.5,188,191.4
		L188,191.4z"/>
	<polyline class="st2" points="162.4,175.6 159.9,183.5 147.7,180 	"/>
	<polyline class="st4" points="162.4,175.6 161.2,182.1 147.7,180 	"/>
	<path class="st12" d="M181.4,238.2l-45.7,35.9h110.2l-45.7-35.9C194.6,233.9,186.9,233.9,181.4,238.2z"/>
</g>
</svg>
